<?xml version="1.0" encoding="UTF-8"?><svg xmlns="http://www.w3.org/2000/svg" viewBox="0 0 1920 1080"><defs><style>.c{fill:#a36032;}.d{fill:#cf9361;}.e{fill:#c6784e;}.f{fill:#91532a;}.g{fill:#7a4925;}</style></defs><g id="a"/><g id="b"><g><path class="f" d="M1123.5,736.09v113.91h-327v-113.91c50.12-7.79,105.41-12.09,163.5-12.09s113.38,4.31,163.5,12.09Z"/><rect class="d" x="772.5" y="710.5" width="24" height="7.5"/><rect class="d" x="1123.5" y="710.5" width="24" height="7.5"/><path class="e" d="M960,716.5c-58.09,0-113.38,4.31-163.5,12.09v7.5c50.12-7.79,105.41-12.09,163.5-12.09s113.38,4.31,163.5,12.09v-7.5c-50.12-7.79-105.41-12.09-163.5-12.09Z"/><path class="g" d="M814.5,832v-80.36c46.29-6.4,95.15-9.64,145.5-9.64s99.21,3.24,145.5,9.64v80.36h-291Z"/><rect class="c" x="772.5" y="718" width="24" height="150"/><rect class="c" x="1123.5" y="718" width="24" height="150"/></g></g></svg>