<?xml version="1.0" encoding="UTF-8"?><svg xmlns="http://www.w3.org/2000/svg" viewBox="0 0 1920 1080"><defs><style>.c{fill:#d1ecef;}.d{fill:#ffde4e;}.e{fill:#ee5145;}.f{fill:#f2925a;}.g{fill:#f6c69e;}.h{fill:#eda874;}.i{fill:#6d2218;}.j{fill:#861f1d;}</style></defs><g id="a"/><g id="b"><g><g><rect class="g" x="842.25" y="625.75" width="21" height="75"/><rect class="g" x="878.25" y="625.75" width="21" height="75"/></g><g><path class="g" d="M814.01,543.96c-1.14,4.56-1.76,9.33-1.76,14.25v52.5h18v-52.5c0-5.01,.92-9.81,2.6-14.25h-18.84Z"/><path class="g" d="M927.49,543.96h-18.84c1.67,4.44,2.6,9.24,2.6,14.25v52.5h18v-52.5c0-4.92-.61-9.69-1.76-14.25Z"/></g><g><polygon class="c" points="891.75 562.71 849.75 562.71 837.75 517.71 903.75 517.71 891.75 562.71"/><path class="c" d="M875.12,556.71h-8.74c-20.78,0-37.63,16.85-37.63,37.63v31.37h84v-31.37c0-20.78-16.85-37.63-37.63-37.63Z"/><path class="c" d="M832.85,543.96c5.78-15.32,20.59-26.25,37.9-26.25s32.13,10.93,37.9,26.25h18.84c-6.36-25.42-29.35-44.25-56.74-44.25s-50.38,18.83-56.74,44.25h18.84Z"/></g><g><g><rect class="g" x="812.25" y="601.71" width="18" height="28.5" rx="9" ry="9"/><rect class="g" x="827.43" y="605.87" width="6" height="15" rx="3" ry="3" transform="translate(-190.49 766.86) rotate(-45)"/></g><g><rect class="g" x="911.25" y="601.71" width="18" height="28.5" rx="9" ry="9"/><rect class="g" x="903.57" y="610.37" width="15" height="6" rx="3" ry="3" transform="translate(-166.87 823.87) rotate(-45)"/></g></g><g><g><path class="e" d="M863.25,685.71v15h-33v-6c0-4.96,4.03-9,9-9h24Z"/><path class="g" d="M863.25,685.71v9h-19.48c-.54,0-1.05-.09-1.52-.27-1.75-.62-3-2.3-3-4.25v-4.48h24Z"/></g><g><path class="e" d="M911.25,694.71v6h-33v-15h24c4.97,0,9,4.04,9,9Z"/><path class="g" d="M902.25,685.71v4.48c0,1.95-1.25,3.63-3,4.25-.47,.18-.97,.27-1.52,.27h-19.48v-9h24Z"/></g></g><g><rect class="h" x="858.75" y="469.71" width="24" height="45" rx="12" ry="12"/><g><rect class="f" x="830.25" y="448.71" width="81" height="15" rx="7.5" ry="7.5"/><rect class="h" x="830.25" y="448.71" width="81" height="15" rx="7.5" ry="7.5"/><rect class="g" x="839.25" y="406.71" width="63" height="90" rx="31.5" ry="31.5"/></g><g><circle class="i" cx="855" cy="446.08" r="4.5"/><circle class="i" cx="886.5" cy="446.08" r="4.5"/></g><g><path class="j" d="M870.75,476.3c-3.37,0-6.59-.7-9.59-2.07-.75-.34-1.08-1.23-.74-1.99,.35-.75,1.24-1.08,1.99-.74,5.21,2.38,11.48,2.38,16.69,0,.75-.34,1.64-.01,1.99,.74,.34,.75,.01,1.64-.74,1.99-3,1.37-6.23,2.07-9.59,2.07Z"/><path class="j" d="M870.75,476.3c-3.37,0-6.59-.7-9.59-2.07-.75-.34-1.08-1.23-.74-1.99,.35-.75,1.24-1.08,1.99-.74,5.21,2.38,11.48,2.38,16.69,0,.75-.34,1.64-.01,1.99,.74,.34,.75,.01,1.64-.74,1.99-3,1.37-6.23,2.07-9.59,2.07Z"/></g><path class="h" d="M870.75,452.48h3.88c2.58,0,3.96,3.04,2.26,4.98l-.89,1.02-2.99,3.42c-1.2,1.37-3.33,1.37-4.52,0l-2.99-3.42-.89-1.02c-1.7-1.94-.32-4.98,2.26-4.98h3.88Z"/><g><path class="d" d="M830.25,442.65c.5,.05,.99,.06,1.5,.06h30c6.21,0,11.84-2.52,15.9-6.6,2.36-2.34,4.19-5.21,5.31-8.39v-.02h0v15h2.78c6.21,0,11.84-2.52,15.9-6.6,2.81-2.79,4.86-6.32,5.9-10.26v-.02c-5.78-12.51-17.76-21.62-31.92-23.33-1.61-.2-3.23-.3-4.88-.3-16.26,0-30.36,9.71-36.8,23.63v.02c-2.36,5.12-3.69,10.82-3.71,16.8v.06h31.5"/><g><path class="d" d="M870.75,402.2c-22.37,0-40.5,18.13-40.5,40.5v13.5c0-2.07,.84-3.93,2.2-5.3,1.36-1.36,3.23-2.2,5.3-2.2h1.5v-10.5c0-17.33,14.17-31.5,31.5-31.5s31.5,14.17,31.5,31.5v10.5h1.5c4.13,0,7.5,3.38,7.5,7.5v-13.5c0-22.37-18.13-40.5-40.5-40.5Z"/><path class="d" d="M895.13,505.03c9.79-7.39,16.12-19.12,16.12-32.33v-16.5c0,2.07-.84,3.93-2.2,5.3s-3.23,2.2-5.3,2.2h-1.5v1.5c0,13.08-8.08,24.35-19.5,29.1v6.64c4.32,.9,8.47,2.29,12.38,4.09Z"/><path class="d" d="M846.37,505.03c3.92-1.8,8.06-3.19,12.38-4.09v-6.64c-11.42-4.74-19.5-16.02-19.5-29.1v-1.5h-1.5c-4.13,0-7.5-3.38-7.5-7.5v16.5c0,13.21,6.33,24.93,16.12,32.33Z"/></g></g></g></g></g></svg>