<?xml version="1.0" encoding="UTF-8"?>
<svg xmlns="http://www.w3.org/2000/svg" viewBox="0 0 1920 1080">
  <defs>
    <style>
      .cls-1 {
        fill: #fff;
      }

      .cls-2 {
        fill: #4564d6;
      }

      .cls-3 {
        fill: #556bf4;
      }

      .cls-4 {
        fill: #4d68e8;
      }
    </style>
  </defs>
  <g id="Calque_2" data-name="Calque 2"/>
  <g id="Calque_1" data-name="Calque 1">
    <g>
      <g>
        <polygon class="cls-3" points="1920 0 1920 1080 822.89 1080 847.49 1029.44 847.5 1029.41 874.09 974.75 874.09 974.74 929.82 860.18 929.82 860.17 978.42 760.25 978.42 760.24 998 720 975.03 726.83 934.93 738.75 918.9 743.52 936.4 703.76 965.88 636.79 988.1 586.32 992.94 575.31 992.94 575.3 993.01 575.16 993.17 574.81 993.17 574.8 996.09 568.16 1000.91 557.21 1002.94 552.59 1003 552.46 1005.88 545.92 1007.3 542.69 1007.86 541.42 1009.61 537.46 1013.94 527.62 1014.36 526.66 1018.44 517.38 1023.32 506.3 1029.38 492.54 1029.38 492.53 1030.72 489.49 1049.54 446.74 1049.54 446.73 1081.53 374.06 1081.54 374.04 1134.64 253.41 1083.18 263.67 1037.7 272.74 1013.85 277.5 1058.34 194.79 1067.58 177.61 1163.12 0 1920 0"/>
        <g>
          <polygon class="cls-4" points="1463.77 0 1081.54 374.04 1134.64 253.41 1329.3 0 1463.77 0"/>
          <polygon class="cls-4" points="1215.13 0 1083.18 263.67 1037.7 272.74 1058.34 194.79 1067.58 177.61 1163.12 0 1215.13 0"/>
          <polygon class="cls-4" points="1814.02 0 1030.72 489.49 1049.54 446.74 1049.54 446.73 1632.66 0 1814.02 0"/>
          <polygon class="cls-4" points="1920 81.14 1920 198.27 1104.95 486.76 1018.44 517.38 1023.32 506.3 1029.38 492.54 1029.38 492.53 1920 81.14"/>
          <polygon class="cls-4" points="1920 300.06 1920 395.7 1014.36 526.66 1018.44 517.38 1023.32 506.3 1027.5 504.5 1104.95 486.76 1920 300.06"/>
          <polygon class="cls-4" points="1920 495 1920 571.19 1043.94 542.59 1043.92 542.59 1007.86 541.42 1009.61 537.46 1013.94 527.62 1920 495"/>
          <polygon class="cls-4" points="1920 673.7 1920 766.87 1089.5 572.69 1089.46 572.68 1033.02 559.48 1003 552.46 1005.88 545.92 1007.3 542.69 1007.86 541.42 1009.61 537.46 1043.92 542.59 1043.94 542.59 1920 673.7"/>
          <polygon class="cls-4" points="1920 875.74 1920 1002.49 1033.02 559.48 1005.88 545.92 1007.3 542.69 1089.46 572.68 1089.5 572.69 1920 875.74"/>
          <polygon class="cls-4" points="1818.63 1080 1633.33 1080 1000.91 557.21 1002.94 552.59 1818.63 1080"/>
          <polygon class="cls-4" points="1464.19 1080 1346.02 1080 993.17 574.81 993.17 574.8 996.09 568.16 1464.19 1080"/>
          <polygon class="cls-4" points="1216.37 1080 1102.09 1080 988.1 586.32 992.94 575.31 1216.37 1080"/>
          <polygon class="cls-4" points="975.03 726.83 934.93 738.75 936.4 703.76 965.88 636.79 975.03 726.83"/>
          <polygon class="cls-4" points="1010.9 1080 920.56 1080 929.81 860.22 929.82 860.21 929.82 860.17 978.42 760.25 1010.9 1080"/>
        </g>
        <g>
          <polygon class="cls-2" points="1373.98 0 1387.58 0 1272.5 133.5 1373.98 0"/>
          <polygon class="cls-2" points="1564.42 0 1272.5 250.2 1532.19 0 1564.42 0"/>
          <polygon class="cls-2" points="1878.74 0 1525.5 200.5 1835.15 0 1878.74 0"/>
          <polygon class="cls-2" points="1920 151.51 1920 172.94 1593.5 283.5 1920 151.51"/>
          <polygon class="cls-2" points="1920 336.3 1920 359.89 1511.52 429.5 1920 336.3"/>
          <polygon class="cls-2" points="1920 546.5 1920 561.94 1552.5 546.5 1920 546.5"/>
          <polygon class="cls-2" points="1920 742.46 1920 758.56 1615.5 683.5 1920 742.46"/>
          <polygon class="cls-2" points="1920 1012.78 1920 1034.87 1445.05 782.5 1920 1012.78"/>
          <polygon class="cls-2" points="1598.91 1080 1584.59 1080 1375.5 887.5 1598.91 1080"/>
          <polygon class="cls-2" points="1403.59 1080 1388.29 1080 1243.3 887.5 1403.59 1080"/>
          <polygon class="cls-2" points="1238.93 1080 1168.92 922.63 1251.42 1080 1238.93 1080"/>
          <polygon class="cls-2" points="1080.76 1080 1064.95 1080 1019.5 809.5 1080.76 1080"/>
          <polygon class="cls-2" points="874.09 974.75 855.23 1080 833.98 1080 847.49 1029.44 847.5 1029.41 874.09 974.75"/>
          <polygon class="cls-2" points="1196.87 0 1115.5 190.5 1184.34 0 1196.87 0"/>
        </g>
      </g>
      <polygon class="cls-1" points="991.98 573.11 993.17 574.8 993.17 574.81 993.01 575.16 992.94 575.3 991.98 573.11"/>
      <polygon class="cls-1" points="1003 552.46 1002.94 552.59 1002.59 552.37 1003 552.46"/>
    </g>
  </g>
</svg>