<?xml version="1.0" encoding="UTF-8"?>
<svg xmlns="http://www.w3.org/2000/svg" viewBox="0 0 1920 1080">
  <defs>
    <style>
      .cls-1 {
        fill: #fff;
      }

      .cls-2 {
        fill: #e2a14c;
      }

      .cls-3 {
        fill: #d8984a;
      }

      .cls-4 {
        fill: #cc8d48;
      }
    </style>
  </defs>
  <g id="Calque_2" data-name="Calque 2"/>
  <g id="Calque_1" data-name="Calque 1">
    <g>
      <g>
        <polygon class="cls-2" points="960.29 340.49 988.5 332.88 955.39 435.04 955.38 435.08 946.95 461.1 941.26 478.65 937.05 491.65 936.81 492.38 935.1 497.65 934.28 500.17 931 510.32 929.44 515.13 927.47 521.2 927.43 521.33 925.81 526.31 924.89 529.16 924.32 530.93 922.42 536.78 920.59 542.42 919.01 547.3 915.78 557.27 915.67 557.6 909.33 577.16 909.33 577.17 902.32 598.8 889.63 637.96 865.58 712.17 865.58 712.19 837.41 799.1 876.99 791.28 887.5 789.2 842.89 937.08 799.77 1080 0 1080 0 0 1006.01 0 973.86 79.23 973.85 79.29 935.41 174 924.61 200.61 924.61 200.62 893.05 278.4 866.43 344 856.5 368.48 875.6 363.33 914.97 352.71 931.73 348.19 960.29 340.49"/>
        <g>
          <polygon class="cls-3" points="902.32 598.8 889.63 637.96 588.74 1080 451.57 1080 902.32 598.8"/>
          <polygon class="cls-3" points="915.78 557.27 915.67 557.6 909.34 577.15 909.33 577.16 909.33 577.17 283.83 1080 88.13 1080 913.98 558.4 914.03 558.38 914.05 558.36 915.78 557.27"/>
          <polygon class="cls-3" points="919.01 547.3 915.78 557.27 915.67 557.6 914.05 558.36 914.03 558.38 913.98 558.4 0 987.39 0 876.16 919.01 547.3"/>
          <polygon class="cls-3" points="918.66 530.14 924.89 529.16 924.32 530.93 922.42 536.78 920.59 542.42 0 763.44 0 674.39 856.56 539.89 918.66 530.14"/>
          <polygon class="cls-3" points="925.81 526.31 924.89 529.16 924.32 530.93 922.42 536.78 856.56 539.89 0 580.28 0 487.01 876.24 524.21 925.81 526.31"/>
          <polygon class="cls-3" points="0 302.53 927.43 521.33 925.81 526.31 924.89 529.16 924.32 530.93 918.66 530.14 876.24 524.21 0 401.76 0 302.53"/>
          <polygon class="cls-3" points="893.71 493.01 931 510.32 929.44 515.13 927.47 521.2 0 198.01 0 78.05 893.67 492.99 893.68 492.99 893.71 493.01"/>
          <polygon class="cls-3" points="935.1 497.65 934.28 500.17 931 510.32 929.44 515.13 893.71 493.01 893.68 492.99 893.67 492.99 97.23 0 301.93 0 921.8 487.19 935.1 497.65"/>
          <polygon class="cls-3" points="937.05 491.65 936.81 492.38 935.1 497.65 934.28 500.17 921.8 487.19 453.41 0 586.49 0 935.3 489.2 937.05 491.65"/>
          <polygon class="cls-3" points="893.05 278.4 866.43 344 703.27 0 810.92 0 893.05 278.4"/>
          <polygon class="cls-3" points="946.95 461.1 941.26 478.65 937.05 491.65 936.81 492.38 935.3 489.2 875.6 363.33 914.97 352.71 935.27 421.52 946.95 461.1"/>
          <polygon class="cls-3" points="960.29 340.49 955.39 435.04 955.38 435.08 946.95 461.1 941.26 478.65 938 478 935.27 421.52 931.73 348.19 960.29 340.49"/>
          <polygon class="cls-3" points="977.97 0 973.86 79.23 973.85 79.29 935.41 174 924.61 200.61 914.92 0 977.97 0"/>
          <polygon class="cls-3" points="876.99 791.28 842.9 937.02 842.89 937.08 799.77 1080 692.36 1080 865.58 712.19 837.41 799.1 876.99 791.28"/>
        </g>
        <g>
          <polygon class="cls-4" points="390.5 868.5 36.09 1080 0 1080 0 1076.43 390.5 868.5"/>
          <polygon class="cls-4" points="0 841.17 424.4 709.89 0 856.07 0 841.17"/>
          <polygon class="cls-4" points="255.5 668.5 0 730.25 0 711.08 255.5 668.5"/>
          <polygon class="cls-4" points="416.5 584.5 0 629.88 0 616.15 416.5 584.5"/>
          <polygon class="cls-4" points="389.38 471.74 0 434.96 0 421.65 389.38 471.74"/>
          <polygon class="cls-4" points="399.5 220.5 0 2.75 0 0 41.93 0 399.5 220.5"/>
          <polygon class="cls-4" points="595.5 197.5 371.9 0 400.37 0 595.5 197.5"/>
          <polygon class="cls-4" points="755.91 197.5 624.48 0 642.45 0 755.91 197.5"/>
          <polygon class="cls-4" points="783.5 98.5 737.77 0 748.78 0 783.5 98.5"/>
          <polygon class="cls-4" points="873.01 156.84 839.46 0 851.7 0 873.01 156.84"/>
          <polygon class="cls-4" points="365.99 1080 640.4 833 345.34 1080 365.99 1080"/>
          <polygon class="cls-4" points="632 947 535.87 1080 520.83 1080 632 947"/>
          <polygon class="cls-4" points="657.94 1080 762 908 672.63 1080 657.94 1080"/>
        </g>
      </g>
      <polygon class="cls-1" points="842.9 937.02 887.5 789.2 842.89 937.08 842.9 937.02"/>
      <polygon class="cls-1" points="927.47 521.2 928.73 521.63 927.43 521.33 927.47 521.2"/>
      <polygon class="cls-1" points="973.86 79.23 973.85 79.29 935.41 174 973.86 79.23"/>
    </g>
  </g>
</svg>