<?xml version="1.0" encoding="UTF-8"?>
<svg xmlns="http://www.w3.org/2000/svg" viewBox="0 0 1920 1080">
  <defs>
    <style>
      .cls-1 {
        fill: #fff;
      }

      .cls-2 {
        fill: #eceeee;
      }
    </style>
  </defs>
  <g id="Calque_2" data-name="Calque 2"/>
  <g id="Calque_1" data-name="Calque 1">
    <g>
      <polygon class="cls-1" points="1080.25 235.25 986.92 408.75 1047.32 396.7 939.45 641.76 979 630 861 872.59 923.75 664.6 898.7 669.55 974.25 436.44 908.25 454.24 1006 213.32 1080.25 235.25"/>
      <path class="cls-2" d="M863.25,873.69l-4.64-1.82,61.55-204.01-25.14,4.97,75.44-232.77-66.41,17.91,100.49-247.69,79.37,23.45-92.27,171.54,59.91-11.95-107.63,244.51,39.82-11.84-120.49,247.7Zm64.1-212.35l-54.93,182.07,101.85-209.39-39.28,11.68,108.11-245.6-60.89,12.14,94.38-175.46-69.13-20.42-95.01,234.16,65.59-17.69-75.66,233.44,24.95-4.93Z"/>
    </g>
  </g>
</svg>