<?xml version="1.0" encoding="UTF-8"?>
<svg xmlns="http://www.w3.org/2000/svg" viewBox="0 0 1920 1080">
  <defs>
    <style>
      .cls-1 {
        fill: #0c688c;
      }

      .cls-2 {
        fill: #75332e;
      }

      .cls-3 {
        fill: #ed2424;
      }

      .cls-4 {
        fill: #f0917b;
      }

      .cls-5 {
        fill: #6d2218;
      }

      .cls-6 {
        fill: #861f1d;
      }

      .cls-7 {
        fill: #f2b696;
      }
    </style>
  </defs>
  <g id="Calque_2" data-name="Calque 2"/>
  <g id="Calque_1" data-name="Calque 1">
    <g>
      <g>
        <rect class="cls-1" x="262.06" y="820.82" width="71.8" height="430.79"/>
        <rect class="cls-1" x="385.14" y="820.82" width="71.8" height="430.79"/>
        <path class="cls-1" d="M262.06,820.82v15.39c0,25.49,43.63,46.16,97.44,46.16s97.44-20.66,97.44-46.16v-15.39h-194.88Z"/>
      </g>
      <g>
        <rect class="cls-3" x="246.67" y="625.94" width="225.65" height="194.88"/>
        <path class="cls-3" d="M359.5,564.4c-110.46,0-200.01,89.55-200.01,200.01v179.49h61.54v-179.49c0-76.35,62.12-138.47,138.47-138.47s138.47,62.12,138.47,138.47v179.49h61.54v-179.49c0-110.46-89.55-200.01-200.01-200.01Z"/>
      </g>
      <g>
        <g>
          <rect class="cls-7" x="159.49" y="913.14" width="61.54" height="97.44" rx="30.77" ry="30.77"/>
          <rect class="cls-7" x="211.4" y="927.38" width="20.51" height="51.28" rx="10.26" ry="10.26" transform="translate(-608.97 435.87) rotate(-45)"/>
        </g>
        <g>
          <rect class="cls-7" x="497.97" y="913.14" width="61.54" height="97.44" rx="30.77" ry="30.77"/>
          <rect class="cls-7" x="471.7" y="942.77" width="51.28" height="20.51" rx="10.26" ry="10.26" transform="translate(-528.22 630.81) rotate(-45)"/>
        </g>
      </g>
      <g>
        <rect class="cls-4" x="318.47" y="461.83" width="82.05" height="153.85" rx="41.03" ry="41.03"/>
        <g>
          <rect class="cls-4" x="221.03" y="390.04" width="276.94" height="51.28" rx="25.64" ry="25.64"/>
          <rect class="cls-4" x="221.03" y="390.04" width="276.94" height="51.28" rx="25.64" ry="25.64"/>
          <rect class="cls-7" x="251.8" y="246.44" width="215.39" height="307.71" rx="107.7" ry="107.7"/>
        </g>
        <path class="cls-4" d="M380.01,425.94v-20.51c0-11.28-9.23-20.51-20.51-20.51h0c-11.28,0-20.51,9.23-20.51,20.51v20.51h41.03Z"/>
        <path class="cls-2" d="M482.58,354.14c0,12.67-1.9,24.87-5.49,36.36-1.54-.31-3.13-.46-4.77-.46h-5.13v-2.56c0-59.23-48.46-107.7-107.7-107.7s-107.7,48.46-107.7,107.7v2.56h-5.13c-1.64,0-3.23,.15-4.77,.46-3.59-11.49-5.49-23.69-5.49-36.36,0-67.95,55.13-123.08,123.08-123.08s123.08,55.13,123.08,123.08Z"/>
        <g>
          <path class="cls-5" d="M285.52,382.41c0,11.27,9.14,20.41,20.41,20.41s20.41-9.14,20.41-20.41h-40.82Z"/>
          <path class="cls-5" d="M433.48,382.41c0,11.27-9.14,20.41-20.41,20.41s-20.41-9.14-20.41-20.41h40.82Z"/>
        </g>
        <path class="cls-6" d="M395.23,474.24c-2.53-6.96-7.45-12.76-13.86-16.34-2.51-1.39-5.64-.5-7.03,1.99-1.39,2.49-.5,5.64,1.99,7.03,.79,.44,1.51,.99,2.24,1.53-.12,.15-.29,.23-.39,.39-6.35,9.52-33.63,12.12-49.36,11.53-2.9-.19-5.25,2.11-5.36,4.96-.11,2.85,2.11,5.25,4.96,5.36,.74,.03,2.37,.08,4.65,.08,11.76,0,40.65-1.37,51.97-14.04,.15,.35,.35,.67,.48,1.03,.76,2.1,2.74,3.4,4.85,3.4,.59,0,1.19-.1,1.77-.31,2.68-.97,4.07-3.94,3.09-6.62Z"/>
      </g>
    </g>
  </g>
</svg>