<?xml version="1.0" encoding="UTF-8"?>
<svg xmlns="http://www.w3.org/2000/svg" viewBox="0 0 1920 1080">
  <defs>
    <style>
      .cls-1 {
        fill: #fff;
      }

      .cls-2 {
        fill: #73ddeb;
      }

      .cls-3 {
        fill: #191e3b;
      }

      .cls-4 {
        fill: #06062d;
      }

      .cls-5 {
        fill: #eaeef2;
      }

      .cls-6 {
        fill: #0e1223;
      }

      .cls-7 {
        fill: #05092a;
      }

      .cls-8 {
        fill: #d3dde5;
      }
    </style>
  </defs>
  <g id="Calque_2" data-name="Calque 2"/>
  <g id="Calque_1" data-name="Calque 1">
    <g>
      <g>
        <path class="cls-5" d="M1727.97,571.07c0,4.47-.51,8.98-1.52,13.55l-.36,1.67-15.58,68.51-15.17,66.73c-6.29,27.76-31.01,47.45-59.48,47.45h-150.72c-28.47,0-53.18-19.69-59.48-47.45l-15.17-66.73-15.93-70.18c-8.63-38.16,20.35-74.45,59.53-74.45h212.84c34.51,0,61.1,28.11,61.05,60.9Z"/>
        <path class="cls-8" d="M1710.51,654.8l-15.17,66.73c-6.29,27.76-31.01,47.45-59.48,47.45h-150.72c-28.47,0-53.18-19.69-59.48-47.45l-15.17-66.73h38.37c23.75,0,44.3-13.55,54.35-33.34l2.89-6.8c10.05-19.84,30.6-33.44,54.4-33.44s44.35,13.6,54.4,33.44l2.89,6.8c10.05,19.79,30.6,33.34,54.35,33.34h38.37Z"/>
        <rect class="cls-7" x="1418.41" y="926.3" width="50.75" height="294.34"/>
        <rect class="cls-5" x="1387.96" y="1017.65" width="111.65" height="182.69" rx="55.82" ry="55.82"/>
        <g>
          <circle class="cls-3" cx="1560.5" cy="637.04" r="25.37"/>
          <path class="cls-2" d="M1560.5,667.49c-16.79,0-30.45-13.66-30.45-30.45s13.66-30.45,30.45-30.45,30.45,13.66,30.45,30.45-13.66,30.45-30.45,30.45Zm0-50.75c-11.19,0-20.3,9.11-20.3,20.3s9.11,20.3,20.3,20.3,20.3-9.11,20.3-20.3-9.11-20.3-20.3-20.3Z"/>
        </g>
        <path class="cls-4" d="M1665.94,911.82c-19.26-40.52-60.64-66.71-105.44-66.71s-86.18,26.19-105.44,66.71l-45.84-21.78c27.62-58.13,87-95.68,151.28-95.68s123.66,37.56,151.28,95.68l-45.84,21.78Z"/>
        <path class="cls-5" d="M1532.27,870.48c-12.26,0-22.89-8.33-25.58-20.05l-11.51-50.12c-3.69-16.06,8.78-31.33,25.58-31.33h79.49c16.8,0,29.27,15.27,25.58,31.33l-11.51,50.12c-2.69,11.72-13.32,20.05-25.58,20.05h-56.47Z"/>
        <path class="cls-5" d="M1443.78,997.35h0c30.83,0,55.82-24.99,55.82-55.82v-49.26c0-42.87-34.75-77.61-77.61-77.61h0c-18.79,0-34.03,15.24-34.03,34.03v92.84c0,30.83,24.99,55.82,55.82,55.82Z"/>
        <rect class="cls-7" x="1651.85" y="926.3" width="50.75" height="294.34"/>
        <rect class="cls-5" x="1621.4" y="1017.65" width="111.65" height="182.69" rx="55.82" ry="55.82"/>
        <path class="cls-5" d="M1677.22,997.35h0c-30.83,0-55.82-24.99-55.82-55.82v-49.26c0-42.87,34.75-77.61,77.61-77.61h0c18.79,0,34.03,15.24,34.03,34.03v92.84c0,30.83-24.99,55.82-55.82,55.82Z"/>
        <path class="cls-1" d="M1499.6,1073.47v71.05c0,30.85-24.97,55.82-55.82,55.82v-182.69c30.85,0,55.82,24.97,55.82,55.82Z"/>
        <path class="cls-1" d="M1499.6,900.93v40.6c0,30.85-24.97,55.82-55.82,55.82v-40.6c0-30.85,24.97-55.82,55.82-55.82Z"/>
        <path class="cls-8" d="M1499.6,900.93v40.6c0,30.85-24.97,55.82-55.82,55.82v-40.6c0-30.85,24.97-55.82,55.82-55.82Z"/>
        <path class="cls-8" d="M1499.6,1073.47v71.05c0,30.85-24.97,55.82-55.82,55.82v-182.69c30.85,0,55.82,24.97,55.82,55.82Z"/>
        <path class="cls-8" d="M1621.4,900.93v40.6c0,30.85,24.97,55.82,55.82,55.82v-40.6c0-30.85-24.97-55.82-55.82-55.82Z"/>
        <path class="cls-8" d="M1621.4,1073.47v71.05c0,30.85,24.97,55.82,55.82,55.82v-182.69c-30.85,0-55.82,24.97-55.82,55.82Z"/>
        <g>
          <path class="cls-5" d="M1849.76,520.32c0,14.01-5.68,26.69-14.87,35.88-9.19,9.19-21.87,14.87-35.88,14.87h-81.2c-28.01,0-50.75-22.74-50.75-50.75,0-7.21,1.52-14.11,4.26-20.3,2.54-5.84,6.14-11.11,10.61-15.58,9.19-9.19,21.87-14.87,35.88-14.87h81.2c28.01,0,50.75,22.73,50.75,50.75Z"/>
          <rect class="cls-7" x="1753.34" y="571.07" width="49.88" height="249.4"/>
          <rect class="cls-7" x="1814.24" y="906" width="20.3" height="71.05"/>
          <rect class="cls-7" x="1766.72" y="989.92" width="71.05" height="20.3" transform="translate(-179.29 1567.29) rotate(-45)"/>
          <rect class="cls-7" x="1751.5" y="908.72" width="71.05" height="20.3" transform="translate(-126.33 1532.74) rotate(-45)"/>
          <path class="cls-5" d="M1834.39,936.45h0c-44.76,0-81.05-36.29-81.05-81.05v-121.94c0-28.03,22.72-50.75,50.75-50.75h0c28.03,0,50.75,22.72,50.75,50.75v182.54c0,11.29-9.16,20.45-20.45,20.45Z"/>
          <circle class="cls-5" cx="1824.39" cy="977.05" r="15.22"/>
          <path class="cls-8" d="M1763.49,571.07h-45.67c-28.01,0-50.75-22.74-50.75-50.75,0-.71,0-1.47,.05-2.18v-.51c.05-.81,.1-1.62,.25-2.39h40.29c30.85,0,55.82,24.97,55.82,55.82Z"/>
        </g>
        <g>
          <path class="cls-5" d="M1271.24,520.32c0,14.01,5.68,26.69,14.87,35.88,9.19,9.19,21.87,14.87,35.88,14.87h81.2c28.01,0,50.75-22.74,50.75-50.75,0-7.21-1.52-14.11-4.26-20.3-2.54-5.84-6.14-11.11-10.61-15.58-9.19-9.19-21.87-14.87-35.88-14.87h-81.2c-28.01,0-50.75,22.73-50.75,50.75Z"/>
          <rect class="cls-7" x="1317.78" y="571.07" width="49.88" height="249.4"/>
          <rect class="cls-7" x="1286.46" y="906" width="20.3" height="71.05"/>
          <rect class="cls-7" x="1308.61" y="964.54" width="20.3" height="71.05" transform="translate(-320.9 1225.41) rotate(-45)"/>
          <rect class="cls-7" x="1323.83" y="883.35" width="20.3" height="71.05" transform="translate(-259.03 1212.4) rotate(-45)"/>
          <path class="cls-5" d="M1286.61,936.45h0c44.76,0,81.05-36.29,81.05-81.05v-121.94c0-28.03-22.72-50.75-50.75-50.75h0c-28.03,0-50.75,22.72-50.75,50.75v182.54c0,11.29,9.16,20.45,20.45,20.45Z"/>
          <circle class="cls-5" cx="1296.61" cy="977.05" r="15.22"/>
          <path class="cls-8" d="M1357.51,571.07h45.67c28.01,0,50.75-22.74,50.75-50.75,0-.71,0-1.47-.05-2.18v-.51c-.05-.81-.1-1.62-.25-2.39h-40.29c-30.85,0-55.82,24.97-55.82,55.82Z"/>
        </g>
        <g>
          <path class="cls-5" d="M1428.65,430.25l8.92-150.82c1.61-27.18,23.8-48.38,50.64-48.38h144.58c26.84,0,49.03,21.2,50.64,48.38l8.92,150.82c1.75,29.58-21.43,54.54-50.64,54.54h-162.42c-29.21,0-52.39-24.96-50.64-54.54Z"/>
          <path class="cls-8" d="M1524.98,484.8h-45.67c-29.23,0-52.42-24.97-50.65-54.55l8.93-150.82c1.57-27.15,23.8-48.36,50.65-48.36h45.67c-26.85,0-49.07,21.21-50.65,48.36l-8.93,150.82c-1.78,29.59,21.42,54.55,50.65,54.55Z"/>
          <rect class="cls-7" x="1398.11" y="307.18" width="324.79" height="71.05" rx="35.52" ry="35.52"/>
          <path class="cls-3" d="M1683.42,279.42c-1.6-27.15-23.81-48.36-50.63-48.36h-144.58c-26.82,0-49.03,21.21-50.63,48.36l-7.7,129.71c9.71,13.5,25.91,22.38,44.43,22.38h172.4c18.51,0,34.72-8.88,44.43-22.38l-7.7-129.71Z"/>
          <path class="cls-6" d="M1533.86,231.06c-26.85,0-49.07,21.21-50.65,48.36l-8.93,150.82c0,.41-.05,.86-.05,1.27-18.47,0-34.66-8.88-44.35-22.33l7.66-129.76c1.57-27.15,23.8-48.36,50.6-48.36h45.72Z"/>
        </g>
      </g>
      <g>
        <circle class="cls-2" cx="1521.17" cy="308.45" r="12.69"/>
        <circle class="cls-2" cx="1599.83" cy="308.45" r="12.69"/>
        <path class="cls-2" d="M1535.12,302.11c-.63,0-1.26-.12-1.88-.36l-25.37-10.15c-2.6-1.04-3.87-3.99-2.83-6.6,1.04-2.6,3.98-3.86,6.6-2.83l25.37,10.15c2.6,1.04,3.87,3.99,2.83,6.6-.8,1.98-2.7,3.19-4.72,3.19Z"/>
        <path class="cls-2" d="M1585.88,302.11c-2.01,0-3.92-1.21-4.72-3.19-1.04-2.6,.23-5.56,2.83-6.6l25.37-10.15c2.61-1.04,5.56,.23,6.6,2.83,1.04,2.6-.23,5.56-2.83,6.6l-25.37,10.15c-.62,.25-1.26,.36-1.88,.36Z"/>
        <path class="cls-2" d="M1610.43,380.76h-99.85c-4.21,0-7.61-3.41-7.61-7.61s3.41-7.61,7.61-7.61h99.85c4.21,0,7.61,3.41,7.61,7.61s-3.41,7.61-7.61,7.61Z"/>
      </g>
    </g>
  </g>
</svg>