<?xml version="1.0" encoding="UTF-8"?>
<svg xmlns="http://www.w3.org/2000/svg" viewBox="0 0 512 512">
  <defs>
    <style>
      .cls-1 {
        fill: #ffa86c;
      }

      .cls-2 {
        fill: #fff;
      }

      .cls-3 {
        fill: #f9e79b;
      }

      .cls-4 {
        fill: #f2925a;
      }

      .cls-5 {
        fill: #f38f55;
      }

      .cls-6 {
        fill: #75332e;
      }

      .cls-7 {
        fill: #c05e2e;
      }

      .cls-8 {
        fill: #a4461a;
      }

      .cls-9 {
        fill: #5d1d12;
      }

      .cls-10 {
        fill: #6d2218;
      }

      .cls-11 {
        fill: #f3a63b;
      }

      .cls-12 {
        fill: #861f1d;
      }

      .cls-13 {
        fill: #8a2b15;
      }

      .cls-14 {
        fill: #f2f2f2;
      }
    </style>
  </defs>
  <g id="Calque_2" data-name="Calque 2"/>
  <g id="Calque_1" data-name="Calque 1">
    <path class="cls-3" d="M512,256c0,82.95-39.46,156.69-100.63,203.47-14.77,11.3-30.81,21.03-47.87,28.92-.92,.44-1.85,.86-2.78,1.27-4.24,1.91-8.55,3.71-12.92,5.38-10.72,4.13-21.8,7.55-33.17,10.21-14.44,3.39-29.36,5.55-44.63,6.37-4.63,.25-9.3,.38-14,.38s-9.37-.13-14-.38c-15.27-.82-30.19-2.98-44.63-6.37-11.37-2.66-22.45-6.08-33.17-10.21-4.37-1.67-8.68-3.47-12.92-5.38-.93-.41-1.86-.83-2.78-1.27-17.06-7.89-33.1-17.62-47.87-28.92C39.46,412.69,0,338.95,0,256,0,114.62,114.62,0,256,0s256,114.62,256,256Z"/>
    <g>
      <path class="cls-7" d="M360.72,489.66c-8.42-10.97-18.53-20.59-29.93-28.47-5.14-3.55-10.54-6.74-16.16-9.54-13.68-6.82-28.68-11.32-44.53-13.01h-.02c-4.63-.5-9.32-.75-14.08-.75s-9.45,.25-14.08,.75h-.02c-15.85,1.69-30.85,6.19-44.53,13.01-5.62,2.8-11.02,5.99-16.16,9.54-11.4,7.88-21.51,17.5-29.93,28.47l-2.78-1.27c-17.06-7.89-33.1-17.62-47.87-28.92,19.46-27.35,45.95-49.34,76.85-63.34,7.64-3.45,15.54-6.42,23.68-8.86h.01c5.16-1.55,10.4-2.88,15.74-3.99,12.61-2.64,25.69-4.02,39.09-4.02s26.48,1.38,39.09,4.02c5.34,1.11,10.58,2.44,15.74,3.99h.01c8.14,2.44,16.04,5.41,23.68,8.86,30.9,14,57.39,35.99,76.85,63.34-14.77,11.3-30.81,21.03-47.87,28.92l-2.78,1.27Z"/>
      <path class="cls-14" d="M314.63,402.68v102.57c-14.44,3.39-29.36,5.55-44.63,6.37-4.63,.25-9.3,.38-14,.38s-9.37-.13-14-.38c-15.27-.82-30.19-2.98-44.63-6.37v-102.57c0-.53,.01-1.06,.04-1.58,.02-.53,.06-1.05,.11-1.57,.04-.48,.1-.97,.17-1.44,0-.06,.01-.11,.02-.16,.05-.38,.11-.75,.18-1.12,.03-.16,.06-.32,.09-.48,.07-.38,.15-.76,.24-1.14,.02-.1,.05-.2,.07-.3,.1-.44,.22-.87,.34-1.29,.01-.04,.02-.07,.03-.1,.14-.49,.29-.97,.45-1.45h0c.16-.47,.33-.93,.5-1.39l.06-.15c.17-.42,.34-.84,.53-1.25,.2-.46,.41-.91,.63-1.35,.1-.21,.21-.43,.33-.64,.56-1.08,1.19-2.13,1.88-3.15,.02-.02,.03-.04,.04-.05,.55-.82,1.14-1.61,1.77-2.37,1.24-1.53,2.62-2.94,4.12-4.22,2.38-2.05,5.05-3.76,7.94-5.06,2.92-1.32,6.07-2.23,9.36-2.65,.02-.01,.04-.01,.06-.01,1.39-.18,2.8-.27,4.23-.27h50.88c1.43,0,2.84,.09,4.23,.27,.02,0,.04,0,.06,.01,3.29,.42,6.44,1.33,9.36,2.65,2.89,1.3,5.56,3.01,7.94,5.06,1.5,1.28,2.88,2.69,4.12,4.22,.63,.76,1.22,1.55,1.77,2.37,.01,0,.02,.03,.04,.05,.69,1.02,1.32,2.07,1.88,3.15,.12,.21,.23,.43,.33,.64,.22,.44,.43,.89,.63,1.35,.19,.41,.36,.83,.53,1.25l.06,.15c.17,.46,.34,.92,.5,1.38h0c.16,.49,.31,.97,.45,1.46,0,.03,.02,.06,.03,.1,.12,.42,.24,.85,.34,1.29,.02,.1,.05,.2,.07,.3,.09,.38,.17,.76,.24,1.14,.03,.16,.06,.32,.09,.48,.07,.37,.13,.74,.18,1.12,.01,.05,.02,.1,.02,.16,.07,.47,.13,.96,.17,1.44,.05,.52,.09,1.04,.11,1.57,.03,.52,.04,1.05,.04,1.58Z"/>
      <path class="cls-9" d="M265.77,467.21l4.23,44.41c-4.63,.25-9.3,.38-14,.38s-9.37-.13-14-.38l4.23-44.41-14.66-24.43,10.34-4.14h.01l14.08-5.64,14.08,5.64h.01l10.34,4.14-14.66,24.43Z"/>
      <path class="cls-2" d="M256,433l58.63,23.45v-53.78c0-18.33-14.86-33.2-33.2-33.2h-50.87c-18.33,0-33.2,14.86-33.2,33.2v53.78l58.63-23.45Z"/>
      <g>
        <path class="cls-7" d="M151.28,489.66c4.24,1.91,8.55,3.71,12.92,5.38,10.72,4.13,21.8,7.55,33.17,10.21v-67.36h-48.87v50.5l2.78,1.27Z"/>
        <path class="cls-7" d="M363.5,488.39v-50.5h-48.87v67.36c11.37-2.66,22.45-6.08,33.17-10.21,4.37-1.67,8.68-3.47,12.92-5.38l2.78-1.27Z"/>
      </g>
      <g>
        <path class="cls-8" d="M226.6,369.74c-3.42,.41-6.67,1.33-9.69,2.7-2.89,1.3-5.56,3.01-7.94,5.04-1.49,1.28-2.87,2.7-4.12,4.22-.62,.76-1.21,1.55-1.77,2.37-.01,0-.02,.03-.04,.05-.68,1.01-1.31,2.06-1.87,3.15-.12,.21-.23,.42-.34,.64-.22,.44-.43,.89-.63,1.35-.19,.41-.36,.83-.53,1.25l-.06,.15c-.17,.46-.34,.92-.5,1.38h0c-.16,.49-.31,.97-.45,1.46,0,.03-.02,.06-.03,.1-.12,.42-.24,.85-.34,1.29-.02,.1-.05,.2-.07,.3-.09,.38-.17,.76-.24,1.14-.03,.16-.06,.32-.09,.48-.07,.37-.13,.74-.18,1.12-.01,.05-.02,.1-.02,.16-.07,.47-.13,.96-.17,1.44-.05,.52-.09,1.04-.11,1.57-.03,.52-.04,1.05-.04,1.58v102.57c-11.37-2.66-22.45-6.08-33.17-10.21l-1.04-3.4,19.55-29.32-1.5-1.13-18.05-13.53v-9.77c.03-15.74,5.38-30.22,14.32-41.76,9.66-12.44,23.51-21.47,39.43-24.97,3.05-.67,6.17-1.14,9.36-1.39,.02-.01,.04-.01,.06-.01,.09-.01,.18-.01,.27-.02Z"/>
        <path class="cls-8" d="M348.84,437.89v9.77l-18.05,13.53-1.5,1.13,19.55,29.32-1.04,3.4c-10.72,4.13-21.8,7.55-33.17,10.21v-102.57c0-.53-.01-1.06-.04-1.58-.02-.53-.06-1.05-.11-1.57-.04-.48-.1-.97-.17-1.44,0-.06-.01-.11-.02-.16-.05-.38-.11-.75-.18-1.12-.03-.16-.06-.32-.09-.48-.07-.38-.15-.76-.24-1.14-.02-.1-.05-.2-.07-.3-.1-.44-.22-.87-.34-1.29-.01-.04-.02-.07-.03-.1-.14-.49-.29-.97-.45-1.45h0c-.16-.47-.33-.93-.5-1.39l-.06-.15c-.17-.42-.34-.84-.53-1.25-.2-.46-.41-.91-.63-1.35-.11-.22-.22-.43-.34-.64-.56-1.09-1.19-2.14-1.87-3.15-.02-.02-.03-.04-.04-.05-.56-.82-1.15-1.61-1.77-2.37-1.25-1.52-2.63-2.94-4.12-4.22-2.38-2.03-5.05-3.74-7.94-5.04-3.02-1.37-6.27-2.29-9.69-2.7,.09,.01,.18,.01,.27,.02,.02,0,.04,0,.06,.01,3.19,.25,6.31,.72,9.36,1.39,15.92,3.5,29.77,12.53,39.43,24.97,8.94,11.54,14.29,26.02,14.32,41.76Z"/>
      </g>
      <g>
        <rect class="cls-5" x="216.91" y="281.53" width="78.18" height="146.58" rx="39.09" ry="39.09"/>
        <g>
          <rect class="cls-4" x="124.07" y="213.13" width="263.85" height="48.86" rx="24.43" ry="24.43"/>
          <rect class="cls-4" x="124.07" y="213.13" width="263.85" height="48.86" rx="24.43" ry="24.43"/>
          <rect class="cls-1" x="153.39" y="76.32" width="205.22" height="293.17" rx="102.61" ry="102.61"/>
        </g>
        <g>
          <path class="cls-6" d="M358.61,213.13h4.89c3.48,0,6.78,.75,9.77,2.06v-31.38h-14.66v29.32Z"/>
          <path class="cls-6" d="M148.5,213.13h4.89v-29.32h-14.66v31.38c3-1.31,6.29-2.06,9.77-2.06Z"/>
        </g>
        <path class="cls-12" d="M231.56,302.3c-2.48,0-4.6-1.88-4.86-4.4-.27-2.69,1.69-5.08,4.38-5.35l48.86-4.89c2.72-.22,5.08,1.69,5.35,4.38,.27,2.69-1.69,5.08-4.38,5.35l-48.86,4.89c-.17,.01-.33,.02-.49,.02Z"/>
        <g>
          <path class="cls-10" d="M185.15,200.91c0,10.79,8.75,19.54,19.54,19.54s19.54-8.75,19.54-19.54h-39.09Z"/>
          <path class="cls-10" d="M326.85,200.91c0,10.79-8.75,19.54-19.54,19.54s-19.54-8.75-19.54-19.54h39.09Z"/>
        </g>
        <path class="cls-6" d="M226.66,237.56c-13.48,0-24.4,10.93-24.4,24.4v14.68h107.5v-14.68c0-13.48-10.93-24.4-24.4-24.4h-58.69Z"/>
        <rect class="cls-5" x="236.46" y="198.47" width="39.09" height="58.63" rx="19.54" ry="19.54"/>
        <g>
          <rect class="cls-9" x="119.19" y="164.27" width="273.62" height="19.54" rx="9.77" ry="9.77"/>
          <path class="cls-13" d="M373.27,164.27H138.73c0-4.4,1.03-11.29,3.03-19.54,8.55-35.77,34.4-97.72,67.53-97.72,10.94,0,20.72,5.67,27.36,14.56,4.2,5.62,11.24,9.67,19.15,9.72h.39c7.91-.05,14.95-4.1,19.15-9.72,6.65-8.89,16.42-14.56,27.36-14.56,33.13,0,58.98,61.96,67.53,97.72,2,8.26,3.03,15.15,3.03,19.54Z"/>
          <path class="cls-11" d="M373.27,164.27H138.73c0-4.4,1.03-11.29,3.03-19.54h228.48c2,8.26,3.03,15.15,3.03,19.54Z"/>
        </g>
      </g>
    </g>
  </g>
</svg>