<?xml version="1.0" encoding="UTF-8"?>
<svg xmlns="http://www.w3.org/2000/svg" viewBox="0 0 512 512">
  <defs>
    <style>
      .cls-1 {
        fill: #fff;
      }

      .cls-2 {
        fill: #75332e;
      }

      .cls-3 {
        fill: #ed2424;
      }

      .cls-4 {
        fill: #f0917b;
      }

      .cls-5 {
        fill: #6d2218;
      }

      .cls-6 {
        fill: #b83441;
      }

      .cls-7 {
        fill: #861f1d;
      }

      .cls-8 {
        fill: #c3e1e5;
      }

      .cls-9 {
        fill: #f2b696;
      }
    </style>
  </defs>
  <g id="Calque_2" data-name="Calque 2"/>
  <g id="Calque_1" data-name="Calque 1">
    <path class="cls-8" d="M512,256c0,82.68-39.2,156.2-100.02,203-14.89,11.46-31.08,21.32-48.31,29.31-.77,.37-1.54,.72-2.32,1.07-32.13,14.53-67.8,22.62-105.35,22.62s-73.22-8.09-105.35-22.62l-2.32-1.07c-17.23-7.99-33.42-17.85-48.31-29.31C39.2,412.2,0,338.68,0,256,0,114.62,114.62,0,256,0s256,114.62,256,256Z"/>
    <g>
      <g>
        <path class="cls-3" d="M363.67,436.9v51.41c-.77,.37-1.54,.72-2.32,1.07-32.13,14.53-67.8,22.62-105.35,22.62s-73.22-8.09-105.35-22.62l-2.32-1.07v-51.41h215.34Z"/>
        <path class="cls-3" d="M411.98,459c-14.89,11.46-31.08,21.32-48.31,29.31-.77,.37-1.54,.72-2.32,1.07-24.14-31.86-62.38-52.48-105.35-52.48s-81.21,20.62-105.35,52.48l-2.32-1.07c-17.23-7.99-33.42-17.85-48.31-29.31,27.36-38.72,68.78-66.8,116.83-76.81,12.64-2.63,25.73-4.02,39.15-4.02s26.51,1.39,39.15,4.02c48.05,10.01,89.47,38.09,116.83,76.81Z"/>
      </g>
      <g>
        <rect class="cls-4" x="216.85" y="280.29" width="78.31" height="146.83" rx="39.15" ry="39.15"/>
        <g>
          <rect class="cls-4" x="123.86" y="211.77" width="264.29" height="48.94" rx="24.47" ry="24.47"/>
          <rect class="cls-4" x="123.86" y="211.77" width="264.29" height="48.94" rx="24.47" ry="24.47"/>
          <rect class="cls-9" x="153.22" y="74.73" width="205.56" height="293.66" rx="102.78" ry="102.78"/>
        </g>
        <path class="cls-4" d="M275.58,246.03v-19.58c0-10.77-8.81-19.58-19.58-19.58h0c-10.77,0-19.58,8.81-19.58,19.58v19.58h39.15Z"/>
        <path class="cls-2" d="M373.46,177.51c0,12.09-1.81,23.74-5.24,34.7-1.47-.29-2.99-.44-4.55-.44h-4.89v-2.45c0-56.53-46.25-102.78-102.78-102.78s-102.78,46.25-102.78,102.78v2.45h-4.89c-1.57,0-3.08,.15-4.55,.44-3.43-10.96-5.24-22.61-5.24-34.7,0-64.85,52.61-117.46,117.46-117.46s117.46,52.61,117.46,117.46Z"/>
        <g>
          <circle class="cls-5" cx="204.61" cy="209.32" r="14.68"/>
          <circle class="cls-5" cx="307.39" cy="209.32" r="14.68"/>
        </g>
        <g>
          <path class="cls-7" d="M300.05,274.78c0,3.43-.64,6.71-1.86,9.79-3.08,8.22-10.08,15.12-19.23,19.43-6.71,3.23-14.58,5.04-22.95,5.04s-16.25-1.81-22.95-5.04c-9.15-4.31-16.15-11.21-19.23-19.43-1.22-3.08-1.86-6.36-1.86-9.79h88.1Z"/>
          <path class="cls-6" d="M278.95,304c-6.71,3.23-14.58,5.04-22.95,5.04s-16.25-1.81-22.95-5.04c3.38-5.63,12.38-9.64,22.95-9.64s19.58,4.01,22.95,9.64Z"/>
          <path class="cls-1" d="M300.05,274.78c0,3.43-.64,6.71-1.86,9.79h-84.38c-1.22-3.08-1.86-6.36-1.86-9.79h88.1Z"/>
        </g>
      </g>
    </g>
  </g>
</svg>