<?xml version="1.0" encoding="UTF-8"?>
<svg xmlns="http://www.w3.org/2000/svg" viewBox="0 0 512 512">
  <defs>
    <style>
      .cls-1 {
        fill: #f99;
      }

      .cls-2 {
        fill: #73ddeb;
      }

      .cls-3 {
        fill: #191e3b;
      }

      .cls-4 {
        fill: #eaeef2;
      }

      .cls-5 {
        fill: #0e1223;
      }

      .cls-6 {
        fill: #05092a;
      }

      .cls-7 {
        fill: #d3dde5;
      }
    </style>
  </defs>
  <g id="Calque_2" data-name="Calque 2"/>
  <g id="Calque_1" data-name="Calque 1">
    <path class="cls-1" d="M512,256c0,13.38-1.03,26.51-3.01,39.34-4.97,32.28-15.99,62.57-31.85,89.69-10.39,17.78-22.87,34.2-37.1,48.92-12.63,13.05-26.63,24.76-41.77,34.9-40.69,27.25-89.62,43.15-142.27,43.15s-101.58-15.9-142.27-43.15c-15.14-10.14-29.14-21.85-41.77-34.9-14.23-14.72-26.71-31.14-37.1-48.92-15.86-27.12-26.88-57.41-31.85-89.69-1.98-12.83-3.01-25.96-3.01-39.34C0,114.62,114.62,0,256,0s256,114.62,256,256Z"/>
    <g>
      <g>
        <path class="cls-4" d="M415.82,385.03c0,4.26-.48,8.57-1.45,12.93l-.34,1.6-14.87,65.38-.89,3.91c-40.69,27.25-89.62,43.15-142.27,43.15s-101.58-15.9-142.27-43.15l-.89-3.91-15.21-66.98c-.99-4.36-1.46-8.68-1.46-12.93-.01-23.32,14.08-44.17,34.9-53.27,6.79-2.97,14.29-4.69,22.25-4.84,.37-.01,.75-.01,1.12-.01h203.12c.37,0,.75,0,1.12,.01,7.97,.15,15.48,1.87,22.27,4.84,20.82,9.1,34.91,29.95,34.87,53.27Z"/>
        <path class="cls-7" d="M399.16,464.94l-.89,3.91c-40.69,27.25-89.62,43.15-142.27,43.15s-101.58-15.9-142.27-43.15l-.89-3.91h36.61c22.67,0,42.28-12.93,51.87-31.82l2.76-6.49c9.59-18.94,29.21-31.91,51.92-31.91s42.33,12.97,51.92,31.91l2.76,6.49c9.59,18.89,29.2,31.82,51.87,31.82h36.61Z"/>
        <g>
          <circle class="cls-3" cx="256" cy="447.99" r="24.22"/>
          <path class="cls-2" d="M256,418.93c-16.02,0-29.06,13.04-29.06,29.06s13.04,29.06,29.06,29.06,29.06-13.04,29.06-29.06-13.04-29.06-29.06-29.06Zm0,48.43c-10.68,0-19.37-8.69-19.37-19.37s8.69-19.37,19.37-19.37,19.37,8.69,19.37,19.37-8.69,19.37-19.37,19.37Z"/>
        </g>
        <g>
          <path class="cls-4" d="M508.99,295.34c-4.97,32.28-15.99,62.57-31.85,89.69h-71c-26.74,0-48.44-21.7-48.44-48.43,0-.34,0-.69,.01-1.04,.01-.35,.02-.7,.04-1.04,.02-.55,.05-1.09,.09-1.64,0-.04,0-.08,0-.12,.16-1.98,.44-3.93,.83-5.84,.69-3.38,1.74-6.63,3.09-9.69,2.42-5.57,5.86-10.61,10.12-14.87,8.77-8.77,20.88-14.19,34.25-14.19h77.48c9.3,0,17.99,2.62,25.37,7.17Z"/>
          <path class="cls-6" d="M477.14,385.03c-10.39,17.78-22.87,34.2-37.1,48.92v-48.92h37.1Z"/>
          <path class="cls-7" d="M449.72,385.03h-43.59c-26.73,0-48.43-21.7-48.43-48.43,0-.68,0-1.4,.05-2.08v-.48c.05-.77,.1-1.55,.24-2.28h38.45c29.45,0,53.27,23.83,53.27,53.27Z"/>
        </g>
        <g>
          <path class="cls-4" d="M154.3,336.6c0,26.73-21.7,48.43-48.44,48.43H34.86c-15.86-27.12-26.88-57.41-31.85-89.69,7.38-4.55,16.07-7.17,25.37-7.17H105.86c13.37,0,25.48,5.42,34.25,14.19,4.26,4.26,7.7,9.3,10.12,14.87,1.35,3.06,2.4,6.31,3.09,9.69,.39,1.91,.67,3.86,.83,5.84,0,.04,0,.08,0,.12,.04,.55,.07,1.09,.09,1.64,.02,.34,.03,.69,.04,1.04,.01,.35,.01,.7,.01,1.04Z"/>
          <path class="cls-6" d="M71.96,385.03v48.92c-14.23-14.72-26.71-31.14-37.1-48.92h37.1Z"/>
          <path class="cls-7" d="M62.28,385.03h43.59c26.73,0,48.43-21.7,48.43-48.43,0-.68,0-1.4-.05-2.08v-.48c-.05-.77-.1-1.55-.24-2.28h-38.45c-29.45,0-53.27,23.83-53.27,53.27Z"/>
        </g>
        <g>
          <path class="cls-4" d="M130.17,250.64l8.51-143.93c1.53-25.93,22.72-46.17,48.33-46.17h137.98c25.61,0,46.8,20.24,48.33,46.17l8.51,143.93c1.67,28.23-20.45,52.05-48.33,52.05H178.5c-27.88,0-50-23.82-48.33-52.05Z"/>
          <path class="cls-7" d="M222.1,302.7h-43.59c-27.9,0-50.03-23.83-48.33-52.06l8.52-143.94c1.5-25.91,22.71-46.15,48.33-46.15h43.59c-25.62,0-46.83,20.24-48.33,46.15l-8.52,143.94c-1.7,28.23,20.44,52.06,48.33,52.06Z"/>
          <rect class="cls-6" x="101.02" y="133.19" width="309.96" height="67.8" rx="33.9" ry="33.9"/>
          <path class="cls-3" d="M373.31,106.7c-1.53-25.91-22.73-46.15-48.32-46.15H187.01c-25.59,0-46.79,20.24-48.32,46.15l-7.35,123.79c9.26,12.88,24.73,21.36,42.4,21.36h164.53c17.67,0,33.13-8.48,42.4-21.36l-7.35-123.79Z"/>
          <path class="cls-5" d="M230.57,60.54c-25.62,0-46.83,20.24-48.33,46.15l-8.52,143.94c0,.39-.05,.82-.05,1.21-17.63,0-33.08-8.48-42.33-21.31l7.31-123.84c1.5-25.91,22.71-46.15,48.29-46.15h43.64Z"/>
        </g>
      </g>
      <g>
        <circle class="cls-2" cx="223.31" cy="124.71" r="12.11"/>
        <circle class="cls-2" cx="298.38" cy="124.71" r="12.11"/>
        <path class="cls-2" d="M269.02,208.1c-53,0-71.73-18.01-72.64-18.93-2.84-2.84-2.84-7.44,0-10.27,2.82-2.82,7.36-2.84,10.2-.07,.56,.51,24.28,21.46,95.74,12.53,3.95-.49,7.61,2.32,8.11,6.31,.5,3.98-2.32,7.61-6.31,8.11-13.09,1.64-24.75,2.32-35.1,2.32Z"/>
      </g>
    </g>
  </g>
</svg>