<?xml version="1.0" encoding="UTF-8"?>
<svg xmlns="http://www.w3.org/2000/svg" xmlns:xlink="http://www.w3.org/1999/xlink" viewBox="0 0 1920 1080">
  <defs>
    <style>
      .cls-1 {
        fill: #ddd;
      }

      .cls-2 {
        fill: url(#Nouveau_motif);
      }

      .cls-3 {
        fill: #347a37;
      }

      .cls-4 {
        opacity: .7;
      }

      .cls-5 {
        fill: #50a0d1;
      }

      .cls-6 {
        fill: #fff;
      }

      .cls-7 {
        fill: #6a8229;
      }

      .cls-8 {
        fill: #693d77;
      }

      .cls-9 {
        fill: #bfbfbf;
      }

      .cls-10 {
        opacity: .5;
      }

      .cls-11 {
        fill: #895b3d;
      }

      .cls-12 {
        fill: #565656;
      }

      .cls-13 {
        fill: #894615;
      }

      .cls-14 {
        fill: #60592b;
      }

      .cls-15 {
        opacity: .6;
      }

      .cls-16 {
        fill: #d4a696;
      }

      .cls-17 {
        fill: #3aa439;
      }

      .cls-18 {
        fill: #a36032;
      }

      .cls-19 {
        fill: #482310;
      }

      .cls-20 {
        fill: #f9c43a;
      }

      .cls-21 {
        opacity: .2;
      }

      .cls-22 {
        fill: #4f5052;
      }

      .cls-23 {
        fill: #554136;
      }

      .cls-24 {
        fill: #bdbcb8;
      }

      .cls-25 {
        fill: #f3f4f4;
      }

      .cls-26 {
        opacity: .05;
      }

      .cls-27 {
        fill: #e5b189;
      }

      .cls-28 {
        fill: #f4f4ed;
      }

      .cls-29 {
        fill: #99704f;
      }

      .cls-30 {
        fill: #a8784a;
      }

      .cls-31 {
        opacity: .8;
      }

      .cls-32 {
        fill: #7295aa;
      }

      .cls-33 {
        fill: #be8657;
      }

      .cls-34 {
        fill: #e7e7e7;
      }

      .cls-35 {
        fill: #bff7f7;
      }

      .cls-36 {
        fill: #a17858;
      }

      .cls-37 {
        fill: #74562d;
      }

      .cls-38 {
        fill: #cf9361;
      }

      .cls-39 {
        opacity: .4;
      }

      .cls-40 {
        opacity: .3;
      }

      .cls-41 {
        fill: #e8e9ea;
      }

      .cls-42 {
        fill: #c99728;
      }

      .cls-43 {
        fill: #424242;
      }

      .cls-44 {
        fill: #251f1f;
      }

      .cls-45 {
        fill: #f5991b;
      }

      .cls-46 {
        fill: #7f9936;
      }

      .cls-47 {
        fill: #c56d24;
      }

      .cls-48 {
        fill: #d1a684;
      }

      .cls-49 {
        fill: #617226;
      }

      .cls-50 {
        fill: #ecf0f3;
      }

      .cls-51 {
        fill: #d9bb97;
      }

      .cls-52 {
        fill: #aaa;
      }

      .cls-53 {
        opacity: .1;
      }

      .cls-54 {
        fill: #d3d3d3;
      }

      .cls-55 {
        fill: #5ec6ed;
      }

      .cls-56 {
        fill: none;
      }

      .cls-57 {
        fill: #d08234;
      }

      .cls-58 {
        fill: #999;
      }

      .cls-59 {
        fill: #bc957a;
      }

      .cls-60 {
        fill: #ad5226;
      }

      .cls-61 {
        fill: #91532a;
      }

      .cls-62 {
        fill: #aa764f;
      }

      .cls-63 {
        fill: #7f9338;
      }

      .cls-64 {
        fill: #b37056;
      }

      .cls-65 {
        fill: #cad1cd;
      }

      .cls-66 {
        fill: #dfae86;
      }

      .cls-67 {
        fill: #7a4925;
      }

      .cls-68 {
        fill: #2c2a2b;
      }

      .cls-69 {
        fill: #45660c;
      }

      .cls-70 {
        fill: #cecece;
      }

      .cls-71 {
        fill: #746637;
      }

      .cls-72 {
        fill: #9d5ead;
      }

      .cls-73 {
        fill: #99aa4f;
      }

      .cls-74 {
        fill: #94130b;
      }

      .cls-75 {
        fill: #c26e4a;
      }

      .cls-76 {
        fill: #92a54a;
      }

      .cls-77 {
        fill: #000500;
      }

      .cls-78 {
        fill: #d49e70;
      }

      .cls-79 {
        fill: #c4c4c4;
      }

      .cls-80 {
        fill: #3c3c3c;
      }

      .cls-81 {
        fill: #888;
      }

      .cls-82 {
        fill: #306030;
      }

      .cls-83 {
        fill: #58595b;
      }
    </style>
    <pattern id="Nouveau_motif" data-name="Nouveau motif" x="0" y="0" width="160" height="160" patternTransform="translate(-328 1760)" patternUnits="userSpaceOnUse" viewBox="0 0 160 160">
      <g>
        <rect class="cls-56" width="160" height="160"/>
        <rect class="cls-78" y="0" width="160" height="160"/>
        <rect class="cls-66" x="33" y="0" width="2" height="160"/>
        <rect class="cls-33" x="38" y="0" width="2" height="160"/>
        <rect class="cls-66" x="73" y="0" width="2" height="160"/>
        <rect class="cls-33" x="78" y="0" width="2" height="160"/>
        <rect class="cls-66" x="113" y="0" width="2" height="160"/>
        <rect class="cls-33" x="118" y="0" width="2" height="160"/>
        <rect class="cls-66" x="153" y="0" width="2" height="160"/>
        <rect class="cls-33" x="158" y="0" width="2" height="160"/>
        <rect class="cls-66" x="0" y="92" width="35" height="2"/>
        <rect class="cls-33" x="0" y="97" width="35" height="2"/>
        <rect class="cls-66" x="158" y="92" width="2" height="2"/>
        <rect class="cls-33" x="158" y="97" width="2" height="2"/>
        <rect class="cls-66" x="78" y="128" width="37" height="2"/>
        <rect class="cls-33" x="78" y="133" width="37" height="2"/>
        <rect class="cls-66" x="118" y="60" width="37" height="2"/>
        <rect class="cls-33" x="118" y="65" width="37" height="2"/>
        <rect class="cls-66" x="38" y="35" width="37" height="2"/>
        <rect class="cls-33" x="38" y="40" width="37" height="2"/>
        <polygon class="cls-29" points="158 94 158 0 155 0 155 62 118 62 118 0 115 0 115 130 78 130 78 0 75 0 75 37 38 37 38 0 35 0 35 94 0 94 0 97 35 97 35 160 38 160 38 40 75 40 75 160 78 160 78 133 115 133 115 160 118 160 118 65 155 65 155 160 158 160 158 97 160 97 160 94 158 94"/>
      </g>
    </pattern>
  </defs>
  <g id="Calque_2" data-name="Calque 2"/>
  <g id="Calque_1" data-name="Calque 1">
    <g>
      <g>
        <g>
          <rect class="cls-16" width="1920" height="552"/>
          <rect class="cls-64" y="532" width="1920" height="20"/>
        </g>
        <rect class="cls-2" y="552" width="1920" height="528"/>
        <g>
          <rect class="cls-32" x="474" y="237" width="150" height="315"/>
          <polygon class="cls-79" points="474 237 624 237 624 552 639 552 639 237 639 222 624 222 474 222 459 222 459 237 459 552 474 552 474 237"/>
          <g>
            <polygon class="cls-1" points="571.5 217.5 474 237 474 552 571.5 586.5 571.5 217.5"/>
            <polygon class="cls-70" points="571.5 217.5 577.5 219 577.5 585 571.5 586.5 571.5 217.5"/>
          </g>
          <rect class="cls-52" x="471" y="267" width="6" height="30" rx="3" ry="3"/>
          <rect class="cls-52" x="471" y="492" width="6" height="30" rx="3" ry="3"/>
          <g>
            <polygon class="cls-58" points="562.5 438 553.5 436.5 553.5 393 562.5 393 562.5 438"/>
            <rect class="cls-52" x="532.5" y="403.5" width="27" height="6" rx="3" ry="3"/>
          </g>
        </g>
        <g>
          <g>
            <rect class="cls-61" x="1288" y="462" width="255" height="152"/>
            <rect class="cls-38" x="1283" y="398" width="265" height="50"/>
            <g>
              <rect class="cls-18" x="1293" y="467" width="120" height="44"/>
              <circle class="cls-27" cx="1353" cy="482" r="5"/>
            </g>
            <g>
              <rect class="cls-18" x="1293" y="516" width="245" height="44"/>
              <circle class="cls-27" cx="1353" cy="531" r="5"/>
              <circle class="cls-27" cx="1473" cy="531" r="5"/>
            </g>
            <g>
              <rect class="cls-18" x="1293" y="565" width="245" height="44"/>
              <circle class="cls-27" cx="1353" cy="580" r="5"/>
              <circle class="cls-27" cx="1473" cy="580" r="5"/>
            </g>
            <rect class="cls-18" x="1283" y="448" width="265" height="14"/>
            <g>
              <rect class="cls-18" x="1418" y="467" width="120" height="44"/>
              <circle class="cls-27" cx="1478" cy="482" r="5"/>
            </g>
            <polygon class="cls-67" points="1305 634 1293 634 1293 614 1311 614 1305 634"/>
            <polygon class="cls-67" points="1526 634 1538 634 1538 614 1520 614 1526 634"/>
          </g>
          <g>
            <rect class="cls-72" x="1301" y="403" width="54" height="40" rx="1.23" ry="1.23"/>
            <rect class="cls-25" x="1303" y="433" width="51" height="8"/>
            <rect class="cls-8" x="1354" y="433" width="1" height="8" transform="translate(2709 874) rotate(180)"/>
          </g>
        </g>
        <g>
          <ellipse class="cls-81" cx="1814.32" cy="587.52" rx="30" ry="13" transform="translate(200.32 1603.37) rotate(-50.13)"/>
          <path class="cls-65" d="M1612.21,423.91l193.91,167.18c1.7,1.42,5.37-.18,8.2-3.58,2.83-3.39,3.75-7.29,2.06-8.7l-199.04-161.04-5.13,6.14Z"/>
          <path class="cls-28" d="M1645.71,379.23l-73.35-35.51c-5.97-4.98-24.55,16.92-26.65,19.43-2.1,2.51-20.34,24.7-14.37,29.69l48.01,65.86c.14,.31,.33,.58,.57,.78,4.24,3.54,22.6-11.46,41.01-33.5,18.41-22.04,29.9-42.78,25.66-46.32-.24-.2-.54-.34-.87-.42Z"/>
          <ellipse class="cls-65" cx="1551.84" cy="368.28" rx="30" ry="6" transform="translate(274.37 1323.22) rotate(-50.13)"/>
        </g>
        <g>
          <g>
            <rect class="cls-61" x="811" y="535" width="315" height="54"/>
            <rect class="cls-38" x="806" y="471" width="325" height="50"/>
            <g>
              <rect class="cls-18" x="816" y="540" width="150" height="44"/>
              <circle class="cls-27" cx="891" cy="555" r="5"/>
            </g>
            <g>
              <rect class="cls-18" x="971" y="540" width="150" height="44"/>
              <circle class="cls-27" cx="1046" cy="555" r="5"/>
            </g>
            <rect class="cls-18" x="806" y="521" width="325" height="14"/>
            <polygon class="cls-67" points="828 609 816 609 816 589 834 589 828 609"/>
            <polygon class="cls-67" points="1109 609 1121 609 1121 589 1103 589 1109 609"/>
          </g>
          <g>
            <rect class="cls-80" x="809.11" y="273.17" width="318.78" height="188"/>
            <rect class="cls-80" x="886.76" y="475.48" width="163.48" height="16.35"/>
            <polygon class="cls-80" points="938.87 475.48 942.96 461.17 994.04 461.17 998.13 475.48 938.87 475.48"/>
            <rect class="cls-12" x="886.76" y="491.83" width="163.48" height="8.17"/>
            <rect x="821.37" y="285.43" width="294.26" height="163.48"/>
            <rect class="cls-12" x="809.11" y="265" width="318.78" height="8.17"/>
          </g>
        </g>
        <g>
          <rect class="cls-68" x="1282.5" y="164" width="266" height="188"/>
          <polygon class="cls-43" points="1282.5 352 1548.5 352 1548.5 164 1537.3 175.21 1293.7 340.79 1282.5 352"/>
          <rect class="cls-34" x="1293.7" y="175.21" width="243.59" height="165.59"/>
          <g id="an">
            <rect class="cls-35" x="1312.5" y="194" width="206" height="128"/>
            <g id="ao">
              <path class="cls-63" d="M1518.5,239.75v25.63h-94.64v-16.81c2.66-1.06,5.61-2,8.77-2.84,4.92-1.3,10.36-2.35,16.1-3.18,1.04-.16,2.09-.31,3.16-.44,3.83-.51,7.77-.92,11.75-1.26,6.19-.52,12.48-.87,18.63-1.09h.01c3.24-.11,6.45-.19,9.58-.23,7.6-.12,14.78-.06,21.03,.08,1.97,.04,3.85,.09,5.61,.14Z"/>
              <path class="cls-73" d="M1512.89,239.61c-8.06,1.92-25.62,6.67-33.27,13.06h-5.93s2.67-6.66,18.17-13.14c7.61-.11,14.79-.05,21.03,.08h0Z"/>
              <path class="cls-73" d="M1482.28,239.76h0c-8,1.78-20.28,5.01-26.23,9.18h-.17l-5.32-1.15s2.72-4.02,13.08-6.94h0l18.63-1.09h0Z"/>
            </g>
            <g id="ap">
              <path class="cls-7" d="M1518.5,253.19v68.81h-206v-91.3c9.32,1.56,21.07,3.39,35.21,5.33,6.01,.83,12.46,1.68,19.34,2.53,5.56,.69,11.39,1.39,17.5,2.09,4.31,.49,8.76,.98,13.35,1.47,4.04,.43,8.17,.85,12.42,1.27,1.49,.15,3,.3,4.52,.45,6.6,.64,12.42,1.27,17.79,1.89,4.15,.48,8.03,.95,11.78,1.41,.88,.1,1.74,.21,2.61,.32h.01c1.29,.15,2.56,.31,3.83,.46,.23,.03,.47,.06,.7,.09h.03c1.11,.14,2.22,.27,3.32,.4,.55,.07,1.08,.13,1.63,.2h0c.55,.06,1.09,.12,1.64,.19,5.35,.62,10.83,1.2,16.88,1.75,.89,.09,1.79,.17,2.71,.24,1.27,.12,2.58,.22,3.92,.33,.92,.07,1.87,.15,2.83,.22,.31,.02,.62,.05,.94,.07h.01c1,.07,2.01,.15,3.05,.22,8.45,.59,18.18,1.11,29.97,1.56Z"/>
              <path class="cls-49" d="M1456.63,278.03h-18.49c-7.89-8.79-31.78-29.43-40.23-35.91,5.45,.58,11.1,1.16,16.93,1.72,18.58,10.11,41.79,34.19,41.79,34.19Z"/>
              <path class="cls-49" d="M1390.37,278.03h-18.49s-6.46-21.99-24.18-42c6.02,.83,12.47,1.67,19.34,2.53h0c7.62,8.66,19.3,21.92,23.33,39.47Z"/>
              <path class="cls-49" d="M1326.61,278.03h-14.11v-40.08c2.9,8.57,7.57,21.84,11.56,32.99,.69,1.93,1.36,3.79,2,5.55,.12,.35,.25,.7,.37,1.04,.06,.17,.12,.33,.18,.5Z"/>
            </g>
            <path id="aq" class="cls-6" d="M1380.35,208.15c.2-.27,.3-.57,.3-.88,0-1.31-1.91-2.38-4.33-2.48,.49-.5,.77-1.09,.77-1.73,0-1.74-2.1-3.14-4.68-3.14-2.39,0-4.37,1.21-4.65,2.76-.26-.02-.53-.03-.81-.03-2.38,0-4.35,.88-4.64,2.02-.44-.08-.91-.12-1.4-.12-2.59,0-4.68,1.17-4.68,2.61,0,.03,0,.05,0,.08-2.04,.28-3.56,1.31-3.56,2.53h30.34c0-.71-1.09-1.32-2.67-1.61Z"/>
            <path id="ar" class="cls-6" d="M1429.13,228.19c.75-.31,1.19-.7,1.19-1.12,0-.86-1.86-1.59-4.4-1.82,.24-.17,.37-.35,.37-.55,0-.72-1.78-1.3-3.97-1.3-.42,0-.82,.02-1.2,.06-.36-1.66-1.97-2.91-3.89-2.91-2.19,0-3.97,1.62-3.97,3.61,0,.63,.17,1.21,.48,1.73-2.39,.09-4.27,.98-4.27,2.07,0,.24,.09,.47,.26,.68-2.17,.15-3.82,.88-3.82,1.75h27.85c0-1.07-1.98-1.97-4.62-2.19Z"/>
            <path class="cls-6" d="M1518.5,222.33v1.12h-47.77c0-1.47,2.28-2.67,5.1-2.67,.41,0,.81,.03,1.19,.08-.76-.75-1.19-1.63-1.19-2.57,0-2.75,3.74-4.97,8.35-4.97,3.27,0,6.09,1.11,7.47,2.74-.04-.28-.06-.56-.06-.85,0-2.75,1.78-4.98,3.97-4.98,1.18,0,2.25,.65,2.97,1.68,.97-2.45,3.15-4.16,5.68-4.16,3.44,0,6.22,3.15,6.22,7.05,0,1.19-.26,2.31-.72,3.3,3.13,.33,5.35,1.14,5.35,2.09,0,.31-.24,.61-.67,.88,1.8,.27,3.26,.71,4.11,1.26Z"/>
            <rect class="cls-46" x="1312.5" y="278.03" width="206" height="43.97"/>
            <g id="au">
              <rect class="cls-36" x="1312.5" y="280.16" width="206" height="1.66"/>
              <rect class="cls-23" x="1312.5" y="281.82" width="206" height=".47"/>
              <rect class="cls-76" x="1312.5" y="279.69" width="206" height=".47"/>
            </g>
            <g id="av">
              <g id="aw">
                <rect class="cls-83" x="1312.5" y="282.29" width="206" height="20.03"/>
              </g>
              <g>
                <ellipse class="cls-22" cx="1399.38" cy="299" rx="17.07" ry=".71"/>
                <ellipse class="cls-22" cx="1382.31" cy="290.95" rx="11.97" ry=".59"/>
                <ellipse class="cls-22" cx="1440.27" cy="294.68" rx="12.68" ry=".41"/>
                <ellipse class="cls-22" cx="1450.58" cy="289.58" rx="7.23" ry=".41"/>
                <ellipse class="cls-22" cx="1469.6" cy="285.14" rx="4.8" ry=".24"/>
                <ellipse class="cls-22" cx="1480.03" cy="299.42" rx="7.05" ry=".41"/>
                <ellipse class="cls-22" cx="1492" cy="290.89" rx="6.22" ry=".41"/>
                <ellipse class="cls-22" cx="1336.45" cy="295.69" rx="15.76" ry=".71"/>
                <path class="cls-22" d="M1518.5,295.7v1.28c-.84,.01-1.69,.01-2.56,.01-9.85,0-17.83-.29-17.83-.65s7.98-.65,17.83-.65c.87,0,1.72,0,2.56,.01Z"/>
                <ellipse class="cls-22" cx="1354.4" cy="285.85" rx="6.93" ry=".36"/>
                <path class="cls-22" d="M1518.5,286.21v.7c-3.47-.01-6.17-.16-6.17-.35s2.7-.34,6.17-.35Z"/>
                <path class="cls-22" d="M1323.53,289.05c0,.25-4.9,.46-11.03,.47v-.95c6.13,.01,11.03,.23,11.03,.48Z"/>
                <ellipse class="cls-22" cx="1328.98" cy="283.6" rx="6.04" ry=".24"/>
                <ellipse class="cls-22" cx="1411.53" cy="284.9" rx="5.63" ry=".36"/>
              </g>
            </g>
            <g>
              <rect class="cls-50" x="1392.45" y="256.5" width="24.06" height="21.53"/>
              <rect class="cls-54" x="1416.51" y="256.5" width="22.04" height="21.53"/>
              <polygon class="cls-54" points="1380.48 243.73 1369.81 255.11 1369.81 278.03 1392.45 278.03 1392.45 256.5 1380.48 243.73"/>
              <polygon class="cls-50" points="1461.19 255.11 1450.52 243.73 1438.55 256.5 1438.55 278.03 1461.19 278.03 1461.19 255.11"/>
              <g id="ax">
                <polygon class="cls-75" points="1395.65 256.77 1380.48 240.65 1407.74 240.65 1422.91 256.77 1395.65 256.77"/>
                <polygon class="cls-60" points="1407.74 240.65 1450.52 240.65 1435.35 256.77 1422.91 256.77 1407.74 240.65"/>
                <polygon class="cls-59" points="1448.72 245.65 1461.19 258.9 1464.74 258.9 1450.52 243.73 1448.72 245.65"/>
                <polygon class="cls-59" points="1382.28 245.65 1369.81 258.9 1366.26 258.9 1380.48 243.73 1382.28 245.65"/>
                <polygon class="cls-48" points="1380.48 240.65 1365.31 256.77 1366.26 258.9 1380.48 243.73 1394.7 258.9 1395.65 256.77 1380.48 240.65"/>
                <polygon class="cls-48" points="1450.52 240.65 1435.35 256.77 1436.3 258.9 1450.52 243.73 1464.74 258.9 1465.69 256.77 1450.52 240.65"/>
                <polygon class="cls-51" points="1395.65 256.77 1394.7 258.9 1395.65 258.9 1422.91 258.9 1422.91 256.77 1395.65 256.77"/>
                <polygon class="cls-59" points="1435.35 256.77 1425.63 256.77 1422.91 256.77 1422.91 258.9 1425.63 258.9 1436.3 258.9 1435.35 256.77"/>
              </g>
              <g>
                <g>
                  <rect class="cls-50" x="1374.79" y="262.62" width="2.25" height="15.41"/>
                  <rect class="cls-5" x="1377.04" y="262.62" width="8.65" height="15.41"/>
                  <rect class="cls-50" x="1384.51" y="260.72" width="4.03" height="1.9"/>
                  <rect class="cls-24" x="1372.18" y="260.72" width="12.33" height="1.9"/>
                  <rect class="cls-30" x="1378.82" y="262.62" width=".95" height="15.41"/>
                </g>
                <g>
                  <rect class="cls-55" x="1398.61" y="263.69" width="3.56" height="6.4"/>
                  <rect class="cls-54" x="1402.17" y="263.69" width="1.19" height="6.4"/>
                </g>
                <g>
                  <rect class="cls-55" x="1409.04" y="263.69" width="3.56" height="6.4"/>
                  <rect class="cls-54" x="1412.6" y="263.69" width="1.19" height="6.4"/>
                </g>
                <g>
                  <rect class="cls-55" x="1453.25" y="263.69" width="3.56" height="6.4"/>
                  <rect class="cls-54" x="1456.8" y="263.69" width="1.19" height="6.4"/>
                </g>
                <g>
                  <rect class="cls-55" x="1442.58" y="263.69" width="3.56" height="6.4"/>
                  <rect class="cls-54" x="1446.14" y="263.69" width="1.19" height="6.4"/>
                </g>
                <g>
                  <rect class="cls-5" x="1424.57" y="263.69" width="3.56" height="6.4"/>
                  <rect class="cls-24" x="1423.38" y="263.69" width="1.19" height="6.4"/>
                </g>
              </g>
              <g id="ay">
                <rect class="cls-54" x="1434.23" y="239.51" width="4.03" height="4.02"/>
                <rect class="cls-9" x="1434.94" y="234.06" width="3.32" height="5.45"/>
                <rect class="cls-41" x="1438.26" y="234.06" width="3.32" height="5.45"/>
                <rect class="cls-54" x="1434.46" y="232.87" width="3.79" height="1.19"/>
                <rect class="cls-50" x="1438.26" y="232.87" width="3.79" height="1.19"/>
                <polygon class="cls-50" points="1440.92 240.69 1442.29 240.69 1442.29 239.51 1438.26 239.51 1438.26 243.53 1440.92 240.69"/>
              </g>
            </g>
            <g id="b_" data-name="b`">
              <path class="cls-69" d="M1355.83,252.19h-.53v-1.72c0-1.47-1.19-2.67-2.67-2.67h-5.2c-.47-.98-1.47-1.66-2.62-1.66-1.6,0-2.9,1.3-2.9,2.9v.89h-1.6c-1.47,0-2.67,1.19-2.67,2.67h0c0,.77,.33,1.47,.85,1.96h-.44c-1.28,0-2.31,1.03-2.31,2.31h0c0,1.28,1.03,2.31,2.31,2.31h17.78c1.93,0,3.5-1.57,3.5-3.5h0c0-1.93-1.57-3.5-3.5-3.5Z"/>
              <g>
                <path class="cls-14" d="M1345.93,262.38c-.94-.6-2.3-1.68-3.22-3.32h-1.2c1.21,2.53,3.36,3.98,4.42,4.56v-1.25Z"/>
                <path class="cls-14" d="M1348.3,262.86c.7-.71,1.94-2.1,2.72-3.8h-1.19c-.45,.86-1.02,1.62-1.53,2.22v1.58Z"/>
                <rect class="cls-71" x="1345.93" y="259.06" width="2.37" height="18.96"/>
              </g>
            </g>
            <g id="ba">
              <path class="cls-69" d="M1493.54,256.69h-.36v-1.03c0-.74-.6-1.35-1.35-1.35h-2.21v-.65c0-1.34-1.09-2.43-2.43-2.43h-.83c-.62,0-1.17,.23-1.6,.61-.3-.92-1.13-1.59-2.13-1.67v-.19c0-1.08-.87-1.95-1.95-1.95h-.95c-1.08,0-1.95,.87-1.95,1.95v2.19h-.65c-1.34,0-2.43,1.09-2.43,2.43v.12c0,.51,.16,.98,.43,1.37-1.37,.11-2.44,1.26-2.44,2.66h0c0,1.47,1.19,2.67,2.67,2.67h18.19c1.31,0,2.37-1.06,2.37-2.37h0c0-1.31-1.06-2.37-2.37-2.37h0Z"/>
              <g>
                <path class="cls-14" d="M1483.35,264.75c-.94-.6-2.3-1.68-3.22-3.32h-1.2c1.21,2.53,3.36,3.98,4.42,4.56v-1.25Z"/>
                <path class="cls-14" d="M1485.72,265.24c.7-.71,1.94-2.1,2.72-3.8h-1.19c-.45,.86-1.02,1.62-1.53,2.22v1.58Z"/>
                <rect class="cls-71" x="1483.35" y="261.43" width="2.37" height="16.59"/>
              </g>
            </g>
            <g id="bb">
              <rect class="cls-11" x="1324.06" y="269.26" width="45.75" height="1.54"/>
              <rect class="cls-11" x="1324.06" y="276.49" width="45.75" height="1.54"/>
              <g>
                <polygon class="cls-62" points="1357.86 267.77 1357.27 267 1356.68 267.77 1356.09 268.55 1356.09 278.03 1358.46 278.03 1358.46 268.55 1357.86 267.77"/>
                <polygon class="cls-62" points="1353.29 267.77 1352.7 267 1352.1 267.77 1351.51 268.55 1351.51 278.03 1353.88 278.03 1353.88 268.55 1353.29 267.77"/>
                <polygon class="cls-62" points="1362.44 267.77 1361.85 267 1361.25 267.77 1360.66 268.55 1360.66 278.03 1363.03 278.03 1363.03 268.55 1362.44 267.77"/>
                <polygon class="cls-62" points="1367.01 267.77 1366.42 267 1365.83 267.77 1365.24 268.55 1365.24 278.03 1367.61 278.03 1367.61 268.55 1367.01 267.77"/>
                <polygon class="cls-62" points="1334.99 267.77 1334.4 267 1333.81 267.77 1333.21 268.55 1333.21 278.03 1335.58 278.03 1335.58 268.55 1334.99 267.77"/>
                <polygon class="cls-62" points="1330.42 267.77 1329.82 267 1329.23 267.77 1328.64 268.55 1328.64 278.03 1331.01 278.03 1331.01 268.55 1330.42 267.77"/>
                <polygon class="cls-62" points="1325.84 267.77 1325.25 267 1324.66 267.77 1324.06 268.55 1324.06 278.03 1326.43 278.03 1326.43 268.55 1325.84 267.77"/>
                <polygon class="cls-62" points="1339.57 267.77 1338.97 267 1338.38 267.77 1337.79 268.55 1337.79 278.03 1340.16 278.03 1340.16 268.55 1339.57 267.77"/>
                <polygon class="cls-62" points="1344.14 267.77 1343.55 267 1342.95 267.77 1342.36 268.55 1342.36 278.03 1344.73 278.03 1344.73 268.55 1344.14 267.77"/>
                <polygon class="cls-62" points="1348.71 267.77 1348.12 267 1347.53 267.77 1346.94 268.55 1346.94 278.03 1349.31 278.03 1349.31 268.55 1348.71 267.77"/>
              </g>
            </g>
            <g id="bc">
              <rect class="cls-11" x="1461.19" y="269.26" width="45.75" height="1.54"/>
              <rect class="cls-11" x="1461.19" y="276.49" width="45.75" height="1.54"/>
              <g>
                <polygon class="cls-62" points="1473.14 267.77 1473.73 267 1474.32 267.77 1474.91 268.55 1474.91 278.03 1472.54 278.03 1472.54 268.55 1473.14 267.77"/>
                <polygon class="cls-62" points="1477.71 267.77 1478.3 267 1478.9 267.77 1479.49 268.55 1479.49 278.03 1477.12 278.03 1477.12 268.55 1477.71 267.77"/>
                <polygon class="cls-62" points="1468.56 267.77 1469.15 267 1469.75 267.77 1470.34 268.55 1470.34 278.03 1467.97 278.03 1467.97 268.55 1468.56 267.77"/>
                <polygon class="cls-62" points="1463.99 267.77 1464.58 267 1465.17 267.77 1465.76 268.55 1465.76 278.03 1463.39 278.03 1463.39 268.55 1463.99 267.77"/>
                <polygon class="cls-62" points="1496.01 267.77 1496.6 267 1497.19 267.77 1497.79 268.55 1497.79 278.03 1495.42 278.03 1495.42 268.55 1496.01 267.77"/>
                <polygon class="cls-62" points="1500.58 267.77 1501.18 267 1501.77 267.77 1502.36 268.55 1502.36 278.03 1499.99 278.03 1499.99 268.55 1500.58 267.77"/>
                <polygon class="cls-62" points="1505.16 267.77 1505.75 267 1506.34 267.77 1506.94 268.55 1506.94 278.03 1504.57 278.03 1504.57 268.55 1505.16 267.77"/>
                <polygon class="cls-62" points="1491.43 267.77 1492.03 267 1492.62 267.77 1493.21 268.55 1493.21 278.03 1490.84 278.03 1490.84 268.55 1491.43 267.77"/>
                <polygon class="cls-62" points="1486.86 267.77 1487.45 267 1488.05 267.77 1488.64 268.55 1488.64 278.03 1486.27 278.03 1486.27 268.55 1486.86 267.77"/>
                <polygon class="cls-62" points="1482.29 267.77 1482.88 267 1483.47 267.77 1484.06 268.55 1484.06 278.03 1481.69 278.03 1481.69 268.55 1482.29 267.77"/>
              </g>
            </g>
          </g>
        </g>
        <g>
          <g class="cls-10">
            <path class="cls-44" d="M542.48,725.41l10.22,2.77s-.6,3.26,1.06,8.5c1.66,5.24,1.28,14.62-5.05,20-6.33,5.38-12.04-1.45-12.47-5.21-.52-4.49-.91-12.25,6.24-26.06Z"/>
            <path class="cls-44" d="M544.77,721.04l9.25,3.67s6.12-7.6,2.87-12.57c-2.21-3.38-5.53-2.58-7.97-.33-3.26,3-4.14,9.23-4.14,9.23Z"/>
          </g>
          <g class="cls-4">
            <path class="cls-44" d="M549.13,628.21l10.53,1.11s-.08,3.32,2.4,8.22c2.48,4.91,3.59,14.23-1.8,20.55s-12.11,.48-13.14-3.16c-1.23-4.34-2.84-11.95,2.01-26.72Z"/>
            <path class="cls-44" d="M550.7,623.53l9.71,2.15s4.83-8.48,.83-12.86c-2.72-2.98-5.87-1.66-7.92,.95-2.74,3.48-2.62,9.77-2.62,9.77Z"/>
          </g>
          <g class="cls-40">
            <path class="cls-44" d="M553.55,830.65l10.59,.32s.17,3.32,3.01,8.02c2.84,4.71,4.64,13.92-.26,20.62-4.91,6.7-12.04,1.39-13.34-2.17-1.55-4.24-3.73-11.71,.01-26.79Z"/>
            <path class="cls-44" d="M554.77,825.87l9.85,1.42s4.18-8.81-.13-12.89c-2.94-2.77-5.98-1.22-7.83,1.53-2.47,3.68-1.88,9.94-1.88,9.94Z"/>
          </g>
          <g class="cls-53">
            <path class="cls-44" d="M558.7,926.3l10.15,3.02s-.68,3.25,.85,8.52c1.53,5.28,.92,14.65-5.54,19.87-6.46,5.22-12-1.75-12.34-5.52-.41-4.5-.6-12.27,6.88-25.89Z"/>
            <path class="cls-44" d="M561.1,921.99l9.15,3.9s6.3-7.45,3.18-12.49c-2.13-3.43-5.47-2.71-7.96-.52-3.33,2.92-4.36,9.12-4.36,9.12Z"/>
          </g>
          <g class="cls-15">
            <path class="cls-44" d="M608.91,686.2l-10.34-2.31s-.99,3.17-4.9,7.03c-3.91,3.86-7.94,12.34-4.84,20.05,3.1,7.71,11.33,4.32,13.46,1.2,2.55-3.73,6.51-10.42,6.61-25.96Z"/>
            <path class="cls-44" d="M608.92,681.26l-9.89-1.06s-1.87-9.57,3.32-12.46c3.53-1.96,6.1,.3,7.21,3.42,1.49,4.17-.64,10.09-.64,10.09Z"/>
          </g>
          <g class="cls-31">
            <path class="cls-44" d="M606.13,592.63l-10.44,1.79s.29,3.31-1.86,8.36c-2.15,5.06-2.66,14.43,3.13,20.38,5.79,5.95,12.12-.31,12.91-4.01,.94-4.42,2.06-12.11-3.74-26.53Z"/>
            <path class="cls-44" d="M604.26,588.06l-9.55,2.78s-5.37-8.14-1.66-12.78c2.52-3.16,5.75-2.04,7.97,.43,2.96,3.3,3.25,9.58,3.25,9.58Z"/>
          </g>
          <g class="cls-21">
            <path class="cls-44" d="M618.68,865.8l-10.59-.31s-.37,3.3-3.47,7.83c-3.11,4.53-5.45,13.62-.95,20.6,4.5,6.98,11.94,2.09,13.45-1.38,1.8-4.14,4.41-11.47,1.56-26.75Z"/>
            <path class="cls-44" d="M617.74,860.96l-9.91,.84s-3.66-9.04,.89-12.86c3.09-2.6,6.04-.87,7.73,1.99,2.25,3.81,1.29,10.03,1.29,10.03Z"/>
          </g>
          <g class="cls-26">
            <path class="cls-44" d="M611.06,977.4l-10.27-2.57s-1.07,3.14-5.07,6.9c-4.01,3.76-8.25,12.14-5.35,19.92,2.9,7.78,11.21,4.61,13.43,1.54,2.64-3.66,6.77-10.25,7.27-25.79Z"/>
            <path class="cls-44" d="M611.19,972.47l-9.86-1.31s-1.63-9.62,3.63-12.37c3.58-1.87,6.09,.45,7.12,3.6,1.38,4.21-.89,10.07-.89,10.07Z"/>
          </g>
          <g class="cls-39">
            <path class="cls-44" d="M610.68,771.36l-10.33,2.35s.47,3.29-1.41,8.45c-1.88,5.16-1.88,14.55,4.23,20.19s12.09-.96,12.68-4.69c.7-4.46,1.41-12.21-5.16-26.29Z"/>
            <path class="cls-44" d="M608.57,766.9l-9.39,3.29s-5.8-7.84-2.35-12.68c2.35-3.29,5.63-2.35,7.98,0,3.13,3.13,3.76,9.39,3.76,9.39Z"/>
          </g>
        </g>
        <g>
          <ellipse class="cls-19" cx="255" cy="652.5" rx="9" ry="3.5"/>
          <ellipse class="cls-19" cx="322" cy="613" rx="9" ry="2"/>
          <ellipse class="cls-19" cx="348.5" cy="648.5" rx="14.5" ry="7.5"/>
          <path class="cls-19" d="M331,638.94c0-1.43-1.28-2.69-3.21-3.41,.13-.31,.21-.63,.21-.96,0-2.24-3.13-4.06-7-4.06-.58,0-1.15,.05-1.69,.12-1.5-1.53-5.32-2.62-9.81-2.62-3.32,0-6.28,.6-8.2,1.53-1.18-.18-2.46-.28-3.8-.28-3.47,0-6.54,.65-8.45,1.66-.92-.26-1.95-.41-3.05-.41-2.96,0-5.49,1.07-6.51,2.58-4.84,.36-8.49,2.01-8.49,3.99,0,2.12,4.18,3.85,9.53,4.04,1.05,1.48,3.55,2.52,6.47,2.52,1.74,0,3.32-.37,4.54-.98,.83,1.32,2.51,2.23,4.46,2.23,1.05,0,2.02-.26,2.82-.71,1.28,.82,3.12,1.34,5.18,1.34,.18,0,.35,0,.53-.02,1.05,1.48,3.55,2.52,6.47,2.52,2.21,0,4.18-.6,5.46-1.52,.95,.17,1.97,.27,3.04,.27,4.69,0,8.5-1.82,8.5-4.06,0-.14-.02-.27-.04-.4,1.84-.73,3.04-1.96,3.04-3.35Z"/>
        </g>
        <g>
          <g>
            <path class="cls-47" d="M290.16,592.69l-.33-1.04-8.22-25.9c-13.11-6.08-33.02-6.75-41.11-6.75s-29.48,.72-42.53,7.45l-6.84,25.17-.29,1.07h99.32Z"/>
            <ellipse class="cls-57" cx="240.5" cy="602.5" rx="53.5" ry="22.5"/>
            <ellipse class="cls-13" cx="240.5" cy="602.5" rx="43.5" ry="12.5"/>
            <g>
              <path class="cls-3" d="M241.18,647.81l-.59,.34c-4.88,2.87-22.67,7.45-22.85,7.5l.52,.36c.71-.18,16.97-4.37,22.59-7.3,1.31,1.38,6.86,6.26,21.46,8.79l.38-.39c-16.59-2.87-21.17-8.83-21.21-8.89l-.3-.4Z"/>
              <path class="cls-3" d="M241.34,624.01l-.34,.93s-1.16,2.97-12.88,8.71l.76,.27c9.21-4.51,11.99-7.3,12.8-8.39,1.28,.77,4.99,2.41,15.56,5.08l.51-.36c-14.44-3.64-15.76-5.32-15.77-5.33l-.64-.91Z"/>
              <path class="cls-3" d="M239,658.97h-1c.04,.71,1.13,17.26,15.62,23.6l.72-.29c-14.22-6.22-15.33-23.14-15.34-23.31Z"/>
              <path class="cls-3" d="M236.06,674.11c-4.85,6.65-20.21,11.69-20.37,11.74l.61,.33c.16-.05,15.76-5.17,20.71-11.95l-.96-.12Z"/>
              <path class="cls-3" d="M235.08,678.9l-.99,.06c.03,.08,2.84,8.21-2.07,15.22l.96,.12c4.97-7.1,2.13-15.32,2.1-15.4Z"/>
              <path class="cls-37" d="M227.96,691.78c-.53,.73-1.08,1.44-1.64,2.12,.15-.14,.77-.79,1.64-2.12Z"/>
              <path class="cls-37" d="M246.76,604.62h-12.14c.19,1.4,.36,2.79,.52,4.15,.48,3.88,.87,7.6,1.19,11.15,.27,3.02,.48,5.93,.65,8.72,.02,.26,.03,.51,.04,.77,.11,1.86,.2,3.68,.26,5.44,.16,4.09,.2,7.91,.15,11.49-.01,1.12-.04,2.22-.07,3.3,0,.2,0,.39-.02,.58h0c-.13,3.93-.37,7.52-.71,10.81-.52,5.31-1.28,9.83-2.15,13.66-.11,.53-.23,1.03-.35,1.53-.1,.41-.2,.81-.3,1.2-.33,1.27-.67,2.45-1.02,3.55-1.02,3.24-2.08,5.75-3.04,7.67-.19,.38-.38,.73-.55,1.06-.46,.83-.88,1.52-1.26,2.08,.49-.67,.97-1.35,1.44-2.06,.22-.34,.45-.69,.66-1.04,1.51-2.38,2.88-4.94,4.12-7.63,.1-.21,.2-.43,.3-.64,.21-.47,.42-.95,.63-1.43,.58-1.34,1.12-2.7,1.64-4.1,.08-.19,.15-.38,.22-.58h0l.03-.07c.94-2.55,1.78-5.17,2.55-7.83h0c.17-.61,.34-1.22,.5-1.82,.44-1.59,.85-3.2,1.22-4.82,.72-3.03,1.35-6.09,1.89-9.13,.05-.25,.09-.5,.13-.75,.18-.97,.34-1.94,.49-2.91,.49-3.05,.9-6.05,1.24-8.97,.44-3.72,.78-7.29,1.02-10.62,.02-.18,.03-.36,.05-.53,.18-2.49,.32-4.85,.42-7.03,.21-4.42,.27-8.12,.28-10.76h0c.01-2.83-.04-4.44-.04-4.44Z"/>
              <path class="cls-3" d="M318.92,651.74c-13.16,2.74-54.49,8.66-68.59-21.3-.69-1.47,2.63-2.71,6.01-2.23,14.81,2.11,48.21,8.09,64.58,20.84,1.25,.98,.36,2.19-2.01,2.68Z"/>
              <path class="cls-82" d="M253.68,657.53c9.56,8.18,37.19,27.34,76.43,16.57,2.75-.76,3.27-2.37,1.08-3.4-9.34-4.39-35.31-14.93-72.19-16.43-4.19-.17-7.17,1.67-5.32,3.26Z"/>
              <path class="cls-82" d="M140.66,679.56c-.78,1.09-.12,2.27,1.7,3.11,6.3,2.92,25.2,9.27,55.65-.82,0,0,18.97-6.64,27.4-13.42,1.9-1.53,.65-3.42-2.87-4.32-7.95-2.01-24.47-4.27-48.92,1.78-24.33,6.02-31.1,11.07-32.95,13.66Z"/>
              <path class="cls-3" d="M158.08,693.13c-2.08,1.26-1.51,2.98,1.36,3.93,7.22,2.4,23.1,5.81,46.57,.74,0,0,11.66-2.64,18.2-11.62,1.38-1.9-2.06-3.81-6.79-3.75-14.88,.16-44.49,1.68-59.34,10.7Z"/>
              <path class="cls-82" d="M195.93,720.94c2.74,1.82,8.2,2.54,12.94,1.73,12.47-2.12,36.16-7.39,44.13-17.73,11-14.27-26-15.36-26-15.36,0,0-34.7-.42-39.35,17.12,0,0-2.86,6.84,8.28,14.23Z"/>
              <path class="cls-3" d="M245.49,684.27c-.95,5.15,2.39,13.11,27.05,18.89,.29,.07,.57,.14,.85,.21,2.75,.75,19.78,5.21,32.62,3.67,12.98-1.56-14.45-16.83-18.51-19.04-.31-.17-.6-.34-.87-.53-1.74-1.18-9.35-6.05-19.41-8.28-9.38-2.08-20.9,.64-21.72,5.08Z"/>
              <path class="cls-82" d="M226.13,629.37c4.83,.04,8.68,1.73,8.48,3.76-.7,6.92-6.3,22.29-41.61,26.48-46,5.46-30-10.07-30-10.07,0,0,20.47-20.56,63.13-20.16Z"/>
              <path class="cls-3" d="M227,644.91s49,7.98,21-5.46c0,0-10.24-5.79-32.58-10.99-3.36-.78-7.53-.61-10.46,.44-7.44,2.65-19.51,8.25-11.43,14.69,4.43,3.52,13.41,5.69,22.86,5.32,5.26-.2,10.16-1.17,10.61-4Z"/>
              <path class="cls-17" d="M218.71,654.13c3.01,.17,4.49,1.63,2.69,2.65-9.07,5.15-34.87,16.86-74.4,11.21,0,0-8.97-1.13-16.71-6.24-.9-.59-.8-1.36,.23-1.92,4.91-2.67,23.96-9.38,88.19-5.71Z"/>
              <path class="cls-17" d="M216,671.36s18,5.04,32,3.36c0,0,11,5.46,29,4.2,0,0,5-14.69-16-21.41,0,0-25-1.26-45,13.85Z"/>
              <path class="cls-17" d="M200.07,694.44c4.39-.16,11.49-1.73,22.93-6.71,0,0,32.89,5.04,31.95,0-.91-4.88-12.18-7-35.57-7.13-1.63,0-3.24,.16-4.65,.5-4.83,1.17-16.04,4.39-20.73,10.03-1.41,1.69,1.83,3.46,6.08,3.3Z"/>
            </g>
          </g>
          <path class="cls-19" d="M284,602.5c0-6.9-19.48-12.5-43.5-12.5s-43.5,5.6-43.5,12.5v.02c0,1.26,2.78,2.31,6.4,2.49,1.01,.99,3.8,1.71,7.1,1.71,1.47,0,2.84-.15,4-.39,1.16,.24,2.53,.39,4,.39,1.13,0,2.19-.09,3.15-.24,1.17,.88,3.79,1.5,6.85,1.5,.75,0,1.47-.04,2.15-.11,1.1,.47,2.68,.8,4.49,.9,.44,.04,.89,.05,1.36,.05,2.55,0,4.79-.43,6.15-1.08,.8,.6,2.29,1.08,4.14,1.32h0c.84,.11,1.75,.17,2.7,.17,2.85,0,5.32-.53,6.59-1.31,2.52-.19,4.56-.79,5.44-1.59,1.15,.24,2.51,.39,3.97,.39,3.23,0,5.97-.69,7.03-1.65,1.15,.24,2.51,.39,3.97,.39,3.88,0,7.08-.99,7.46-2.26,0-.01,0-.02,0-.03,.02-.1,.02-.19,.03-.29,0-.12,0-.25,0-.38Z"/>
        </g>
        <g>
          <rect class="cls-20" x="1295" y="389" width="54" height="40" rx="1.23" ry="1.23"/>
          <rect class="cls-25" x="1297" y="419" width="51" height="8"/>
          <rect class="cls-45" x="1348" y="419" width="1" height="8" transform="translate(2697 846) rotate(180)"/>
        </g>
        <g>
          <g>
            <ellipse class="cls-74" cx="985.41" cy="902.9" rx="13.14" ry="53.75"/>
            <ellipse class="cls-74" cx="980.24" cy="948.18" rx="16.16" ry="38.66"/>
            <ellipse class="cls-74" cx="938.17" cy="952.5" rx="23.72" ry="66.69"/>
            <ellipse class="cls-74" cx="967.13" cy="982.69" rx="14.02" ry="75.31"/>
            <ellipse class="cls-74" cx="1018.29" cy="1043.86" rx="3.5" ry="58"/>
            <ellipse class="cls-74" cx="1024.29" cy="1076.86" rx="4.5" ry="41"/>
            <ellipse class="cls-74" cx="1036.29" cy="1012.61" rx="1.5" ry="17.25"/>
            <ellipse class="cls-74" cx="919.49" cy="837.37" rx="5.11" ry="54.79"/>
            <ellipse class="cls-74" cx="931.99" cy="807.37" rx="9.61" ry="54.79"/>
          </g>
          <path class="cls-6" d="M991.87,926.17v62.18c0,27.32-10.09,51.32-24.14,57.83v4.26c6.13,5.41,10.07,16.79,10.12,29.42,2.67,.58,4.67,4.4,4.67,9.17,0,3.64-1.18,6.8-2.99,8.3,.43,3.06,.65,6.23,.65,9.46,0,20.61-9.06,37.37-20.19,37.37s-20.19-16.77-20.19-37.37c0-3.23,.22-6.4,.65-9.46-1.81-1.51-2.98-4.67-2.98-8.3,0-4.77,2-8.58,4.67-9.17,.06-12.63,3.99-24.01,10.12-29.42v-4.26c-14.05-6.51-24.14-30.51-24.14-57.83v-62.18c0-6.01,2.71-10.72,6.17-10.72s6.11,4.61,6.17,10.53c.08-.01,.17-.02,.25-.02,.93,0,1.78,.62,2.35,1.71,.33,.62,.54,1.36,.64,2.12v-65.44h-.06c-3.46,0-6.17-4.71-6.17-10.72v-7.76h20.12v106.76c.79-.11,1.59-.16,2.4-.16s1.61,.06,2.4,.16v-106.76h20.12v7.76c0,6.01-2.71,10.72-6.17,10.72h-.06v65.44c.1-.77,.31-1.5,.64-2.12,.57-1.09,1.43-1.71,2.36-1.71,.08,0,.17,0,.25,.02,.06-5.92,2.75-10.53,6.17-10.53s6.17,4.71,6.17,10.72Zm-27.13,126.25v-8.89l1.04-.41c13.39-5.31,23.11-28.34,23.11-54.77v-62.18c0-4.15-1.68-7.04-3.18-7.04s-3.18,2.89-3.18,7.04v9.94l-3.22-6.11c-.16,.58-.11,1.4,.13,1.85l3.09,5.87v50.63c0,8.61-1.39,16.89-4.03,23.92l-2.85,7.6v-45.97h-2.34v-113.24h3.05c1.5,0,3.18-2.89,3.18-7.04v-4.08h-14.15v107.47l-1.79-.44c-1.17-.29-2.38-.43-3.6-.43s-2.43,.15-3.6,.43l-1.79,.44v-107.47h-14.15v4.08c0,4.15,1.67,7.04,3.18,7.04h3.05v113.24h-2.34v45.97l-2.85-7.6c-2.64-7.03-4.03-15.31-4.03-23.92v-50.63l3.09-5.87c.24-.45,.28-1.27,.13-1.85l-3.21,6.11v-9.95c0-4.15-1.68-7.04-3.18-7.04s-3.18,2.89-3.18,7.04v62.18c0,26.43,9.72,49.46,23.11,54.77l1.04,.41v8.89l-.69,.54c-5.64,4.46-9.44,15.38-9.44,27.18v3.32h-2.27c-1.13,0-2.4,2.38-2.4,5.56,0,2.98,1.06,5.14,2.09,5.5l.1,.03h0l.21,.05v.03l1.01,.36-.27,1.66c-.53,3.24-.8,6.65-.8,10.13,0,18.58,7.72,33.69,17.2,33.69s17.2-15.11,17.2-33.69c0-3.48-.27-6.89-.8-10.13l-.27-1.66,1.08-.39v-.02l.13-.03h0l.11-.03c1.03-.37,2.09-2.53,2.09-5.5,0-3.18-1.27-5.56-2.4-5.56h-2.27v-3.32c0-11.8-3.79-22.72-9.44-27.18l-.69-.54Zm13.89-52.61c.6-3.67,.91-7.53,.91-11.46v-49.54l-2.61-4.96c-.33-.62-.54-1.36-.64-2.12v38.49h2.34v29.59Zm.87-70.24h0Zm-.43,0h0Zm-35.36,40.66v-38.49c-.1,.77-.31,1.5-.64,2.12l-2.61,4.96v49.54c0,3.93,.31,7.79,.91,11.46v-29.59h2.34Zm-2.77-40.66h0Zm-.43,0h0Z"/>
        </g>
      </g>
      <g>
        <g>
          <polygon class="cls-42" points="1823.86 663 1853.86 663 1843.86 623 1813.86 623 1823.86 663"/>
          <polygon class="cls-20" points="1833.86 663 1803.86 663 1813.86 623 1843.86 623 1833.86 663"/>
        </g>
        <path d="M1822.93,650.19c-1.29,0-2.43-.23-3.41-.7-.98-.47-1.75-1.12-2.3-1.95-.55-.83-.83-1.78-.83-2.85,0-.45,.07-.91,.21-1.35,.14-.45,.31-.87,.52-1.28,.21-.4,.41-.76,.62-1.08,.21-.31,.37-.57,.51-.76l3.87-5.21c.07-.07,.17-.17,.29-.28,.12-.11,.29-.17,.51-.17h2.93c.13,0,.24,.05,.33,.14s.13,.21,.13,.34c0,.06,0,.11-.02,.17-.01,.05-.04,.09-.07,.12l-2.97,4.05c.09-.03,.19-.05,.32-.05,.12,0,.24-.01,.34-.01,.66,.03,1.31,.18,1.96,.44s1.23,.62,1.76,1.08c.53,.46,.95,1,1.26,1.64,.32,.64,.47,1.35,.47,2.15,0,1.01-.26,1.94-.79,2.78-.53,.84-1.27,1.52-2.23,2.02-.96,.51-2.09,.76-3.4,.76Zm-.02-3.17c.42,0,.82-.09,1.19-.27s.66-.45,.89-.79c.23-.34,.34-.77,.34-1.29s-.11-.94-.33-1.29-.51-.61-.88-.78c-.37-.18-.77-.26-1.21-.26s-.85,.09-1.22,.26-.67,.44-.89,.78-.33,.77-.33,1.29,.11,.94,.34,1.29,.52,.61,.89,.79c.37,.18,.77,.27,1.21,.27Z"/>
      </g>
      <g>
        <g>
          <polygon class="cls-42" points="388 641 358 641 368 601 398 601 388 641"/>
          <polygon class="cls-20" points="378 641 408 641 398 601 368 601 378 641"/>
        </g>
        <path d="M387.91,628.21c-1.38,0-2.53-.22-3.45-.65s-1.62-1-2.1-1.69c-.48-.7-.73-1.45-.76-2.26,0-.13,.04-.24,.13-.33,.09-.09,.2-.13,.33-.13h2.95c.19,0,.34,.04,.45,.12,.11,.08,.19,.18,.25,.3,.13,.34,.3,.62,.52,.84,.21,.22,.46,.38,.75,.48,.29,.1,.6,.15,.96,.15,.41,0,.79-.09,1.14-.26,.35-.18,.63-.44,.85-.78s.32-.76,.32-1.24c0-.44-.1-.82-.3-1.14-.2-.32-.47-.58-.83-.77s-.75-.29-1.19-.29c-.35,0-.64,.04-.86,.12-.22,.08-.4,.18-.55,.3-.15,.12-.28,.22-.4,.3-.12,.08-.25,.12-.4,.12h-2.88c-.13,0-.25-.05-.34-.14s-.14-.21-.14-.34l.79-7.68c.03-.22,.11-.38,.24-.5,.13-.11,.29-.17,.48-.17h8.82c.16,0,.29,.05,.4,.15,.1,.1,.15,.24,.15,.4v2.07c0,.16-.05,.29-.15,.4-.1,.1-.24,.15-.4,.15h-6.38l-.29,2.86c.32-.22,.7-.4,1.13-.54,.43-.14,1.02-.21,1.77-.21,.7,0,1.38,.12,2.01,.35s1.21,.57,1.72,1.01c.51,.44,.9,.96,1.19,1.57s.43,1.29,.43,2.06c0,1.04-.25,1.97-.76,2.77s-1.24,1.44-2.19,1.9-2.1,.69-3.43,.69Z"/>
      </g>
      <g>
        <g>
          <polygon class="cls-42" points="583 811 553 811 563 771 593 771 583 811"/>
          <polygon class="cls-20" points="573 811 603 811 593 771 563 771 573 811"/>
        </g>
        <path class="cls-77" d="M582.88,798.19c-1.14,0-2.12-.14-2.93-.41-.81-.27-1.47-.62-1.98-1.06-.51-.43-.89-.89-1.14-1.39-.25-.49-.38-.96-.4-1.42,0-.13,.05-.24,.14-.33s.21-.13,.34-.13h2.86c.18,0,.32,.03,.42,.1,.1,.07,.2,.17,.29,.32,.12,.28,.29,.51,.52,.68s.5,.3,.83,.36c.32,.07,.67,.1,1.06,.1,.75,0,1.33-.17,1.75-.52s.63-.82,.63-1.42-.2-1.08-.59-1.35c-.4-.27-.96-.41-1.69-.41h-2.44c-.16,0-.29-.05-.4-.15-.1-.1-.15-.23-.15-.4v-1.23c0-.18,.04-.33,.11-.46,.07-.13,.15-.23,.24-.29l3.61-3.06h-6.12c-.15,0-.27-.05-.38-.15s-.17-.23-.17-.4v-2.07c0-.16,.05-.29,.17-.4s.24-.15,.38-.15h10.12c.16,0,.3,.05,.41,.15,.11,.1,.17,.24,.17,.4v1.87c0,.16-.04,.3-.11,.43s-.15,.22-.24,.3l-3.34,3.1,.15,.04c.84,.1,1.58,.33,2.24,.67,.66,.34,1.18,.82,1.56,1.44,.38,.62,.57,1.4,.57,2.35s-.28,1.86-.85,2.58c-.57,.73-1.33,1.29-2.3,1.68-.97,.4-2.08,.59-3.32,.59Z"/>
      </g>
    </g>
  </g>
</svg>