<?xml version="1.0" encoding="UTF-8"?>
<svg xmlns="http://www.w3.org/2000/svg" viewBox="0 0 1920 1080">
  <defs>
    <style>
      .cls-1 {
        fill: #ffa86c;
      }

      .cls-2 {
        fill: #fff;
      }

      .cls-3 {
        fill: #f2925a;
      }

      .cls-4 {
        fill: #f38f55;
      }

      .cls-5 {
        fill: #75332e;
      }

      .cls-6 {
        fill: #1c1c1c;
      }

      .cls-7 {
        fill: #c05e2e;
      }

      .cls-8 {
        fill: #a4461a;
      }

      .cls-9 {
        fill: #5d1d12;
      }

      .cls-10 {
        fill: #6d2218;
      }

      .cls-11 {
        fill: #f3a63b;
      }

      .cls-12 {
        fill: #861f1d;
      }

      .cls-13 {
        fill: #8a2b15;
      }

      .cls-14 {
        fill: #7f3518;
      }

      .cls-15 {
        fill: #f2f2f2;
      }
    </style>
  </defs>
  <g id="Calque_2" data-name="Calque 2"/>
  <g id="Calque_1" data-name="Calque 1">
    <g>
      <g>
        <path class="cls-7" d="M960,539.82c-32.27,0-58.44,26.16-58.44,58.44v52.44h17.98v-52.44c0-22.31,18.15-40.46,40.46-40.46s40.46,18.15,40.46,40.46v52.44h17.98v-52.44c0-32.27-26.16-58.44-58.44-58.44Z"/>
        <g>
          <g>
            <rect class="cls-1" x="901.56" y="641.71" width="17.98" height="28.47" rx="8.99" ry="8.99"/>
            <rect class="cls-1" x="916.73" y="645.87" width="5.99" height="14.98" rx="3" ry="3" transform="translate(-192.61 841.71) rotate(-45)"/>
          </g>
          <g>
            <rect class="cls-1" x="1000.46" y="641.71" width="17.98" height="28.47" rx="8.99" ry="8.99"/>
            <rect class="cls-1" x="992.78" y="650.36" width="14.98" height="5.99" rx="3" ry="3" transform="translate(-169.02 898.67) rotate(-45)"/>
          </g>
        </g>
      </g>
      <rect class="cls-14" x="942.02" y="614.74" width="35.96" height="65.93"/>
      <g>
        <rect class="cls-6" x="931.53" y="614.74" width="20.98" height="125.86"/>
        <path class="cls-6" d="M919.54,740.6h32.96v-14.98h-23.97c-4.97,0-8.99,4.03-8.99,8.99v5.99Z"/>
        <rect class="cls-6" x="967.49" y="614.74" width="20.98" height="125.86"/>
        <path class="cls-6" d="M1000.46,740.6h-32.96v-14.98h23.97c4.97,0,8.99,4.03,8.99,8.99v5.99Z"/>
        <path class="cls-6" d="M931.53,614.74v4.5c0,7.45,12.75,13.49,28.47,13.49s28.47-6.04,28.47-13.49v-4.5h-56.94Z"/>
      </g>
      <path class="cls-15" d="M942.02,614.74v-67.73c0-5.62,4.56-10.18,10.18-10.18h15.6c5.62,0,10.18,4.56,10.18,10.18v67.73h-35.96Z"/>
      <polygon class="cls-9" points="967.49 559.3 960 556.3 952.51 559.3 957 566.79 954.01 598.25 960 604.25 965.99 598.25 963 566.79 967.49 559.3"/>
      <path class="cls-2" d="M960,556.3l17.98,7.19v-16.49c0-5.62-4.56-10.18-10.18-10.18h-15.6c-5.62,0-10.18,4.56-10.18,10.18v16.49l17.98-7.19Z"/>
      <g>
        <rect class="cls-7" x="927.04" y="557.8" width="14.98" height="122.87"/>
        <rect class="cls-7" x="977.98" y="557.8" width="14.98" height="122.87"/>
      </g>
      <g>
        <path class="cls-8" d="M942.02,608.7v-61.7c0-5.21,3.92-9.5,8.96-10.1-10.87,.8-19.45,9.86-19.45,20.94v2.95l5.99,4.5-5.99,8.99,10.49,34.42Z"/>
        <path class="cls-8" d="M977.98,608.7v-61.7c0-5.21-3.92-9.5-8.96-10.1,10.87,.8,19.45,9.86,19.45,20.94v2.95l-5.99,4.5,5.99,8.99-10.49,34.42Z"/>
      </g>
      <g>
        <rect class="cls-4" x="948.01" y="509.85" width="23.97" height="44.95" rx="11.99" ry="11.99"/>
        <g>
          <rect class="cls-3" x="919.54" y="488.87" width="80.91" height="14.98" rx="7.49" ry="7.49"/>
          <rect class="cls-3" x="919.54" y="488.87" width="80.91" height="14.98" rx="7.49" ry="7.49"/>
          <rect class="cls-1" x="928.53" y="446.92" width="62.93" height="89.9" rx="31.47" ry="31.47"/>
        </g>
        <g>
          <path class="cls-5" d="M991.47,488.87h1.5c1.07,0,2.08,.23,3,.63v-9.62h-4.5v8.99Z"/>
          <path class="cls-5" d="M927.04,488.87h1.5v-8.99h-4.5v9.62c.92-.4,1.93-.63,3-.63Z"/>
        </g>
        <path class="cls-12" d="M952.51,516.22c-.76,0-1.41-.58-1.49-1.35-.08-.82,.52-1.56,1.34-1.64l14.98-1.5c.83-.07,1.56,.52,1.64,1.34,.08,.82-.52,1.56-1.34,1.64l-14.98,1.5c-.05,0-.1,0-.15,0Z"/>
        <g>
          <path class="cls-10" d="M938.27,485.13c0,3.31,2.68,5.99,5.99,5.99s5.99-2.68,5.99-5.99h-11.99Z"/>
          <path class="cls-10" d="M981.73,485.13c0,3.31-2.68,5.99-5.99,5.99s-5.99-2.68-5.99-5.99h11.99Z"/>
        </g>
        <path class="cls-5" d="M951,496.37c-4.13,0-7.48,3.35-7.48,7.48v4.5h32.96v-4.5c0-4.13-3.35-7.48-7.48-7.48h-18Z"/>
        <rect class="cls-4" x="954.01" y="484.38" width="11.99" height="17.98" rx="5.99" ry="5.99"/>
        <g>
          <rect class="cls-9" x="918.05" y="473.89" width="83.91" height="5.99" rx="3" ry="3"/>
          <path class="cls-13" d="M995.96,473.89h-71.92c0-1.35,.31-3.46,.93-5.99,2.62-10.97,10.55-29.97,20.71-29.97,3.36,0,6.35,1.74,8.39,4.47,1.29,1.72,3.45,2.97,5.87,2.98h.12c2.43-.01,4.58-1.26,5.87-2.98,2.04-2.73,5.03-4.47,8.39-4.47,10.16,0,18.09,19,20.71,29.97,.61,2.53,.93,4.65,.93,5.99Z"/>
          <path class="cls-11" d="M995.96,473.89h-71.92c0-1.35,.31-3.46,.93-5.99h70.06c.61,2.53,.93,4.65,.93,5.99Z"/>
        </g>
      </g>
      <rect class="cls-8" x="898.57" y="631.22" width="17.98" height="7.49"/>
      <rect class="cls-8" x="1003.45" y="631.22" width="17.98" height="7.49"/>
    </g>
  </g>
</svg>