<?xml version="1.0" encoding="UTF-8"?>
<svg xmlns="http://www.w3.org/2000/svg" viewBox="0 0 1920 1080">
  <defs>
    <style>
      .cls-1 {
        fill: #fff;
      }

      .cls-2 {
        fill: #343535;
      }

      .cls-3 {
        fill: #0c688c;
      }

      .cls-4 {
        fill: #75332e;
      }

      .cls-5 {
        fill: #ed2424;
      }

      .cls-6 {
        fill: #f0917b;
      }

      .cls-7 {
        fill: #6d2218;
      }

      .cls-8 {
        fill: #b83441;
      }

      .cls-9 {
        fill: #861f1d;
      }

      .cls-10 {
        fill: #f2b696;
      }
    </style>
  </defs>
  <g id="Calque_2" data-name="Calque 2"/>
  <g id="Calque_1" data-name="Calque 1">
    <g>
      <g>
        <rect class="cls-3" x="731.48" y="668.6" width="21.01" height="126.07"/>
        <rect class="cls-3" x="767.5" y="668.6" width="21.01" height="126.07"/>
        <path class="cls-3" d="M731.48,668.6v4.5c0,7.46,12.77,13.51,28.52,13.51s28.52-6.05,28.52-13.51v-4.5h-57.03Z"/>
      </g>
      <g>
        <rect class="cls-5" x="726.98" y="611.57" width="66.04" height="57.03"/>
        <path class="cls-5" d="M760,593.55c-32.33,0-58.53,26.21-58.53,58.53v52.53h18.01v-52.53c0-22.34,18.18-40.52,40.52-40.52s40.52,18.18,40.52,40.52v52.53h18.01v-52.53c0-32.33-26.21-58.53-58.53-58.53Z"/>
      </g>
      <g>
        <g>
          <rect class="cls-10" x="701.47" y="695.61" width="18.01" height="28.52" rx="9.01" ry="9.01"/>
          <rect class="cls-10" x="716.66" y="699.78" width="6" height="15.01" rx="3" ry="3" transform="translate(-289.34 716.04) rotate(-45)"/>
        </g>
        <g>
          <rect class="cls-10" x="800.52" y="695.61" width="18.01" height="28.52" rx="9.01" ry="9.01"/>
          <rect class="cls-10" x="792.84" y="704.28" width="15.01" height="6" rx="3" ry="3" transform="translate(-265.71 773.09) rotate(-45)"/>
        </g>
      </g>
      <g>
        <rect class="cls-6" x="747.99" y="563.54" width="24.01" height="45.03" rx="12.01" ry="12.01"/>
        <g>
          <rect class="cls-6" x="719.48" y="542.53" width="81.05" height="15.01" rx="7.5" ry="7.5"/>
          <rect class="cls-6" x="719.48" y="542.53" width="81.05" height="15.01" rx="7.5" ry="7.5"/>
          <rect class="cls-10" x="728.48" y="500.5" width="63.04" height="90.05" rx="31.52" ry="31.52"/>
        </g>
        <path class="cls-6" d="M766,553.03v-6c0-3.3-2.7-6-6-6h0c-3.3,0-6,2.7-6,6v6h12.01Z"/>
        <path class="cls-4" d="M796.02,532.02c0,3.71-.56,7.28-1.61,10.64-.45-.09-.92-.14-1.4-.14h-1.5v-.75c0-17.33-14.18-31.52-31.52-31.52s-31.52,14.18-31.52,31.52v.75h-1.5c-.48,0-.95,.05-1.4,.14-1.05-3.36-1.61-6.93-1.61-10.64,0-19.89,16.13-36.02,36.02-36.02s36.02,16.13,36.02,36.02Z"/>
        <g>
          <circle class="cls-7" cx="744.24" cy="541.78" r="4.5"/>
          <circle class="cls-7" cx="775.76" cy="541.78" r="4.5"/>
        </g>
        <g>
          <path class="cls-9" d="M773.51,561.85c0,1.05-.2,2.06-.57,3-.95,2.52-3.09,4.64-5.9,5.96-2.06,.99-4.47,1.55-7.04,1.55s-4.98-.56-7.04-1.55c-2.81-1.32-4.95-3.44-5.9-5.96-.38-.95-.57-1.95-.57-3h27.02Z"/>
          <path class="cls-8" d="M767.04,570.81c-2.06,.99-4.47,1.55-7.04,1.55s-4.98-.56-7.04-1.55c1.04-1.73,3.8-2.96,7.04-2.96s6,1.23,7.04,2.96Z"/>
          <path class="cls-1" d="M773.51,561.85c0,1.05-.2,2.06-.57,3h-25.87c-.38-.95-.57-1.95-.57-3h27.02Z"/>
        </g>
      </g>
      <g>
        <path class="cls-2" d="M719.48,794.67h33.02v-15.01h-24.01c-4.97,0-9.01,4.03-9.01,9.01v6Z"/>
        <path class="cls-2" d="M800.52,794.67h-33.02v-15.01h24.01c4.97,0,9.01,4.03,9.01,9.01v6Z"/>
      </g>
    </g>
  </g>
</svg>