<?xml version="1.0" encoding="UTF-8"?>
<svg xmlns="http://www.w3.org/2000/svg" viewBox="0 0 1920 1080">
  <defs>
    <style>
      .cls-1 {
        fill: #fff;
      }

      .cls-2 {
        fill: #423e46;
      }

      .cls-3 {
        fill: #3a609f;
      }

      .cls-4 {
        fill: #f47967;
      }

      .cls-5 {
        fill: #2f3e5b;
      }

      .cls-6 {
        fill: #333239;
      }

      .cls-7 {
        fill: #1c1d17;
      }

      .cls-8 {
        fill: #f69877;
      }

      .cls-9 {
        fill: #4c4951;
      }

      .cls-10 {
        fill: #cb5922;
      }

      .cls-11 {
        fill: #2d2d2d;
      }

      .cls-12 {
        fill: #3a1f01;
      }

      .cls-13 {
        fill: #6d2218;
      }

      .cls-14 {
        fill: #242d4e;
      }

      .cls-15 {
        fill: #861f1d;
      }

      .cls-16 {
        fill: #281501;
      }

      .cls-17 {
        fill: #19213a;
      }

      .cls-18 {
        fill: #232229;
      }

      .cls-19 {
        fill: #12192b;
      }
    </style>
  </defs>
  <g id="Calque_2" data-name="Calque 2"/>
  <g id="Calque_1" data-name="Calque 1">
    <g>
      <g>
        <g>
          <path class="cls-10" d="M1333.36,748.97c-7.33-7.33-17.47-11.89-28.6-11.89-22.04,0-40.1,17.84-40.47,39.8h0v.04c-.02,.21-.02,.42-.02,.64,0,3.78,1.78,7.14,4.54,9.31,.02,.02,.05,.03,.06,.04,.19,.14,.39,.28,.6,.43,.03,0,.06,.03,.09,.06l-.05-.04s.03,.01,.04,.02l.02,.02c2.02,1.6,3.31,4.08,3.31,6.87,0,3.88-5.01,10.6-8.49,11.77,0,0,15.99-5.02,15.99-14.02v-14.47h64.88c0-11.13-4.56-21.26-11.89-28.6Z"/>
          <rect class="cls-4" x="1292.76" y="804.55" width="23.99" height="44.99" rx="12" ry="12"/>
          <rect class="cls-8" x="1273.26" y="741.57" width="62.98" height="89.98" rx="31.49" ry="31.49"/>
          <path class="cls-13" d="M1283.01,779.81c0,3.31,2.69,6,6,6s6-2.69,6-6h-12Z"/>
          <path class="cls-4" d="M1275.22,788.06c-1.91,0-3.46,1.55-3.46,3.46v9.23c0,1.27,1.03,2.31,2.31,2.31h2.31c1.27,0,2.31-1.03,2.31-2.31v-9.23c0-1.91-1.55-3.46-3.46-3.46Z"/>
          <path class="cls-10" d="M1312.38,797.06c-8.49,11.32-2.01,23.47-2.01,23.47l15.75-.75-4.5-4.5,18.75,3.75-1.5-4.5,13.5-6-13.5-10.5h16.5l-9-6-1.11-14.47c0-11.13-4.56-21.26-11.89-28.6-7.33-7.33-17.47-11.89-28.6-11.89-11.71,0-22.31,5.05-29.71,13.08h0c.34,.78,2.83,28.91,32.83,33.41,0,0,13.5,1.5,4.5,13.5Z"/>
          <path class="cls-4" d="M1309.25,783.56h-1.38v15h1.38c4.14,0,7.5-3.36,7.5-7.5s-3.36-7.5-7.5-7.5Z"/>
          <path class="cls-15" d="M1280.14,809.84c-.41,.07-.76,.36-.89,.78-.18,.59,.15,1.22,.75,1.4,3.42,1.04,9.38,.06,9.64,.01,.61-.1,1.03-.68,.92-1.3s-.68-1.03-1.3-.92c-.06,0-5.69,.94-8.61,.05-.17-.05-.35-.06-.51-.03Z"/>
        </g>
        <g>
          <ellipse class="cls-14" cx="1310.24" cy="721.32" rx="4.5" ry="1.5"/>
          <path class="cls-14" d="M1312.84,764.2c-15.51-4.41-28.82-9.54-39.42-15.25l-24.67,7.71c-2.28,.7-2.91,3.58-1.18,5.22,7.45,7.02,27.64,19.79,65.28,2.32-15.51-4.41-28.82-9.54-39.42-15.25"/>
          <path class="cls-19" d="M1347.07,758.82c0,4.5-.79,8.8-2.25,12.81-29.47-5.53-54.09-13.35-71.41-22.67,4.32-15.93,18.88-27.62,36.17-27.62,20.71,0,37.49,16.78,37.49,37.49Z"/>
          <path class="cls-19" d="M1347.07,758.82c0,4.5-.79,8.8-2.25,12.81-29.47-5.53-54.09-13.35-71.41-22.67,4.32-15.93,18.88-27.62,36.17-27.62,20.71,0,37.49,16.78,37.49,37.49Z"/>
          <g>
            <path class="cls-1" d="M1276.37,747.4l3.86-7.53,1.96,1.01-3.86,7.53-1.97-1.01Z"/>
            <path class="cls-1" d="M1281.74,749.59c-.44-.6-.68-1.27-.73-2.01s.12-1.5,.48-2.29c.36-.78,.83-1.4,1.42-1.85s1.25-.7,2-.75,1.51,.1,2.31,.47c.5,.23,.95,.53,1.35,.9,.4,.37,.69,.75,.87,1.14l-1.27,1.13c-.43-.73-.97-1.25-1.64-1.56-.63-.29-1.19-.31-1.7-.07-.51,.24-.95,.75-1.3,1.53-.36,.78-.46,1.44-.31,1.99,.15,.55,.54,.97,1.16,1.25,.66,.3,1.41,.38,2.25,.23l-.03,1.7c-.41,.12-.89,.14-1.43,.08-.54-.06-1.06-.21-1.56-.44-.8-.37-1.42-.85-1.86-1.45Z"/>
            <path class="cls-1" d="M1287.58,752.68l3.17-7.84,5.57,2.25-.64,1.58-3.58-1.45-.6,1.49,3.36,1.36-.63,1.57-3.36-1.36-.66,1.62,3.58,1.45-.64,1.58-5.57-2.25Z"/>
          </g>
        </g>
      </g>
      <g>
        <g>
          <rect class="cls-9" x="1226.65" y="838.29" width="12.37" height="3.43"/>
          <path class="cls-9" d="M1239.02,838.29h-18.86c-.77,0-1.39-.63-1.39-1.41v-5.1c0-.81,.67-1.46,1.47-1.41l15.71,.89c1.72,.1,3.07,1.55,3.07,3.3v3.74Z"/>
        </g>
        <path class="cls-6" d="M1215.41,871.48h-1.54c-1.63,0-2.96-1.32-2.96-2.96v-16.98c0-1.63,1.32-2.96,2.96-2.96h1.54v22.89Z"/>
        <polygon class="cls-2" points="1199.66 871.48 1179.42 873.77 1179.42 846.31 1199.66 848.59 1199.66 871.48"/>
        <rect class="cls-18" x="1199.66" y="850.88" width="11.25" height="18.31"/>
        <rect class="cls-2" x="1215.41" y="841.73" width="26.99" height="36.62" rx="3.4" ry="3.4"/>
      </g>
      <path class="cls-3" d="M1326.65,909.53h-43.49v-53.24c0-12.01,9.74-21.74,21.74-21.74h0c12.01,0,21.74,9.74,21.74,21.74v53.24Z"/>
      <g>
        <rect class="cls-17" x="1288.41" y="909.53" width="20.99" height="125.97"/>
        <path class="cls-16" d="M1276.41,1035.49h32.99v-15h-23.99c-4.97,0-9,4.03-9,9v6Z"/>
      </g>
      <g>
        <rect class="cls-14" x="1301.91" y="909.53" width="20.99" height="125.97"/>
        <path class="cls-14" d="M1322.9,909.53h-34.49v4.5c0,7.45,12.76,13.5,28.49,13.5,2.06,0,4.06-.13,6-.32v-17.67Z"/>
        <path class="cls-12" d="M1289.91,1035.49h32.99v-15h-23.99c-4.97,0-9,4.03-9,9v6Z"/>
      </g>
      <rect class="cls-7" x="1288.41" y="909.53" width="34.49" height="6"/>
      <path class="cls-7" d="M1307.73,931.94l-6.88-1.78c-1.14-.29-1.94-1.35-1.94-2.56v-18.07h12v19.85c0,1.72-1.56,2.98-3.18,2.56Z"/>
      <path class="cls-11" d="M1310.82,918.52h-11.82c-.88,0-1.59-.71-1.59-1.59v-7.41h15v7.41c0,.88-.71,1.59-1.59,1.59Z"/>
      <g>
        <rect class="cls-5" x="1283.16" y="876.53" width="43.49" height="3"/>
        <rect class="cls-5" x="1283.16" y="885.53" width="43.49" height="3"/>
      </g>
      <path class="cls-8" d="M1282.41,905.03c-1.81,0-3.59-.54-5.11-1.59l-43.49-29.99,10.22-14.81,34.72,23.94,9.47-20.33,16.31,7.59-13.96,29.99c-1.12,2.4-3.24,4.19-5.79,4.88-.78,.21-1.57,.32-2.36,.32Z"/>
      <g>
        <rect class="cls-8" x="1224.08" y="849.21" width="18" height="28.49" rx="9" ry="9" transform="translate(-45.7 1657.65) rotate(-66.84)"/>
        <rect class="cls-8" x="1236.06" y="848.53" width="6" height="15" rx="3" ry="3" transform="translate(-229.55 522.5) rotate(-21.84)"/>
      </g>
      <rect class="cls-3" x="1290.42" y="847.7" width="20.6" height="18" transform="translate(-25.11 1674.01) rotate(-65.02)"/>
    </g>
  </g>
</svg>