<?xml version="1.0" encoding="UTF-8"?>
<svg xmlns="http://www.w3.org/2000/svg" viewBox="0 0 1920 1080">
  <defs>
    <style>
      .cls-1 {
        fill: #fff;
      }

      .cls-2 {
        fill: #73ddeb;
      }

      .cls-3 {
        fill: #191e3b;
      }

      .cls-4 {
        fill: #06062d;
      }

      .cls-5 {
        fill: #eaeef2;
      }

      .cls-6 {
        fill: #0e1223;
      }

      .cls-7 {
        fill: #05092a;
      }

      .cls-8 {
        fill: #d3dde5;
      }
    </style>
  </defs>
  <g id="Calque_2" data-name="Calque 2"/>
  <g id="Calque_1" data-name="Calque 1">
    <g>
      <g>
        <path class="cls-5" d="M1209.01,595.66c0,1.31-.15,2.63-.45,3.97l-.1,.49-4.56,20.05-4.44,19.53c-1.84,8.12-9.07,13.89-17.41,13.89h-44.11c-8.33,0-15.56-5.76-17.41-13.89l-4.44-19.53-4.66-20.54c-2.52-11.17,5.96-21.79,17.42-21.79h62.29c10.1,0,17.88,8.23,17.87,17.82Z"/>
        <path class="cls-8" d="M1203.9,620.16l-4.44,19.53c-1.84,8.12-9.07,13.89-17.41,13.89h-44.11c-8.33,0-15.56-5.76-17.41-13.89l-4.44-19.53h11.23c6.95,0,12.97-3.97,15.91-9.76l.85-1.99c2.94-5.81,8.96-9.79,15.92-9.79s12.98,3.98,15.92,9.79l.85,1.99c2.94,5.79,8.96,9.76,15.91,9.76h11.23Z"/>
        <rect class="cls-5" x="1094.65" y="785.76" width="50.5" height="8.91" rx="4.46" ry="4.46"/>
        <rect class="cls-7" x="1118.42" y="699.62" width="14.85" height="86.14"/>
        <rect class="cls-5" x="1109.5" y="726.35" width="32.67" height="53.47" rx="16.34" ry="16.34"/>
        <g>
          <circle class="cls-3" cx="1160" cy="614.97" r="7.43"/>
          <path class="cls-2" d="M1160,623.88c-4.91,0-8.91-4-8.91-8.91s4-8.91,8.91-8.91,8.91,4,8.91,8.91-4,8.91-8.91,8.91Zm0-14.85c-3.28,0-5.94,2.67-5.94,5.94s2.67,5.94,5.94,5.94,5.94-2.67,5.94-5.94-2.67-5.94-5.94-5.94Z"/>
        </g>
        <path class="cls-4" d="M1190.86,695.38c-5.64-11.86-17.75-19.52-30.86-19.52s-25.22,7.66-30.86,19.52l-13.41-6.37c8.08-17.01,25.46-28,44.27-28s36.19,10.99,44.27,28l-13.41,6.37Z"/>
        <path class="cls-5" d="M1151.74,683.28c-3.59,0-6.7-2.44-7.49-5.87l-3.37-14.67c-1.08-4.7,2.57-9.17,7.49-9.17h23.26c4.92,0,8.56,4.47,7.49,9.17l-3.37,14.67c-.79,3.43-3.9,5.87-7.49,5.87h-16.52Z"/>
        <path class="cls-5" d="M1125.84,720.41h0c9.02,0,16.34-7.31,16.34-16.34v-14.41c0-12.54-10.17-22.71-22.71-22.71h0c-5.5,0-9.96,4.46-9.96,9.96v27.17c0,9.02,7.31,16.34,16.34,16.34Z"/>
        <rect class="cls-5" x="1174.85" y="785.76" width="50.5" height="8.91" rx="4.46" ry="4.46"/>
        <rect class="cls-7" x="1186.73" y="699.62" width="14.85" height="86.14"/>
        <rect class="cls-5" x="1177.82" y="726.35" width="32.67" height="53.47" rx="16.34" ry="16.34"/>
        <path class="cls-5" d="M1194.16,720.41h0c-9.02,0-16.34-7.31-16.34-16.34v-14.41c0-12.54,10.17-22.71,22.71-22.71h0c5.5,0,9.96,4.46,9.96,9.96v27.17c0,9.02-7.31,16.34-16.34,16.34Z"/>
        <path class="cls-1" d="M1142.18,742.69v20.79c0,9.03-7.31,16.34-16.34,16.34v-53.47c9.03,0,16.34,7.31,16.34,16.34Z"/>
        <path class="cls-1" d="M1142.18,692.19v11.88c0,9.03-7.31,16.34-16.34,16.34v-11.88c0-9.03,7.31-16.34,16.34-16.34Z"/>
        <path class="cls-8" d="M1142.18,692.19v11.88c0,9.03-7.31,16.34-16.34,16.34v-11.88c0-9.03,7.31-16.34,16.34-16.34Z"/>
        <path class="cls-8" d="M1142.18,742.69v20.79c0,9.03-7.31,16.34-16.34,16.34v-53.47c9.03,0,16.34,7.31,16.34,16.34Z"/>
        <path class="cls-8" d="M1177.82,692.19v11.88c0,9.03,7.31,16.34,16.34,16.34v-11.88c0-9.03-7.31-16.34-16.34-16.34Z"/>
        <path class="cls-8" d="M1177.82,742.69v20.79c0,9.03,7.31,16.34,16.34,16.34v-53.47c-9.03,0-16.34,7.31-16.34,16.34Z"/>
        <g>
          <path class="cls-5" d="M1244.65,580.81c0,4.1-1.66,7.81-4.35,10.5-2.69,2.69-6.4,4.35-10.5,4.35h-23.76c-8.2,0-14.85-6.65-14.85-14.85,0-2.11,.45-4.13,1.25-5.94,.74-1.71,1.8-3.25,3.1-4.56,2.69-2.69,6.4-4.35,10.5-4.35h23.76c8.2,0,14.85,6.65,14.85,14.85Z"/>
          <rect class="cls-7" x="1216.44" y="595.66" width="14.6" height="72.99"/>
          <rect class="cls-7" x="1234.26" y="693.68" width="5.94" height="20.79"/>
          <rect class="cls-7" x="1220.35" y="718.24" width="20.79" height="5.94" transform="translate(-149.49 1081.51) rotate(-45)"/>
          <rect class="cls-7" x="1215.9" y="694.47" width="20.79" height="5.94" transform="translate(-133.99 1071.4) rotate(-45)"/>
          <path class="cls-5" d="M1240.15,702.59h0c-13.1,0-23.72-10.62-23.72-23.72v-35.69c0-8.2,6.65-14.85,14.85-14.85h0c8.2,0,14.85,6.65,14.85,14.85v53.42c0,3.31-2.68,5.98-5.98,5.98Z"/>
          <circle class="cls-5" cx="1237.23" cy="714.47" r="4.46"/>
          <path class="cls-8" d="M1219.41,595.66h-13.37c-8.2,0-14.85-6.65-14.85-14.85,0-.21,0-.43,.01-.64v-.15c.01-.24,.03-.48,.07-.7h11.79c9.03,0,16.34,7.31,16.34,16.34Z"/>
        </g>
        <g>
          <path class="cls-5" d="M1075.35,580.81c0,4.1,1.66,7.81,4.35,10.5,2.69,2.69,6.4,4.35,10.5,4.35h23.76c8.2,0,14.85-6.65,14.85-14.85,0-2.11-.45-4.13-1.25-5.94-.74-1.71-1.8-3.25-3.1-4.56-2.69-2.69-6.4-4.35-10.5-4.35h-23.76c-8.2,0-14.85,6.65-14.85,14.85Z"/>
          <rect class="cls-7" x="1088.97" y="595.66" width="14.6" height="72.99"/>
          <rect class="cls-7" x="1079.8" y="693.68" width="5.94" height="20.79"/>
          <rect class="cls-7" x="1086.28" y="710.81" width="5.94" height="20.79" transform="translate(-190.93 981.45) rotate(-45)"/>
          <rect class="cls-7" x="1090.74" y="687.05" width="5.94" height="20.79" transform="translate(-172.83 977.65) rotate(-45)"/>
          <path class="cls-5" d="M1079.85,702.59h0c13.1,0,23.72-10.62,23.72-23.72v-35.69c0-8.2-6.65-14.85-14.85-14.85h0c-8.2,0-14.85,6.65-14.85,14.85v53.42c0,3.31,2.68,5.98,5.98,5.98Z"/>
          <circle class="cls-5" cx="1082.77" cy="714.47" r="4.46"/>
          <path class="cls-8" d="M1100.59,595.66h13.37c8.2,0,14.85-6.65,14.85-14.85,0-.21,0-.43-.01-.64v-.15c-.01-.24-.03-.48-.07-.7h-11.79c-9.03,0-16.34,7.31-16.34,16.34Z"/>
        </g>
        <g>
          <path class="cls-5" d="M1121.41,554.45l2.61-44.14c.47-7.95,6.97-14.16,14.82-14.16h42.31c7.85,0,14.35,6.21,14.82,14.16l2.61,44.14c.51,8.66-6.27,15.96-14.82,15.96h-47.53c-8.55,0-15.33-7.31-14.82-15.96Z"/>
          <path class="cls-8" d="M1149.6,570.41h-13.37c-8.55,0-15.34-7.31-14.82-15.97l2.61-44.14c.46-7.95,6.97-14.15,14.82-14.15h13.37c-7.86,0-14.36,6.21-14.82,14.15l-2.61,44.14c-.52,8.66,6.27,15.97,14.82,15.97Z"/>
          <rect class="cls-7" x="1112.48" y="518.43" width="95.05" height="20.79" rx="10.4" ry="10.4"/>
          <path class="cls-3" d="M1195.97,510.31c-.47-7.95-6.97-14.15-14.82-14.15h-42.31c-7.85,0-14.35,6.21-14.82,14.15l-2.25,37.96c2.84,3.95,7.58,6.55,13,6.55h50.45c5.42,0,10.16-2.6,13-6.55l-2.25-37.96Z"/>
          <path class="cls-6" d="M1152.2,496.15c-7.86,0-14.36,6.21-14.82,14.15l-2.61,44.14c0,.12-.01,.25-.01,.37-5.41,0-10.14-2.6-12.98-6.53l2.24-37.98c.46-7.95,6.97-14.15,14.81-14.15h13.38Z"/>
        </g>
      </g>
      <g>
        <circle class="cls-2" cx="1149.98" cy="515.83" r="3.71"/>
        <circle class="cls-2" cx="1173" cy="515.83" r="3.71"/>
        <path class="cls-2" d="M1163.99,541.4c-16.25,0-22-5.52-22.28-5.8-.87-.87-.87-2.28,0-3.15,.86-.86,2.26-.87,3.13-.02,.17,.16,7.45,6.58,29.36,3.84,1.21-.15,2.33,.71,2.49,1.93,.15,1.22-.71,2.33-1.93,2.49-4.01,.5-7.59,.71-10.76,.71Z"/>
      </g>
    </g>
  </g>
</svg>