<?xml version="1.0" encoding="UTF-8"?>
<svg xmlns="http://www.w3.org/2000/svg" xmlns:xlink="http://www.w3.org/1999/xlink" viewBox="0 0 1920 1080">
  <defs>
    <style>
      .cls-1 {
        fill: #347a37;
      }

      .cls-2 {
        opacity: .7;
      }

      .cls-3 {
        fill: #ffa86c;
      }

      .cls-4 {
        fill: #005fd1;
      }

      .cls-5 {
        fill: #fd4b61;
      }

      .cls-6, .cls-7 {
        fill: #fff;
      }

      .cls-8 {
        fill: #2c5267;
      }

      .cls-9 {
        fill: #272c32;
      }

      .cls-10 {
        fill: #f9e79b;
      }

      .cls-11 {
        fill: #dd7b4a;
      }

      .cls-12 {
        opacity: .5;
      }

      .cls-13 {
        fill: #565656;
      }

      .cls-14 {
        fill: #ffde4e;
      }

      .cls-15 {
        fill: #fb6f58;
      }

      .cls-16 {
        fill: #894615;
      }

      .cls-17 {
        fill: #e2e2e2;
      }

      .cls-18 {
        opacity: .6;
      }

      .cls-19 {
        stroke: #4474e0;
      }

      .cls-19, .cls-20, .cls-7, .cls-21, .cls-22 {
        stroke-miterlimit: 10;
      }

      .cls-19, .cls-20, .cls-21, .cls-23, .cls-24, .cls-22 {
        fill: none;
      }

      .cls-19, .cls-21 {
        stroke-width: 3px;
      }

      .cls-19, .cls-21, .cls-23, .cls-22 {
        stroke-linecap: round;
      }

      .cls-25 {
        fill: #d4a696;
      }

      .cls-26 {
        fill: #f2925a;
      }

      .cls-27 {
        fill: #3aa439;
      }

      .cls-28 {
        fill: #71ebbe;
      }

      .cls-29 {
        fill: #952e3d;
      }

      .cls-30 {
        fill: #cbd1cd;
      }

      .cls-31 {
        fill: #a36032;
      }

      .cls-32 {
        fill: #482310;
      }

      .cls-20 {
        stroke: #e7e7e7;
      }

      .cls-33 {
        fill: #bababa;
      }

      .cls-34 {
        fill: #f38f55;
      }

      .cls-35 {
        fill: #151515;
      }

      .cls-36 {
        fill: #4062c1;
      }

      .cls-37 {
        fill: #f9c43a;
      }

      .cls-38 {
        fill: #ff5c2e;
      }

      .cls-39 {
        opacity: .2;
      }

      .cls-40 {
        fill: #75332e;
      }

      .cls-41 {
        opacity: .05;
      }

      .cls-42 {
        fill: #7c7c7c;
      }

      .cls-43 {
        fill: #e5b189;
      }

      .cls-44 {
        fill: #228250;
      }

      .cls-45 {
        fill: url(#Nouveau_motif_3);
      }

      .cls-46 {
        fill: #2ccc49;
      }

      .cls-47 {
        fill: #fea970;
      }

      .cls-7, .cls-21, .cls-22 {
        stroke: #2c5267;
      }

      .cls-7, .cls-22 {
        stroke-width: 2px;
      }

      .cls-48 {
        fill: #99704f;
      }

      .cls-49 {
        fill: #605a58;
      }

      .cls-50 {
        fill: #ffde9c;
      }

      .cls-51 {
        opacity: .8;
      }

      .cls-52 {
        fill: #d10d0d;
      }

      .cls-53 {
        fill: #dc3d4f;
      }

      .cls-54 {
        fill: #be8657;
      }

      .cls-55 {
        fill: #a068f6;
      }

      .cls-56 {
        fill: #c45c27;
      }

      .cls-57 {
        fill: #e7e7e7;
      }

      .cls-58 {
        fill: #bff7f7;
      }

      .cls-59 {
        fill: #ff6900;
      }

      .cls-60 {
        fill: #74562d;
      }

      .cls-61 {
        fill: #cf9361;
      }

      .cls-62 {
        opacity: .4;
      }

      .cls-63 {
        fill: #94989b;
      }

      .cls-64 {
        opacity: .3;
      }

      .cls-65 {
        fill: #424242;
      }

      .cls-66 {
        fill: #2b2b2b;
      }

      .cls-67 {
        fill: #251f1f;
      }

      .cls-68 {
        fill: #c3c7e0;
      }

      .cls-69 {
        fill: #dfe4e8;
      }

      .cls-70 {
        fill: #c56d24;
      }

      .cls-71 {
        fill: #0e5e36;
      }

      .cls-72 {
        fill: #c0d62b;
      }

      .cls-73 {
        fill: #ec513a;
      }

      .cls-74 {
        opacity: .1;
      }

      .cls-23 {
        stroke: #ee8e38;
        stroke-linejoin: round;
      }

      .cls-75 {
        fill: #dfd900;
      }

      .cls-76 {
        fill: #cb5922;
      }

      .cls-77 {
        fill: #d08234;
      }

      .cls-78 {
        fill: #999;
      }

      .cls-79 {
        fill: #91532a;
      }

      .cls-80 {
        fill: #d3c3dd;
      }

      .cls-81 {
        fill: #ccc;
      }

      .cls-82 {
        fill: #b37056;
      }

      .cls-83 {
        fill: url(#Nouveau_motif_4);
      }

      .cls-84 {
        fill: #dfae86;
      }

      .cls-85 {
        fill: #6d2218;
      }

      .cls-86 {
        fill: #7a4925;
      }

      .cls-87 {
        fill: #b3b3b3;
      }

      .cls-88 {
        fill: #35a438;
      }

      .cls-89 {
        fill: #2c2a2b;
      }

      .cls-90 {
        fill: #a7db4f;
      }

      .cls-91 {
        fill: #d3362d;
      }

      .cls-92 {
        fill: #1a1a1a;
      }

      .cls-93 {
        fill: #ffdb45;
      }

      .cls-94 {
        fill: #b83441;
      }

      .cls-95 {
        fill: #e3fbfb;
      }

      .cls-96 {
        fill: #861f1d;
      }

      .cls-97 {
        fill: #94130b;
      }

      .cls-98 {
        fill: #a1f4f8;
      }

      .cls-99 {
        fill: #e24f4b;
      }

      .cls-100 {
        fill: #d49e70;
      }

      .cls-101 {
        fill: #268efc;
      }

      .cls-102 {
        fill: #f2f2f2;
      }

      .cls-103 {
        fill: red;
      }

      .cls-104 {
        fill: #c3e1e5;
      }

      .cls-105 {
        fill: #379b64;
      }

      .cls-106 {
        fill: #4d58a9;
      }

      .cls-107 {
        fill: #3c3c3c;
      }

      .cls-108 {
        fill: #fe879b;
      }

      .cls-109 {
        fill: #5a4374;
      }

      .cls-110 {
        fill: #306030;
      }

      .cls-111 {
        fill: #c3d2ea;
      }
    </style>
    <pattern id="Nouveau_motif_4" data-name="Nouveau motif 4" x="0" y="0" width="160" height="120" patternTransform="translate(-1512 120)" patternUnits="userSpaceOnUse" viewBox="0 0 160 120">
      <g>
        <rect class="cls-24" width="160" height="120"/>
        <polygon class="cls-100" points="0 120 0 0 160 0 160 120 0 120"/>
        <rect class="cls-84" x="0" y="24.75" width="160" height="1.5"/>
        <rect class="cls-54" x="0" y="28.5" width="160" height="1.5"/>
        <rect class="cls-84" x="0" y="54.75" width="160" height="1.5"/>
        <rect class="cls-54" x="0" y="58.5" width="160" height="1.5"/>
        <rect class="cls-84" x="0" y="84.75" width="160" height="1.5"/>
        <rect class="cls-54" x="0" y="88.5" width="160" height="1.5"/>
        <rect class="cls-84" x="0" y="114.75" width="160" height="1.5"/>
        <rect class="cls-54" x="0" y="118.5" width="160" height="1.5"/>
        <rect class="cls-84" x="66" y="0" width="2" height="26.25"/>
        <rect class="cls-54" x="61" y="0" width="2" height="26.25"/>
        <rect class="cls-84" x="66" y="118.5" width="2" height="1.5"/>
        <rect class="cls-54" x="61" y="118.5" width="2" height="1.5"/>
        <rect class="cls-84" x="30" y="58.5" width="2" height="27.75"/>
        <rect class="cls-54" x="25" y="58.5" width="2" height="27.75"/>
        <rect class="cls-84" x="98" y="88.5" width="2" height="27.75"/>
        <rect class="cls-54" x="93" y="88.5" width="2" height="27.75"/>
        <rect class="cls-84" x="123" y="28.5" width="2" height="27.75"/>
        <rect class="cls-54" x="118" y="28.5" width="2" height="27.75"/>
        <polygon class="cls-48" points="66 118.5 160 118.5 160 116.25 98 116.25 98 88.5 160 88.5 160 86.25 30 86.25 30 58.5 160 58.5 160 56.25 123 56.25 123 28.5 160 28.5 160 26.25 66 26.25 66 0 63 0 63 26.25 0 26.25 0 28.5 120 28.5 120 56.25 0 56.25 0 58.5 27 58.5 27 86.25 0 86.25 0 88.5 95 88.5 95 116.25 0 116.25 0 118.5 63 118.5 63 120 66 120 66 118.5"/>
      </g>
    </pattern>
    <pattern id="Nouveau_motif_3" data-name="Nouveau motif 3" x="0" y="0" width="5" height="6" patternTransform="translate(-132 -1648.24) rotate(-10) scale(.96)" patternUnits="userSpaceOnUse" viewBox="0 0 5 6">
      <g>
        <rect class="cls-24" width="5" height="6"/>
        <rect class="cls-103" width="2.5" height="6"/>
        <rect class="cls-6" x="2.5" width="2.5" height="6"/>
      </g>
    </pattern>
  </defs>
  <g id="Calque_2" data-name="Calque 2"/>
  <g id="Calque_1" data-name="Calque 1">
    <g>
      <rect class="cls-25" width="1920" height="552"/>
      <rect class="cls-82" y="532" width="1920" height="20"/>
    </g>
    <rect class="cls-83" y="552" width="1920" height="528"/>
    <g>
      <g>
        <ellipse class="cls-97" cx="358" cy="804.5" rx="109" ry="8.5"/>
        <ellipse class="cls-97" cx="384.5" cy="813.5" rx="91.5" ry="5.5"/>
        <ellipse class="cls-97" cx="333.5" cy="828" rx="34.5" ry="3"/>
        <ellipse class="cls-97" cx="489.25" cy="790.5" rx="17.25" ry="1.5"/>
        <ellipse class="cls-97" cx="476.25" cy="820.5" rx="17.25" ry="1.5"/>
      </g>
      <g>
        <ellipse class="cls-97" cx="586" cy="856.04" rx="58" ry="5.04"/>
        <ellipse class="cls-97" cx="617" cy="850.43" rx="42" ry="3.65"/>
        <ellipse class="cls-97" cx="516.25" cy="869.5" rx="17.25" ry="1.5"/>
      </g>
      <g>
        <ellipse class="cls-97" cx="944" cy="819.5" rx="109" ry="8.5"/>
        <ellipse class="cls-97" cx="992.5" cy="827" rx="81.5" ry="4"/>
        <ellipse class="cls-97" cx="966.5" cy="835" rx="72.5" ry="7"/>
        <ellipse class="cls-97" cx="852" cy="852.5" rx="58" ry="3.5"/>
        <ellipse class="cls-97" cx="819" cy="858.5" rx="41" ry="4.5"/>
        <ellipse class="cls-97" cx="883.25" cy="870.5" rx="17.25" ry="1.5"/>
        <ellipse class="cls-97" cx="1056.25" cy="844.5" rx="10.25" ry="2.5"/>
      </g>
      <g>
        <ellipse class="cls-97" cx="745" cy="885.04" rx="58" ry="5.04"/>
        <ellipse class="cls-97" cx="752" cy="879.54" rx="42" ry="3.54"/>
        <ellipse class="cls-97" cx="687.25" cy="897.5" rx="10.25" ry="2.5"/>
      </g>
    </g>
    <g>
      <g>
        <rect class="cls-79" x="758" y="535" width="324" height="10"/>
        <rect class="cls-79" x="1068" y="545" width="14" height="100"/>
        <rect class="cls-79" x="758" y="545" width="14" height="100"/>
        <rect class="cls-61" x="748" y="421" width="344" height="100"/>
        <rect class="cls-31" x="748" y="521" width="344" height="14"/>
        <g>
          <rect class="cls-43" x="772.21" y="545.12" width="83.15" height="2.9"/>
          <rect class="cls-31" x="772.21" y="548.02" width="83.15" height="42.54"/>
          <rect class="cls-43" x="772.21" y="590.56" width="83.15" height="2.9"/>
          <rect class="cls-31" x="772.21" y="593.46" width="83.15" height="42.54"/>
          <circle class="cls-43" cx="813.78" cy="559.62" r="3.87"/>
          <circle class="cls-43" cx="813.78" cy="605.06" r="3.87"/>
        </g>
      </g>
      <g>
        <rect class="cls-6" x="1042" y="465" width="18" height="30" rx="7.5" ry="7.5"/>
        <path class="cls-69" d="M1042,476v-3.5c0-4.14,3.36-7.5,7.5-7.5h3c4.14,0,7.5,3.36,7.5,7.5v3.5h-18Z"/>
        <rect class="cls-6" x="1050.5" y="465" width="1" height="11"/>
      </g>
      <g>
        <rect class="cls-107" x="774" y="386" width="52" height="100"/>
        <g>
          <rect class="cls-13" x="779.91" y="391.95" width="40.18" height="8.33"/>
          <ellipse class="cls-9" cx="815.95" cy="396.12" rx="1.77" ry="1.79"/>
        </g>
        <g>
          <rect class="cls-13" x="779.91" y="403.86" width="40.18" height="8.33"/>
          <ellipse class="cls-9" cx="815.95" cy="408.02" rx="1.77" ry="1.79"/>
        </g>
        <g>
          <rect class="cls-13" x="779.91" y="415.76" width="40.18" height="8.33"/>
          <ellipse class="cls-9" cx="815.95" cy="419.93" rx="1.77" ry="1.79"/>
        </g>
        <path class="cls-66" d="M820.09,486h-40.18v-53.55c0-2.64,2.13-4.79,4.75-4.79h30.68c2.63,0,4.75,2.14,4.75,4.79v53.55Z"/>
        <path class="cls-13" d="M809.45,486h-18.91v-27.12c0-2.12,1.7-3.83,3.81-3.83h11.3c2.1,0,3.81,1.72,3.81,3.83v27.12Z"/>
        <g>
          <ellipse class="cls-4" cx="800" cy="440.76" rx="5.91" ry="5.95"/>
          <path class="cls-66" d="M800,445.52c-2.61,0-4.73-2.14-4.73-4.76s2.12-4.76,4.73-4.76,4.73,2.14,4.73,4.76-2.12,4.76-4.73,4.76Zm0-8.33c-1.96,0-3.55,1.6-3.55,3.57s1.59,3.57,3.55,3.57,3.55-1.6,3.55-3.57-1.59-3.57-3.55-3.57Z"/>
        </g>
        <rect class="cls-9" x="796.45" y="459.81" width="7.09" height="2.38"/>
        <rect class="cls-9" x="796.45" y="465.76" width="7.09" height="2.38"/>
        <rect class="cls-9" x="796.45" y="471.71" width="7.09" height="2.38"/>
      </g>
      <g>
        <rect class="cls-107" x="883.5" y="343" width="156" height="92"/>
        <rect class="cls-107" x="921.5" y="442" width="80" height="8"/>
        <polygon class="cls-107" points="947 442 949 435 974 435 976 442 947 442"/>
        <rect class="cls-13" x="921.5" y="450" width="80" height="4"/>
        <rect x="889.5" y="349" width="144" height="80"/>
        <rect class="cls-13" x="883.5" y="339" width="156" height="4"/>
      </g>
      <g>
        <rect class="cls-107" x="894.5" y="462" width="134" height="36"/>
        <rect class="cls-13" x="894.5" y="498" width="134" height="4"/>
        <g>
          <rect class="cls-30" x="897.5" y="465" width="6" height="6" rx=".75" ry=".75"/>
          <rect class="cls-6" x="897.5" y="465" width="6" height="5.62" rx=".75" ry=".75"/>
        </g>
        <g>
          <rect class="cls-30" x="905.5" y="465" width="6" height="6" rx=".75" ry=".75"/>
          <rect class="cls-6" x="905.5" y="465" width="6" height="5.62" rx=".75" ry=".75"/>
        </g>
        <g>
          <rect class="cls-30" x="913.5" y="465" width="6" height="6" rx=".75" ry=".75"/>
          <rect class="cls-6" x="913.5" y="465" width="6" height="5.62" rx=".75" ry=".75"/>
        </g>
        <g>
          <rect class="cls-30" x="921.5" y="465" width="6" height="6" rx=".75" ry=".75"/>
          <rect class="cls-6" x="921.5" y="465" width="6" height="5.62" rx=".75" ry=".75"/>
        </g>
        <g>
          <rect class="cls-30" x="929.5" y="465" width="6" height="6" rx=".75" ry=".75"/>
          <rect class="cls-6" x="929.5" y="465" width="6" height="5.62" rx=".75" ry=".75"/>
        </g>
        <g>
          <rect class="cls-30" x="937.5" y="465" width="6" height="6" rx=".75" ry=".75"/>
          <rect class="cls-6" x="937.5" y="465" width="6" height="5.62" rx=".75" ry=".75"/>
        </g>
        <g>
          <rect class="cls-30" x="945.5" y="465" width="6" height="6" rx=".75" ry=".75"/>
          <rect class="cls-6" x="945.5" y="465" width="6" height="5.62" rx=".75" ry=".75"/>
        </g>
        <g>
          <rect class="cls-30" x="953.5" y="465" width="6" height="6" rx=".75" ry=".75"/>
          <rect class="cls-6" x="953.5" y="465" width="6" height="5.62" rx=".75" ry=".75"/>
        </g>
        <g>
          <rect class="cls-30" x="961.5" y="465" width="6" height="6" rx=".75" ry=".75"/>
          <rect class="cls-6" x="961.5" y="465" width="6" height="5.62" rx=".75" ry=".75"/>
        </g>
        <g>
          <rect class="cls-30" x="969.5" y="465" width="6" height="6" rx=".75" ry=".75"/>
          <rect class="cls-6" x="969.5" y="465" width="6" height="5.62" rx=".75" ry=".75"/>
        </g>
        <g>
          <rect class="cls-30" x="977.5" y="465" width="6" height="6" rx=".75" ry=".75"/>
          <rect class="cls-6" x="977.5" y="465" width="6" height="5.62" rx=".75" ry=".75"/>
        </g>
        <g>
          <rect class="cls-30" x="985.5" y="465" width="14" height="6" rx=".75" ry=".75"/>
          <rect class="cls-6" x="985.5" y="465" width="14" height="5.62" rx=".75" ry=".75"/>
        </g>
        <g>
          <rect class="cls-30" x="897.5" y="473" width="10" height="6" rx=".75" ry=".75"/>
          <rect class="cls-6" x="897.5" y="473" width="10" height="5.62" rx=".75" ry=".75"/>
        </g>
        <g>
          <rect class="cls-30" x="909.5" y="473" width="6" height="6" rx=".75" ry=".75"/>
          <rect class="cls-6" x="909.5" y="473" width="6" height="5.62" rx=".75" ry=".75"/>
        </g>
        <g>
          <rect class="cls-30" x="917.5" y="473" width="6" height="6" rx=".75" ry=".75"/>
          <rect class="cls-6" x="917.5" y="473" width="6" height="5.62" rx=".75" ry=".75"/>
        </g>
        <g>
          <rect class="cls-30" x="925.5" y="473" width="6" height="6" rx=".75" ry=".75"/>
          <rect class="cls-6" x="925.5" y="473" width="6" height="5.62" rx=".75" ry=".75"/>
        </g>
        <g>
          <rect class="cls-30" x="933.5" y="473" width="6" height="6" rx=".75" ry=".75"/>
          <rect class="cls-6" x="933.5" y="473" width="6" height="5.62" rx=".75" ry=".75"/>
        </g>
        <g>
          <rect class="cls-30" x="941.5" y="473" width="6" height="6" rx=".75" ry=".75"/>
          <rect class="cls-6" x="941.5" y="473" width="6" height="5.62" rx=".75" ry=".75"/>
        </g>
        <g>
          <rect class="cls-30" x="949.5" y="473" width="6" height="6" rx=".75" ry=".75"/>
          <rect class="cls-6" x="949.5" y="473" width="6" height="5.62" rx=".75" ry=".75"/>
        </g>
        <g>
          <rect class="cls-30" x="957.5" y="473" width="6" height="6" rx=".75" ry=".75"/>
          <rect class="cls-6" x="957.5" y="473" width="6" height="5.62" rx=".75" ry=".75"/>
        </g>
        <g>
          <rect class="cls-30" x="965.5" y="473" width="6" height="6" rx=".75" ry=".75"/>
          <rect class="cls-6" x="965.5" y="473" width="6" height="5.62" rx=".75" ry=".75"/>
        </g>
        <g>
          <rect class="cls-30" x="973.5" y="473" width="6" height="6" rx=".75" ry=".75"/>
          <rect class="cls-6" x="973.5" y="473" width="6" height="5.62" rx=".75" ry=".75"/>
        </g>
        <g>
          <rect class="cls-30" x="981.5" y="473" width="6" height="6" rx=".75" ry=".75"/>
          <rect class="cls-6" x="981.5" y="473" width="6" height="5.62" rx=".75" ry=".75"/>
        </g>
        <g>
          <rect class="cls-30" x="897.5" y="481" width="6" height="6" rx=".75" ry=".75"/>
          <rect class="cls-6" x="897.5" y="481" width="6" height="5.62" rx=".75" ry=".75"/>
        </g>
        <g>
          <rect class="cls-30" x="905.5" y="481" width="6" height="6" rx=".75" ry=".75"/>
          <rect class="cls-6" x="905.5" y="481" width="6" height="5.62" rx=".75" ry=".75"/>
        </g>
        <g>
          <rect class="cls-30" x="913.5" y="481" width="6" height="6" rx=".75" ry=".75"/>
          <rect class="cls-6" x="913.5" y="481" width="6" height="5.62" rx=".75" ry=".75"/>
        </g>
        <g>
          <rect class="cls-30" x="921.5" y="481" width="6" height="6" rx=".75" ry=".75"/>
          <rect class="cls-6" x="921.5" y="481" width="6" height="5.62" rx=".75" ry=".75"/>
        </g>
        <g>
          <rect class="cls-30" x="929.5" y="481" width="6" height="6" rx=".75" ry=".75"/>
          <rect class="cls-6" x="929.5" y="481" width="6" height="5.62" rx=".75" ry=".75"/>
        </g>
        <g>
          <rect class="cls-30" x="937.5" y="481" width="6" height="6" rx=".75" ry=".75"/>
          <rect class="cls-6" x="937.5" y="481" width="6" height="5.62" rx=".75" ry=".75"/>
        </g>
        <g>
          <rect class="cls-30" x="945.5" y="481" width="6" height="6" rx=".75" ry=".75"/>
          <rect class="cls-6" x="945.5" y="481" width="6" height="5.62" rx=".75" ry=".75"/>
        </g>
        <g>
          <rect class="cls-30" x="953.5" y="481" width="6" height="6" rx=".75" ry=".75"/>
          <rect class="cls-6" x="953.5" y="481" width="6" height="5.62" rx=".75" ry=".75"/>
        </g>
        <g>
          <rect class="cls-30" x="961.5" y="481" width="6" height="6" rx=".75" ry=".75"/>
          <rect class="cls-6" x="961.5" y="481" width="6" height="5.62" rx=".75" ry=".75"/>
        </g>
        <g>
          <rect class="cls-30" x="969.5" y="481" width="6" height="6" rx=".75" ry=".75"/>
          <rect class="cls-6" x="969.5" y="481" width="6" height="5.62" rx=".75" ry=".75"/>
        </g>
        <g>
          <rect class="cls-30" x="977.5" y="481" width="6" height="6" rx=".75" ry=".75"/>
          <rect class="cls-6" x="977.5" y="481" width="6" height="5.62" rx=".75" ry=".75"/>
        </g>
        <g>
          <rect class="cls-30" x="985.5" y="481" width="6" height="6" rx=".75" ry=".75"/>
          <rect class="cls-6" x="985.5" y="481" width="6" height="5.62" rx=".75" ry=".75"/>
        </g>
        <g>
          <g>
            <rect class="cls-30" x="989.5" y="473" width="6" height="6" rx=".75" ry=".75"/>
            <rect class="cls-6" x="989.5" y="473" width="6" height="5.62" rx=".75" ry=".75"/>
          </g>
          <g>
            <rect class="cls-30" x="993.5" y="473" width="6" height="14" rx=".75" ry=".75"/>
            <rect class="cls-6" x="993.5" y="473" width="6" height="13.62" rx=".75" ry=".75"/>
          </g>
        </g>
        <g>
          <rect class="cls-30" x="897.5" y="489" width="6" height="6" rx=".75" ry=".75"/>
          <rect class="cls-6" x="897.5" y="489" width="6" height="5.62" rx=".75" ry=".75"/>
        </g>
        <g>
          <rect class="cls-30" x="905.5" y="489" width="6" height="6" rx=".75" ry=".75"/>
          <rect class="cls-6" x="905.5" y="489" width="6" height="5.62" rx=".75" ry=".75"/>
        </g>
        <g>
          <rect class="cls-30" x="913.5" y="489" width="6" height="6" rx=".75" ry=".75"/>
          <rect class="cls-6" x="913.5" y="489" width="6" height="5.62" rx=".75" ry=".75"/>
        </g>
        <rect class="cls-30" x="921.5" y="489" width="38" height="6" rx=".75" ry=".75"/>
        <rect class="cls-6" x="921.5" y="489" width="38" height="5.62" rx=".75" ry=".75"/>
        <g>
          <rect class="cls-30" x="961.5" y="489" width="6" height="6" rx=".75" ry=".75"/>
          <rect class="cls-6" x="961.5" y="489" width="6" height="5.62" rx=".75" ry=".75"/>
        </g>
        <g>
          <rect class="cls-30" x="969.5" y="489" width="6" height="6" rx=".75" ry=".75"/>
          <rect class="cls-6" x="969.5" y="489" width="6" height="5.62" rx=".75" ry=".75"/>
        </g>
        <g>
          <rect class="cls-30" x="977.5" y="489" width="6" height="6" rx=".75" ry=".75"/>
          <rect class="cls-6" x="977.5" y="489" width="6" height="5.62" rx=".75" ry=".75"/>
        </g>
        <g>
          <rect class="cls-30" x="985.5" y="489" width="6" height="6" rx=".75" ry=".75"/>
          <rect class="cls-6" x="985.5" y="489" width="6" height="5.62" rx=".75" ry=".75"/>
        </g>
        <g>
          <rect class="cls-30" x="993.5" y="489" width="6" height="6" rx=".75" ry=".75"/>
          <rect class="cls-6" x="993.5" y="489" width="6" height="5.62" rx=".75" ry=".75"/>
        </g>
        <g>
          <rect class="cls-30" x="1003.5" y="465" width="6" height="6" rx=".75" ry=".75"/>
          <rect class="cls-6" x="1003.5" y="465" width="6" height="5.62" rx=".75" ry=".75"/>
        </g>
        <g>
          <rect class="cls-30" x="1011.5" y="465" width="6" height="6" rx=".75" ry=".75"/>
          <rect class="cls-6" x="1011.5" y="465" width="6" height="5.62" rx=".75" ry=".75"/>
        </g>
        <g>
          <rect class="cls-30" x="1019.5" y="465" width="6" height="6" rx=".75" ry=".75"/>
          <rect class="cls-6" x="1019.5" y="465" width="6" height="5.62" rx=".75" ry=".75"/>
        </g>
        <g>
          <rect class="cls-30" x="1003.5" y="473" width="6" height="6" rx=".75" ry=".75"/>
          <rect class="cls-6" x="1003.5" y="473" width="6" height="5.62" rx=".75" ry=".75"/>
        </g>
        <g>
          <rect class="cls-30" x="1011.5" y="473" width="6" height="6" rx=".75" ry=".75"/>
          <rect class="cls-6" x="1011.5" y="473" width="6" height="5.62" rx=".75" ry=".75"/>
        </g>
        <g>
          <rect class="cls-30" x="1019.5" y="473" width="6" height="6" rx=".75" ry=".75"/>
          <rect class="cls-6" x="1019.5" y="473" width="6" height="5.62" rx=".75" ry=".75"/>
        </g>
        <g>
          <rect class="cls-30" x="1003.5" y="481" width="6" height="6" rx=".75" ry=".75"/>
          <rect class="cls-6" x="1003.5" y="481" width="6" height="5.62" rx=".75" ry=".75"/>
        </g>
        <g>
          <rect class="cls-30" x="1011.5" y="481" width="6" height="6" rx=".75" ry=".75"/>
          <rect class="cls-6" x="1011.5" y="481" width="6" height="5.62" rx=".75" ry=".75"/>
        </g>
        <g>
          <rect class="cls-30" x="1019.5" y="481" width="6" height="6" rx=".75" ry=".75"/>
          <rect class="cls-6" x="1019.5" y="481" width="6" height="5.62" rx=".75" ry=".75"/>
        </g>
        <g>
          <rect class="cls-30" x="1003.5" y="489" width="6" height="6" rx=".75" ry=".75"/>
          <rect class="cls-6" x="1003.5" y="489" width="6" height="5.62" rx=".75" ry=".75"/>
        </g>
        <g>
          <rect class="cls-30" x="1011.5" y="489" width="6" height="6" rx=".75" ry=".75"/>
          <rect class="cls-6" x="1011.5" y="489" width="6" height="5.62" rx=".75" ry=".75"/>
        </g>
        <g>
          <rect class="cls-30" x="1019.5" y="489" width="6" height="6" rx=".75" ry=".75"/>
          <rect class="cls-6" x="1019.5" y="489" width="6" height="5.62" rx=".75" ry=".75"/>
        </g>
      </g>
      <g>
        <path class="cls-106" d="M984.71,580h-57.41c-8.77,0-15.67-7.5-14.95-16.24l7.52-90.99c.64-7.78,7.15-13.77,14.95-13.77h42.37c7.81,0,14.31,5.99,14.95,13.77l7.52,90.99c.72,8.74-6.18,16.24-14.95,16.24Z"/>
        <rect class="cls-35" x="904" y="595" width="104" height="24" rx="12" ry="12"/>
        <g>
          <g>
            <path class="cls-35" d="M914,608h-20.96c-2.23,0-4.04-1.81-4.04-4.04v-36.96h6v33.96c0,.57,.46,1.04,1.04,1.04h17.96v6Z"/>
            <rect class="cls-106" x="884" y="563" width="16" height="8" rx="4" ry="4"/>
          </g>
          <g>
            <path class="cls-35" d="M998,608h20.96c2.23,0,4.04-1.81,4.04-4.04v-36.96h-6v33.96c0,.57-.46,1.04-1.04,1.04h-17.96v6Z"/>
            <rect class="cls-106" x="1012" y="563" width="16" height="8" rx="4" ry="4"/>
          </g>
        </g>
        <path class="cls-106" d="M1007.49,611h-102.99c-3.04,0-5.51-2.46-5.51-5.51v-2.6c0-7.12,5.77-12.9,12.9-12.9h88.21c7.12,0,12.9,5.77,12.9,12.9v2.6c0,3.04-2.46,5.51-5.51,5.51Z"/>
        <rect class="cls-35" x="943" y="580" width="26" height="10"/>
        <rect class="cls-35" x="947" y="619" width="18" height="16"/>
        <rect class="cls-35" x="949" y="645" width="14" height="16"/>
        <rect class="cls-35" x="951" y="635" width="10" height="10"/>
        <g>
          <path class="cls-35" d="M998.59,671.83l-39.59-12.05-3-.92-3,.92-39.59,12.05c-3.51,1.06-6.45,3.55-8.09,6.83l5.36,2.68c.91-1.81,2.54-3.18,4.47-3.77l37.85-11.52v13.95h6v-13.95l37.85,11.52c1.93,.59,3.56,1.96,4.47,3.77l5.36-2.68c-1.64-3.28-4.58-5.77-8.09-6.83Z"/>
          <circle class="cls-35" cx="1005" cy="683" r="5"/>
          <circle class="cls-35" cx="907" cy="683" r="5"/>
          <circle class="cls-35" cx="956" cy="683" r="5"/>
        </g>
        <path class="cls-35" d="M980.67,580h-49.35c-7.54,0-13.47-7.06-12.85-15.3l6.46-85.73c.55-7.33,6.14-12.97,12.85-12.97h36.42c6.71,0,12.3,5.64,12.85,12.97l6.46,85.73c.62,8.24-5.31,15.3-12.85,15.3Z"/>
      </g>
    </g>
    <g>
      <g>
        <g>
          <rect class="cls-61" x="86" y="599.5" width="24" height="7.5"/>
          <rect class="cls-31" x="86" y="607" width="24" height="170"/>
        </g>
        <g>
          <rect class="cls-61" x="550" y="619.5" width="24" height="7.5"/>
          <rect class="cls-31" x="550" y="627" width="24" height="150"/>
        </g>
        <rect class="cls-17" x="110" y="677" width="440" height="80"/>
        <rect class="cls-73" x="248" y="677" width="302" height="80"/>
        <path class="cls-6" d="M233.23,677c2.15,25.41,3.27,52.35,3.27,80h20c0-27.58-1.1-54.5-3.21-80h-20.07Z"/>
        <rect class="cls-6" x="110" y="657" width="80" height="20" rx="5" ry="5"/>
        <rect class="cls-79" x="110" y="747" width="440" height="10"/>
      </g>
      <g>
        <ellipse class="cls-97" cx="342.5" cy="724" rx="3.5" ry="10"/>
        <ellipse class="cls-97" cx="383" cy="705.5" rx="2" ry="4.5"/>
        <path class="cls-97" d="M418.15,677h-110.29c1.34,2.31,16.82,4.23,37.9,4.92-.2,.2-.31,.4-.31,.6,0,1.32,4.31,2.51,11.06,3.28,.17,9.61,2.13,17.19,4.54,17.19,1.88,0,3.49-4.65,4.19-11.27,1.85,.93,4.67,1.52,7.84,1.52,5.56,0,10.08-1.83,10.08-4.09,0-.94-.78-1.8-2.08-2.49,13.78-.38,24.18-2.09,24.18-4.15,0-.7-1.2-1.35-3.31-1.93,9.35-.93,15.39-2.19,16.21-3.59Z"/>
      </g>
    </g>
    <g>
      <path class="cls-1" d="M1649.07,503.82l-.96,.3c-8.01,2.53-23.89,16.09-24.05,16.22l-.65-.76c.63-.54,15.14-12.92,23.52-16.11-2.72-2.26-12.08-11.13-13.29-26.88l1-.08c1.38,17.89,13.48,26.63,13.6,26.72l.82,.58Z"/>
      <path class="cls-1" d="M1703.04,521.17l-2.22-.37c-.07-.01-7.09-1.08-23.71,5.85l-.38-.92c13.07-5.45,20.23-6.04,22.96-6-1.34-1.79-3.93-6.53-6.7-18.54l.97-.22c3.78,16.41,7.18,18.9,7.21,18.93l1.86,1.28Z"/>
      <path class="cls-1" d="M1623.09,497.68l-.33,.94c-1.58-.55-38.75-13.76-48.64-32.2l.88-.47c9.71,18.1,47.7,31.6,48.09,31.73Z"/>
      <path class="cls-1" d="M1587.89,489.35c-16.57-.28-32.73,10.63-32.89,10.74l-.56-.83c.16-.11,16.58-11.19,33.47-10.91l-.02,1Z"/>
      <path class="cls-1" d="M1576.73,486.76l-.45,.89c-.18-.09-17.72-8.74-35.12-9.22l.03-1c17.62,.49,35.36,9.24,35.54,9.33Z"/>
      <path class="cls-60" d="M1539.96,484.07s43.37-4.8,204.95,57.76l3.75-11.55s-140.73-47.57-208.7-46.21Z"/>
      <path class="cls-32" d="M1755.93,501.37c-.45,1.39-.55,2.79-.35,4.06-2.5,.3-4.9,2.41-5.9,5.47-.45,1.39-.55,2.79-.35,4.06-2.08,.25-4.08,1.74-5.27,4-2.17,.63-4.14,2.59-5.02,5.3-.94,2.91-.36,5.86,1.28,7.62-1.89,.81-3.55,2.63-4.34,5.05-.73,2.25-.54,4.53,.34,6.26-.37,.6-.67,1.25-.9,1.97-.94,2.91-.36,5.85,1.27,7.61-.64,.8-1.16,1.75-1.51,2.82-.45,1.4-.55,2.81-.35,4.09-.92,.92-1.67,2.12-2.12,3.52-1.02,3.14-.26,6.32,1.68,8.01-.71,3.58,.79,6.99,3.66,7.92,3.15,1.02,6.74-1.34,8.02-5.28l21.92-67.53c.82-2.52,.49-5.07-.68-6.85-.61-1.62-1.78-2.88-3.36-3.4-3.15-1.02-6.74,1.34-8.02,5.28Z"/>
      <g>
        <rect class="cls-77" x="1702.98" y="531.41" width="110" height="18" rx="9" ry="9" transform="translate(701.28 2045.71) rotate(-72.02)"/>
        <polygon class="cls-70" points="1858.35 535.66 1836.43 603.19 1752.5 586.46 1780.59 499.91 1858.35 535.66"/>
      </g>
      <path class="cls-1" d="M1664.14,426.98c-10.28,10.5-36.45,45.46,27.09,80.91,3.12,1.74,6.95-.51,6.91-4.08-.21-15.63-3.46-51.81-27.3-76.76-1.83-1.91-4.85-1.96-6.7-.07Z"/>
      <path class="cls-110" d="M1630.88,484.78c-15.58-15.11-50.47-55.48-13.94-84.88,2.56-2.06,6.37-1.37,8.03,1.47,7.07,12.11,22.94,44.56,14.94,80.74-.91,4.11-6,5.59-9.02,2.66Z"/>
      <path class="cls-110" d="M1546.08,576.08c-2.71-.06-5.17-1.55-6.52-3.9-4.67-8.14-13.24-30.79,19.03-52.33,0,0,20.89-13.17,38.86-16.19,4.06-.68,7.96,1.89,8.89,5.91,2.1,9.04,2.12,26.42-19.14,45.22-21.16,18.71-34.68,21.44-41.12,21.3Z"/>
      <path class="cls-1" d="M1520.71,549.54c-3.5,1.05-7.22-.76-8.5-4.19-3.2-8.63-6.04-26.25,12.7-44.84,0,0,9.57-9.15,31.95-8.76,4.73,.08,7.99,4.76,6.41,9.22-4.97,14.03-17.55,41.08-42.57,48.57Z"/>
      <path class="cls-110" d="M1469.38,493.08c-3.27-3.94-3.22-9.66,.08-13.58,8.66-10.3,27.92-28.96,53.8-28.94,35.74,.03,26.77,36.02,26.77,36.02,0,0-9.76,33.32-50.95,24.84,0,0-16.38-2.31-29.7-18.34Z"/>
      <path class="cls-1" d="M1567.78,472.91c-11.96-2.88-28.96-11.92-34.45-39.61-.06-.32-.14-.65-.22-.96-.86-3.17-5.7-22.65,1.75-33.73,7.54-11.2,33.68,26.13,37.44,31.61,.29,.42,.59,.82,.93,1.21,2.13,2.52,10.82,13.34,12.78,24.56,1.83,10.45-7.9,19.4-18.22,16.92Z"/>
      <path class="cls-110" d="M1686.2,531.69c1.39-4.63-1.24-9.53-5.9-10.83-15.89-4.42-52.45-10.4-72.84,20.1-26.57,39.74,13.57,35.94,13.57,35.94,0,0,52.9-4.35,65.18-45.22Z"/>
      <path class="cls-1" d="M1651.24,519.43s-2.95-52.47,18.85-15.96c0,0,9.97,14,14.85,39.07,.73,3.77-.95,7.61-4.22,9.63-8.29,5.13-24.73,12.49-36.81,.07-6.61-6.8-8.75-16.94-5.01-25.66,2.08-4.85,5.78-8.81,12.34-7.15Z"/>
      <path class="cls-27" d="M1627.8,520.54c.54-2.99-2.3-5.47-5.18-4.51-14.47,4.84-48.96,20.77-48.38,62.52,0,0-.21,9.36,8.98,20.48,1.07,1.3,2.85,1.76,4.43,1.19,7.56-2.71,28.65-15.89,40.16-79.69Z"/>
      <path class="cls-27" d="M1587.92,510.45s-5.86-20.83,2.27-32.91c0,0-8.97-14.48-.56-30.67,0,0,34.83,6.05,43.57,30.96,0,0-4.86,24.71-45.28,32.62Z"/>
      <path class="cls-27" d="M1530.71,508.63c1.71-4.06,7.46-9.66,22.28-16.88,0,0-1.26-34.99,9.86-30.38,10.76,4.46,12.1,16.74,5.17,39.08-.48,1.56-1.36,2.96-2.57,4.06-4.14,3.74-14.9,12.03-29.13,12.34-4.27,.1-7.27-4.28-5.61-8.22Z"/>
    </g>
    <g>
      <path class="cls-6" d="M655,173c-30.33,0-55,24.67-55,55s24.67,55,55,55,55-24.67,55-55-24.67-55-55-55h0Z"/>
      <path class="cls-8" d="M655,183c24.85,0,45,20.15,45,45s-20.15,45-45,45-45-20.15-45-45,20.15-45,45-45m0-10c-30.33,0-55,24.67-55,55s24.67,55,55,55,55-24.67,55-55-24.67-55-55-55h0Z"/>
      <line class="cls-23" x1="659.28" y1="220.58" x2="635.08" y2="262.49"/>
      <g>
        <line class="cls-19" x1="691.96" y1="212.69" x2="688.26" y2="214.22"/>
        <line class="cls-19" x1="621.74" y1="241.78" x2="618.04" y2="243.31"/>
        <line class="cls-19" x1="621.74" y1="214.22" x2="618.04" y2="212.69"/>
        <line class="cls-19" x1="691.96" y1="243.31" x2="688.26" y2="241.78"/>
        <line class="cls-19" x1="641.22" y1="261.26" x2="639.69" y2="264.96"/>
        <line class="cls-19" x1="670.31" y1="191.04" x2="668.78" y2="194.74"/>
        <line class="cls-19" x1="670.31" y1="264.96" x2="668.78" y2="261.26"/>
        <line class="cls-19" x1="641.22" y1="194.74" x2="639.69" y2="191.04"/>
        <line class="cls-19" x1="655" y1="268" x2="655" y2="260.5"/>
        <line class="cls-19" x1="655" y1="195.5" x2="655" y2="188"/>
        <line class="cls-19" x1="622.5" y1="228" x2="615" y2="228"/>
        <line class="cls-19" x1="695" y1="228" x2="687.5" y2="228"/>
        <line class="cls-19" x1="683.28" y1="256.28" x2="677.98" y2="250.98"/>
        <line class="cls-19" x1="632.02" y1="205.02" x2="626.72" y2="199.72"/>
        <line class="cls-19" x1="683.28" y1="199.72" x2="677.98" y2="205.02"/>
        <line class="cls-19" x1="632.02" y1="250.98" x2="626.72" y2="256.28"/>
      </g>
      <line class="cls-21" x1="650" y1="223" x2="668" y2="240"/>
      <line class="cls-22" x1="655" y1="192" x2="655" y2="237"/>
      <circle class="cls-7" cx="655" cy="228" r="5"/>
    </g>
    <g>
      <rect class="cls-61" x="274" y="376" width="265" height="29"/>
      <rect class="cls-31" x="274" y="405" width="265" height="14"/>
    </g>
    <g>
      <rect class="cls-61" x="167" y="263" width="265" height="29"/>
      <rect class="cls-31" x="167" y="292" width="265" height="14"/>
    </g>
    <g>
      <g>
        <rect class="cls-89" x="1351.35" y="254.11" width="140.9" height="193.91" transform="translate(1772.87 -1070.73) rotate(90)"/>
        <polygon class="cls-65" points="1324.85 421.52 1518.76 421.52 1518.76 280.62 1504.54 294.84 1339.07 407.3 1324.85 421.52"/>
        <rect class="cls-57" x="1339.07" y="294.84" width="165.47" height="112.47"/>
        <rect class="cls-20" x="1339.07" y="294.84" width="165.47" height="112.47"/>
        <rect class="cls-58" x="1378.5" y="281.26" width="86.61" height="139.61" transform="translate(1772.87 -1070.73) rotate(90)"/>
        <rect class="cls-36" x="1396.62" y="299.38" width="50.37" height="139.61" transform="translate(1790.99 -1052.62) rotate(90)"/>
        <path class="cls-50" d="M1352,394.37h139.61v-37.75c-25.39-.37-49.61,2.37-84.61,2.37s-55-1.58-55-1.58v36.96Z"/>
        <circle class="cls-37" cx="1465.5" cy="327.5" r="7.5"/>
      </g>
      <g>
        <rect class="cls-89" x="1465.2" y="172.89" width="75" height="103.21" transform="translate(1727.2 -1278.2) rotate(90)"/>
        <polygon class="cls-65" points="1451.09 262 1554.3 262 1554.3 187 1546.74 194.57 1458.66 254.43 1451.09 262"/>
        <rect class="cls-57" x="1458.66" y="194.57" width="88.07" height="59.86"/>
        <rect class="cls-20" x="1458.66" y="194.57" width="88.07" height="59.86"/>
        <rect class="cls-58" x="1479.65" y="187.34" width="46.1" height="74.31" transform="translate(1727.2 -1278.2) rotate(90)"/>
        <polygon class="cls-81" points="1514.32 229.46 1502.7 212.81 1483 224 1465.54 208.28 1465.54 247.55 1539.85 247.55 1539.85 212.85 1514.32 229.46"/>
        <polygon class="cls-81" points="1539.85 212.85 1539.85 247.55 1465.54 247.55 1465.54 208.28 1483 224 1502.7 212.81 1514.32 229.46 1539.85 212.85"/>
        <g>
          <polygon class="cls-6" points="1469 218 1473.09 215.08 1465.54 208.28 1465.54 216.73 1469 218"/>
          <polygon class="cls-6" points="1536 219 1539.85 217.55 1539.85 212.85 1532.83 217.42 1536 219"/>
          <polygon class="cls-6" points="1497 221 1501 219 1506 222 1508.15 220.62 1502.7 212.81 1491.78 219.01 1497 221"/>
        </g>
        <polygon class="cls-71" points="1539.85 233.98 1539.85 247.55 1465.54 247.55 1465.54 224.91 1470 236 1472 227 1475 235 1479.11 227.92 1481 235 1483 231 1484 237 1488 230 1489 239 1493 233 1495 241 1499 230 1501 236 1503 232 1506 238 1509 233 1512 241 1515 233 1517 238 1521 232 1522 238 1526 230 1528 238 1529 234 1532 240 1535 233 1536.34 239.23 1539 232 1539.85 233.98"/>
        <polygon class="cls-44" points="1539.85 235.93 1539.85 247.55 1465.54 247.55 1465.54 236.18 1467.72 240.94 1471.02 236.38 1471.82 239.62 1474.23 233.4 1477.8 240.01 1479.11 235.31 1482.79 240.33 1485.05 236.49 1487.63 243.03 1491.03 236.88 1493.77 241.04 1497.07 236.48 1498.86 239.78 1501.17 235.15 1504.97 243.16 1507 237.92 1510.55 242.76 1510.72 242.75 1512.15 235.86 1515.78 241.68 1517.08 236.98 1518.87 240.28 1521.12 234.79 1524.86 240.67 1528.27 234.52 1529.71 241.39 1530.05 241.36 1534.82 233.28 1537.82 238.82 1539.85 235.93"/>
        <polygon class="cls-105" points="1482.68 240.86 1484.52 247.55 1465.54 247.55 1465.54 245.25 1465.85 245.67 1470.8 239.79 1473.78 245.28 1476.15 241.98 1477.87 246.68 1482.68 240.86"/>
        <polygon class="cls-105" points="1489.5 242.92 1491.87 247.55 1485 247.55 1489.5 242.92"/>
        <polygon class="cls-105" points="1510.84 242.16 1514.79 247.55 1492.56 247.55 1497.21 240.15 1500.27 244.78 1502.64 241.48 1507.01 246.04 1510.24 242.34 1510.64 241.88 1510.84 242.16"/>
        <polygon class="cls-105" points="1539.85 244.22 1539.85 247.55 1515.39 247.55 1518.56 241.49 1521.55 245.33 1526.42 240.31 1528.16 245.01 1532.88 238.4 1536.08 244.62 1537.13 241.38 1539.85 244.22"/>
      </g>
      <g>
        <rect class="cls-89" x="1181.07" y="198.44" width="104.02" height="143.15" transform="translate(1503.09 -963.07) rotate(90)"/>
        <polygon class="cls-65" points="1161.5 322.02 1304.65 322.02 1304.65 218 1294.15 228.5 1172 311.52 1161.5 322.02"/>
        <rect class="cls-57" x="1172" y="228.5" width="122.15" height="83.03"/>
        <rect class="cls-20" x="1172" y="228.5" width="122.15" height="83.03"/>
        <rect class="cls-80" x="1201.11" y="218.48" width="63.94" height="103.07" transform="translate(1503.09 -963.07) rotate(90)"/>
        <rect class="cls-87" x="1223.59" y="240.96" width="18.98" height="103.07" transform="translate(1525.57 -940.59) rotate(90)"/>
        <polygon class="cls-52" points="1249 273 1246.6 264 1218.2 264 1215 273 1211 274 1211 284 1263 284 1263 274 1249 273"/>
        <g>
          <circle class="cls-92" cx="1221" cy="284" r="5"/>
          <circle class="cls-92" cx="1253" cy="284" r="5"/>
        </g>
        <g>
          <g>
            <polygon class="cls-58" points="1237 273 1247.97 273 1245.83 265 1236 265 1237 273"/>
            <polygon class="cls-58" points="1235 265 1225 265 1224 273 1236 273 1235 265"/>
          </g>
          <polygon class="cls-58" points="1224 265 1218.91 265 1216.06 273 1223 273 1224 265"/>
        </g>
      </g>
      <g>
        <rect class="cls-89" x="1324.91" y="116" width="106.09" height="146" transform="translate(2755.91 378) rotate(180)"/>
        <polygon class="cls-65" points="1324.91 262 1324.91 116 1431 116 1420.29 126.71 1335.61 251.29 1324.91 262"/>
        <rect class="cls-57" x="1315.66" y="146.66" width="124.59" height="84.68" transform="translate(1188.95 1566.95) rotate(-90)"/>
        <rect class="cls-20" x="1315.66" y="146.66" width="124.59" height="84.68" transform="translate(1188.95 1566.95) rotate(-90)"/>
        <rect class="cls-68" x="1345.35" y="136.44" width="65.21" height="105.12" transform="translate(2755.91 378) rotate(180)"/>
        <g>
          <g>
            <path class="cls-47" d="M1405.71,241.56h-55.52c0-8.23,3.85-15.6,9.91-20.49,1.8-1.47,3.8-2.72,5.95-3.7,3.61-1.66,7.64-2.58,11.9-2.58s8.29,.92,11.9,2.58c2.15,.98,4.14,2.23,5.95,3.7,6.06,4.9,9.91,12.26,9.91,20.49Z"/>
            <rect class="cls-34" x="1370.02" y="194.96" width="15.86" height="29.74" rx="7.93" ry="7.93"/>
          </g>
          <path class="cls-40" d="M1398.77,186.04h3.97v-22.87c0-5.44-4.47-9.85-9.98-9.85h-29.61c-5.51,0-9.98,4.41-9.98,9.85v22.87h3.97v-6.94c0-5.73,2.34-10.93,6.12-14.7,.3-.3,.61-.6,.93-.88,1.15-1.02,2.89-.92,4,.14,1.92,1.83,5.36,3.05,9.27,3.05,4.14,0,7.73-1.36,9.58-3.36,1.09-1.19,2.89-1.32,4.13-.3,4.64,3.82,7.6,9.61,7.6,16.05v6.94Z"/>
          <rect class="cls-3" x="1357.13" y="153.32" width="41.64" height="59.49" rx="20.82" ry="20.82"/>
          <g>
            <path class="cls-40" d="M1398.77,195.11c0-5.01-3.81-9.07-8.51-9.07h-24.63c-4.7,0-8.51,4.06-8.51,9.07v.44c0,12.27,9.32,22.21,20.82,22.21s20.82-9.94,20.82-22.21v-.44Z"/>
            <rect class="cls-40" x="1357.13" y="182.07" width="3.97" height="12.89"/>
            <rect class="cls-40" x="1394.81" y="182.07" width="3.97" height="12.89"/>
          </g>
          <g>
            <path class="cls-96" d="M1386.88,193.85c0,.69-.13,1.36-.38,1.98-.62,1.67-2.04,3.06-3.9,3.94-1.36,.65-2.95,1.02-4.65,1.02s-3.29-.37-4.65-1.02c-1.85-.87-3.27-2.27-3.9-3.94-.25-.62-.38-1.29-.38-1.98h17.85Z"/>
            <path class="cls-94" d="M1382.6,199.77c-1.36,.65-2.95,1.02-4.65,1.02s-3.29-.37-4.65-1.02c.68-1.14,2.51-1.95,4.65-1.95s3.97,.81,4.65,1.95Z"/>
            <path class="cls-6" d="M1386.88,193.85c0,.69-.13,1.36-.38,1.98h-17.09c-.25-.62-.38-1.29-.38-1.98h17.85Z"/>
          </g>
          <g>
            <path class="cls-85" d="M1363.58,182.57c0-2.19,1.78-3.97,3.97-3.97s3.97,1.78,3.97,3.97h-7.93Z"/>
            <path class="cls-85" d="M1392.33,182.57c0-2.19-1.78-3.97-3.97-3.97s-3.97,1.78-3.97,3.97h7.93Z"/>
          </g>
          <g>
            <rect class="cls-11" x="1372.5" y="184.55" width="10.91" height="2.97" rx="1.49" ry="1.49"/>
            <path class="cls-34" d="M1377.95,178.6c-2.19,0-3.97,1.78-3.97,3.97v4.96c0,1.1,.89,1.98,1.98,1.98h3.97c1.1,0,1.98-.89,1.98-1.98v-4.96c0-2.19-1.78-3.97-3.97-3.97Z"/>
          </g>
          <g>
            <path class="cls-26" d="M1398.77,181.08h.99c2.73,0,4.96,2.23,4.96,4.96,0,1.37-.56,2.6-1.46,3.5s-2.13,1.46-3.5,1.46h-.99"/>
            <path class="cls-26" d="M1357.13,191h-.99c-2.73,0-4.96-2.23-4.96-4.96,0-1.37,.56-2.6,1.46-3.5s2.13-1.46,3.5-1.46h.99"/>
          </g>
          <path class="cls-40" d="M1398.77,155.33c-1.67-1.25-3.75-2-6.01-2h-29.61c-2.26,0-4.34,.75-6.01,2v23.77c0-5.73,2.34-10.93,6.12-14.7,.3-.3,.61-.6,.93-.88,1.15-1.02,2.89-.92,4,.14,1.92,1.83,5.36,3.05,9.27,3.05,4.14,0,7.73-1.36,9.58-3.36,1.09-1.19,2.89-1.32,4.13-.3,4.64,3.82,7.6,9.61,7.6,16.05v-23.77Z"/>
          <g>
            <path class="cls-55" d="M1405.71,241.56h-55.52c0-9.2,4.82-17.31,12.14-22.12,1.19-.78,2.44-1.48,3.75-2.08,.31,6.29,5.5,11.31,11.87,11.31s11.56-5.03,11.87-11.31c1.31,.6,2.57,1.3,3.76,2.08,7.33,4.82,12.14,12.93,12.14,22.12Z"/>
            <g>
              <path class="cls-101" d="M1366.55,220.13v21.43h-.99v-23.95c.17-.08,.35-.17,.53-.25,.05,.96,.21,1.88,.47,2.77Z"/>
              <path class="cls-101" d="M1372.5,227.34v14.22h-.99v-14.79c.33,.21,.65,.4,.99,.57Z"/>
              <path class="cls-101" d="M1378.45,228.66v12.9h-.99v-12.9c.17,0,.33,0,.5,0s.33,0,.5,0Z"/>
              <path class="cls-101" d="M1384.4,226.77v14.79h-.99v-14.22c.34-.18,.66-.37,.99-.57Z"/>
              <path class="cls-101" d="M1396.29,221.47v20.09h-.99v-20.89c.34,.26,.67,.53,.99,.8Z"/>
              <path class="cls-101" d="M1402.24,228.6v12.96h-.99v-14.55c.35,.52,.68,1.05,.99,1.6Z"/>
              <path class="cls-101" d="M1390.35,217.61v23.95h-.99v-21.43c.26-.88,.42-1.8,.47-2.77,.18,.08,.36,.17,.53,.25Z"/>
              <path class="cls-101" d="M1360.6,220.68v20.88h-.99v-20.08c.33-.28,.65-.55,.99-.8Z"/>
              <path class="cls-101" d="M1354.65,227.02v14.54h-.99v-12.97c.31-.54,.63-1.06,.99-1.58Z"/>
            </g>
          </g>
        </g>
      </g>
    </g>
    <g>
      <rect class="cls-72" x="237" y="204" width="14" height="72"/>
      <rect class="cls-59" x="207.61" y="208.68" width="8" height="68" transform="translate(327.46 543.1) rotate(-160)"/>
      <g>
        <rect class="cls-91" x="251" y="214" width="16" height="62"/>
        <g>
          <rect class="cls-99" x="256" y="217" width="6" height="42"/>
          <rect class="cls-6" x="253" y="265" width="12" height="6"/>
        </g>
      </g>
      <g>
        <rect class="cls-37" x="267" y="212" width="10" height="64"/>
        <g>
          <rect class="cls-50" x="269" y="215" width="6" height="8"/>
          <rect class="cls-50" x="269" y="261" width="6" height="10"/>
        </g>
      </g>
      <g>
        <rect class="cls-108" x="227" y="212" width="10" height="64"/>
        <g>
          <rect class="cls-91" x="229" y="215" width="6" height="8"/>
          <rect class="cls-91" x="229" y="261" width="6" height="10"/>
        </g>
      </g>
    </g>
    <g>
      <rect class="cls-86" x="772" y="545" width="83" height="91"/>
      <g>
        <rect class="cls-31" x="775.77" y="548.77" width="75.45" height="33.2"/>
        <circle class="cls-43" cx="813.5" cy="560.09" r="3.77"/>
      </g>
      <g>
        <rect class="cls-31" x="775.77" y="585.75" width="75.45" height="46.25"/>
        <circle class="cls-43" cx="813.5" cy="597.06" r="3.77"/>
      </g>
    </g>
    <g>
      <g>
        <path class="cls-1" d="M358.91,219.48l-1.99-.12,1,.06-1-.06c.01-.22,.94-22.49-24.98-46.47l1.36-1.47c26.67,24.67,25.67,47.11,25.61,48.05Z"/>
        <path class="cls-1" d="M354.73,206.66c-3.87-9.32-18.71-15.87-18.86-15.94l.8-1.83c.64,.28,15.73,6.93,19.91,17l-1.84,.77Z"/>
        <path class="cls-1" d="M361.58,218.87c-3.08-27.46,3.63-37.04,10.73-47.2,5.09-7.27,10.34-14.79,12.57-29.61l1.97,.3c-2.3,15.29-7.69,23-12.91,30.46-6.88,9.83-13.38,19.12-10.38,45.83l-1.98,.22Z"/>
        <path class="cls-1" d="M366.89,184.42l-1.94-.45c3.88-16.72-1.88-28.54-1.94-28.66l1.79-.89c.25,.51,6.14,12.59,2.09,30Z"/>
        <path class="cls-1" d="M370.22,217.54l-1.98-.22c.03-.3,3.81-30.04,41.08-52.66l1.04,1.71c-36.44,22.12-40.1,50.89-40.13,51.18Z"/>
        <path class="cls-1" d="M378.36,196.98l-1.31-1.51c4.65-4.03,17.42-6.23,17.96-6.32l.33,1.97c-.13,.02-12.76,2.19-16.99,5.86Z"/>
        <path class="cls-110" d="M387.38,191.74s19.41-16.85,39.5-8.1c3.08,1.34,5.25,4.28,5.41,7.63,.2,4.1-2.41,8.67-15.81,7.52,0,0-9.98-1.33-15.31-3.99s-8.85-3.29-14.08-2.98"/>
        <path class="cls-1" d="M405.72,168.12s23.41-4.61,28.73-21.91c5.33-17.31-6.66-15.98-6.66-15.98,0,0-8.65-.67-13.98,17.31,0,0-3.88,14.87-8.1,20.58Z"/>
        <path class="cls-27" d="M382.73,152.73s15.55-18.1,9.03-34.99-15.11-8.44-15.11-8.44c0,0-7.21,4.83-.28,22.24,0,0,6.14,14.09,6.36,21.18Z"/>
        <path class="cls-1" d="M366.09,161.82s8.05-22.46-4.07-35.91c-12.13-13.45-17.13-2.48-17.13-2.48,0,0-5.01,7.09,7.69,20.88,0,0,10.77,10.96,13.51,17.51Z"/>
        <path class="cls-27" d="M360.25,186.18s5.85-23.13-7.52-35.34c-13.37-12.21-17.29-.81-17.29-.81,0,0-4.3,7.54,9.67,20.04,0,0,11.78,9.87,15.14,16.12Z"/>
        <path class="cls-1" d="M337.22,176.85s-4.61-23.41-21.92-28.73-15.97,6.66-15.97,6.66c0,0-.66,8.65,17.31,13.97,0,0,14.87,3.88,20.58,8.09Z"/>
        <path class="cls-110" d="M341.23,191.65s-14.4-19.02-32.29-16.22c-17.89,2.8-11.44,12.99-11.44,12.99,0,0,3.2,8.07,21.68,4.97,0,0,15.07-3.03,22.05-1.75Z"/>
        <path class="cls-1" d="M357.89,211.54s-14.47-18.97-32.35-16.11c-17.88,2.86-11.4,13.03-11.4,13.03,0,0,3.22,8.06,21.7,4.9,0,0,15.06-3.08,22.04-1.82Z"/>
        <path class="cls-1" d="M361.87,213.58s18.46-15.11,14.99-32.88-13.41-10.94-13.41-10.94c0,0-7.94,3.5-4.15,21.86,0,0,3.59,14.94,2.58,21.97Z"/>
        <path class="cls-110" d="M382.82,188.34s18.26-15.35,14.55-33.08c-3.71-17.72-13.55-10.76-13.55-10.76,0,0-7.9,3.6-3.86,21.91,0,0,3.79,14.89,2.86,21.93Z"/>
      </g>
      <g>
        <rect class="cls-77" x="325.49" y="216.1" width="73.22" height="11.98" rx="5.99" ry="5.99"/>
        <polygon class="cls-70" points="385.73 278 338.47 278 331.82 228.08 392.39 228.08 385.73 278"/>
      </g>
    </g>
    <g>
      <g>
        <path class="cls-98" d="M311.41,359.04s-.02,.02-.03,.02c-6.24,4.21-10.35,11.35-10.35,19.46,0,12.97,10.51,13.47,23.47,13.47s23.47-.51,23.47-13.47c0-8.11-4.11-15.25-10.35-19.46,0,0-.02-.02-.03-.02l.03,.02s-.02-.02-.03-.02c-4.68-4.28-7.61-10.45-7.61-17.29,0-2.75,.47-5.38,1.35-7.82h-13.65c.88,2.45,1.35,5.08,1.35,7.82,0,6.85-2.93,13.01-7.61,17.29,0,0-.02,.02-.03,.02"/>
        <rect class="cls-98" x="311.11" y="325" width="26.78" height="8.93" rx="4" ry="4"/>
      </g>
      <ellipse class="cls-95" cx="339" cy="370.5" rx="2.5" ry="9.15" transform="translate(-133.72 201.01) rotate(-27.82)"/>
    </g>
    <g>
      <ellipse class="cls-32" cx="1643" cy="615.5" rx="9" ry="3.5"/>
      <ellipse class="cls-32" cx="1710" cy="576" rx="9" ry="2"/>
      <ellipse class="cls-32" cx="1736.5" cy="611.5" rx="14.5" ry="7.5"/>
      <path class="cls-32" d="M1719,601.94c0-1.43-1.28-2.69-3.21-3.41,.13-.31,.21-.63,.21-.96,0-2.24-3.13-4.06-7-4.06-.58,0-1.15,.05-1.69,.12-1.5-1.53-5.32-2.62-9.81-2.62-3.32,0-6.28,.6-8.2,1.53-1.18-.18-2.46-.28-3.8-.28-3.47,0-6.54,.65-8.45,1.66-.92-.26-1.95-.41-3.05-.41-2.96,0-5.49,1.07-6.51,2.58-4.84,.36-8.49,2.01-8.49,3.99,0,2.12,4.18,3.85,9.53,4.04,1.05,1.48,3.55,2.52,6.47,2.52,1.74,0,3.32-.37,4.54-.98,.83,1.32,2.51,2.23,4.46,2.23,1.05,0,2.02-.26,2.82-.71,1.28,.82,3.12,1.34,5.18,1.34,.18,0,.35,0,.53-.02,1.05,1.48,3.55,2.52,6.47,2.52,2.21,0,4.18-.6,5.46-1.52,.95,.17,1.97,.27,3.04,.27,4.69,0,8.5-1.82,8.5-4.06,0-.14-.02-.27-.04-.4,1.84-.73,3.04-1.96,3.04-3.35Z"/>
    </g>
    <polygon class="cls-16" points="1798.19 508 1793 536 1803 534 1809 555 1817.62 540.41 1823 572 1838.98 539.82 1845.04 541.82 1838.75 526.65 1798.19 508"/>
    <g>
      <g class="cls-12">
        <path class="cls-67" d="M1778.09,789l-2.77,10.22s-3.26-.6-8.5,1.06-14.62,1.28-20-5.05c-5.38-6.33,1.45-12.04,5.21-12.47,4.49-.52,12.25-.91,26.06,6.24Z"/>
        <path class="cls-67" d="M1782.46,791.3l-3.67,9.25s7.6,6.12,12.57,2.87c3.38-2.21,2.58-5.53,.33-7.97-3-3.26-9.23-4.14-9.23-4.14Z"/>
      </g>
      <g class="cls-2">
        <path class="cls-67" d="M1875.3,795.66l-1.11,10.53s-3.32-.08-8.22,2.4c-4.91,2.48-14.23,3.59-20.55-1.8s-.48-12.11,3.16-13.14c4.34-1.23,11.95-2.84,26.72,2.01Z"/>
        <path class="cls-67" d="M1879.97,797.23l-2.15,9.71s8.48,4.83,12.86,.83c2.98-2.72,1.66-5.87-.95-7.92-3.48-2.74-9.77-2.62-9.77-2.62Z"/>
      </g>
      <g class="cls-64">
        <path class="cls-67" d="M1672.85,800.08l-.32,10.59s-3.32,.17-8.02,3.01-13.92,4.64-20.62-.26-1.39-12.04,2.17-13.34c4.24-1.55,11.71-3.73,26.79,.01Z"/>
        <path class="cls-67" d="M1677.63,801.29l-1.42,9.85s8.81,4.18,12.89-.13c2.77-2.94,1.22-5.98-1.53-7.83-3.68-2.47-9.94-1.88-9.94-1.88Z"/>
      </g>
      <g class="cls-74">
        <path class="cls-67" d="M1577.2,805.22l-3.02,10.15s-3.25-.68-8.52,.85c-5.28,1.53-14.65,.92-19.87-5.54-5.22-6.46,1.75-12,5.52-12.34,4.5-.41,12.27-.6,25.89,6.88Z"/>
        <path class="cls-67" d="M1581.51,807.62l-3.9,9.15s7.45,6.3,12.49,3.18c3.43-2.13,2.71-5.47,.52-7.96-2.92-3.33-9.12-4.36-9.12-4.36Z"/>
      </g>
      <g class="cls-18">
        <path class="cls-67" d="M1817.3,855.44l2.31-10.34s-3.17-.99-7.03-4.9c-3.86-3.91-12.34-7.94-20.05-4.84-7.71,3.1-4.32,11.33-1.2,13.46,3.73,2.55,10.42,6.51,25.96,6.61Z"/>
        <path class="cls-67" d="M1822.24,855.44l1.06-9.89s9.57-1.87,12.46,3.32c1.96,3.53-.3,6.1-3.42,7.21-4.17,1.49-10.09-.64-10.09-.64Z"/>
      </g>
      <g class="cls-51">
        <path class="cls-67" d="M1910.87,852.66l-1.79-10.44s-3.31,.29-8.36-1.86c-5.06-2.15-14.43-2.66-20.38,3.13-5.95,5.79,.31,12.12,4.01,12.91,4.42,.94,12.11,2.06,26.53-3.74Z"/>
        <path class="cls-67" d="M1915.44,850.79l-2.78-9.55s8.14-5.37,12.78-1.66c3.16,2.52,2.04,5.75-.43,7.97-3.3,2.96-9.58,3.25-9.58,3.25Z"/>
      </g>
      <g class="cls-39">
        <path class="cls-67" d="M1637.7,865.2l.31-10.59s-3.3-.37-7.83-3.47c-4.53-3.11-13.62-5.45-20.6-.95-6.98,4.5-2.09,11.94,1.38,13.45,4.14,1.8,11.47,4.41,26.75,1.56Z"/>
        <path class="cls-67" d="M1642.54,864.27l-.84-9.91s9.04-3.66,12.86,.89c2.6,3.09,.87,6.04-1.99,7.73-3.81,2.25-10.03,1.29-10.03,1.29Z"/>
      </g>
      <g class="cls-41">
        <path class="cls-67" d="M1526.1,857.58l2.57-10.27s-3.14-1.07-6.9-5.07c-3.76-4.01-12.14-8.25-19.92-5.35-7.78,2.9-4.61,11.21-1.54,13.43,3.66,2.64,10.25,6.77,25.79,7.27Z"/>
        <path class="cls-67" d="M1531.03,857.71l1.31-9.86s9.62-1.63,12.37,3.63c1.87,3.58-.45,6.09-3.6,7.12-4.21,1.38-10.07-.89-10.07-.89Z"/>
      </g>
      <g class="cls-62">
        <path class="cls-67" d="M1732.14,857.2l-2.35-10.33s-3.29,.47-8.45-1.41c-5.16-1.88-14.55-1.88-20.19,4.23-5.63,6.1,.96,12.09,4.69,12.68,4.46,.7,12.21,1.41,26.29-5.16Z"/>
        <path class="cls-67" d="M1736.6,855.09l-3.29-9.39s7.84-5.8,12.68-2.35c3.29,2.35,2.35,5.63,0,7.98-3.13,3.13-9.39,3.76-9.39,3.76Z"/>
      </g>
    </g>
    <g>
      <g>
        <rect class="cls-89" x="432.35" y="314.38" width="53.77" height="74" transform="translate(918.48 702.76) rotate(180)"/>
        <polygon class="cls-65" points="432.35 388.38 432.35 314.38 486.13 314.38 480.7 319.8 437.78 382.95 432.35 388.38"/>
        <rect class="cls-57" x="427.67" y="329.92" width="63.15" height="42.92" transform="translate(107.86 810.62) rotate(-90)"/>
        <rect class="cls-20" x="427.67" y="329.92" width="63.15" height="42.92" transform="translate(107.86 810.62) rotate(-90)"/>
        <rect class="cls-10" x="442.71" y="324.74" width="33.05" height="53.28" transform="translate(918.48 702.76) rotate(180)"/>
      </g>
      <g>
        <g>
          <g>
            <path class="cls-47" d="M472.7,378.02h-26.05c0-.19,.01-.37,.02-.55h0c.01-.25,.04-.49,.07-.72,.02-.16,.04-.33,.08-.49,0-.04,0-.08,.02-.12,.03-.2,.07-.4,.12-.59,0-.04,0-.08,.03-.11,0-.09,.03-.18,.06-.27,.01-.04,.03-.08,.04-.12,.01-.07,.03-.15,.06-.22,.07-.23,.14-.45,.22-.68,0-.04,.02-.08,.04-.12,.05-.13,.1-.26,.16-.39,.01-.05,.03-.09,.06-.14,.03-.08,.06-.15,.09-.22,.23-.52,.5-1.01,.81-1.49,.4-.64,.85-1.24,1.37-1.8,.24-.27,.49-.52,.76-.76,.2-.2,.41-.38,.63-.55,.05-.04,.09-.07,.14-.11,.02-.01,.03-.03,.05-.04h.01c.53-.41,1.08-.78,1.67-1.11,.03-.02,.06-.03,.09-.05,.21-.12,.43-.23,.65-.33,.06-.04,.13-.07,.19-.1,.14-.06,.28-.12,.42-.18,.47-.19,.95-.36,1.44-.5,.68-.2,1.36-.34,2.08-.43h0c.54-.07,1.08-.1,1.64-.1s1.1,.03,1.63,.1h.02c.72,.09,1.39,.23,2.07,.43,.95,.27,1.85,.64,2.69,1.1,.01,0,.01,.01,.01,.01,.03,.02,.06,.04,.1,.05h0l.06,.04c.56,.32,1.1,.67,1.61,1.07,.57,.44,1.1,.94,1.58,1.47,.22,.23,.43,.48,.63,.73,.25,.32,.48,.65,.7,.99,0,.02,.03,.05,.04,.07h.01c.11,.17,.21,.34,.3,.51,.02,.03,.04,.07,.05,.1,.09,.17,.18,.34,.27,.51,.1,.19,.19,.39,.27,.59,.03,.05,.05,.09,.06,.14,.06,.13,.11,.26,.16,.39,.1,.26,.19,.53,.26,.8,.03,.07,.05,.15,.06,.22,.01,.03,.02,.07,.03,.1,.03,.1,.06,.19,.07,.29,.02,.03,.03,.07,.03,.11,.05,.19,.09,.39,.12,.59,.02,.04,.02,.08,.02,.12,.04,.16,.06,.33,.08,.49,.03,.23,.06,.47,.07,.71h0c0,.19,.02,.37,.02,.56Z"/>
            <rect class="cls-34" x="455.95" y="356.42" width="7.45" height="13.97" rx="3.73" ry="3.73"/>
          </g>
          <g>
            <g>
              <path class="cls-29" d="M449.9,375.05v2.97h-3.25c0-.19,.01-.37,.02-.55h0c.01-.25,.04-.49,.07-.72,.02-.16,.04-.33,.08-.49,0-.04,0-.08,.02-.12,.03-.2,.07-.4,.12-.59,0-.04,0-.08,.03-.11,0-.09,.03-.18,.06-.27,.01-.04,.02-.08,.03-.12h2.82Z"/>
              <rect class="cls-53" x="449.9" y="375.05" width="3.26" height="2.97"/>
              <rect class="cls-29" x="453.16" y="375.05" width="3.26" height="2.97"/>
              <rect class="cls-53" x="456.42" y="375.05" width="3.26" height="2.97"/>
              <rect class="cls-29" x="459.68" y="375.05" width="3.26" height="2.97"/>
              <rect class="cls-53" x="462.94" y="375.05" width="3.26" height="2.97"/>
              <rect class="cls-29" x="466.2" y="375.05" width="3.25" height="2.97"/>
              <path class="cls-53" d="M472.7,378.02h-3.25v-2.97h2.82s.02,.07,.02,.1c.03,.1,.06,.19,.07,.29,.02,.03,.03,.07,.03,.11,.05,.19,.09,.39,.12,.59,.02,.04,.02,.08,.02,.12,.04,.16,.06,.33,.08,.49,.03,.23,.06,.47,.07,.71h0c0,.19,.02,.37,.02,.56Z"/>
              <path class="cls-53" d="M449.9,371.79v3.26h-2.81c.32-1.16,.81-2.26,1.44-3.26h1.37Z"/>
              <rect class="cls-5" x="449.9" y="371.79" width="3.26" height="3.26"/>
              <rect class="cls-53" x="453.16" y="371.79" width="3.26" height="3.26"/>
              <rect class="cls-5" x="456.42" y="371.79" width="3.26" height="3.26"/>
              <rect class="cls-53" x="459.68" y="371.79" width="3.26" height="3.26"/>
              <rect class="cls-5" x="462.94" y="371.79" width="3.26" height="3.26"/>
              <rect class="cls-53" x="466.2" y="371.79" width="3.26" height="3.26"/>
              <path class="cls-5" d="M472.27,375.05h-2.81v-3.26h1.37c.63,1,1.12,2.1,1.44,3.26Z"/>
              <path class="cls-29" d="M449.9,369.99v1.79h-1.37c.4-.64,.86-1.24,1.37-1.79Z"/>
              <path class="cls-53" d="M453.16,368.53v3.26h-3.26v-1.79c.48-.53,1.01-1.02,1.58-1.47h1.68Z"/>
              <rect class="cls-29" x="453.16" y="368.53" width="3.26" height="3.26"/>
              <path class="cls-53" d="M459.68,370.39v1.4h-3.26v-3.26h.04c.64,1.11,1.84,1.86,3.22,1.86Z"/>
              <path class="cls-29" d="M462.94,368.53v3.26h-3.26v-1.4c1.38,0,2.58-.75,3.22-1.86h.04Z"/>
              <rect class="cls-53" x="462.94" y="368.53" width="3.26" height="3.26"/>
              <path class="cls-29" d="M469.45,370v1.79h-3.26v-3.26h1.67c.57,.45,1.1,.94,1.59,1.47Z"/>
              <path class="cls-53" d="M470.83,371.79h-1.37v-1.79c.51,.55,.97,1.15,1.37,1.79Z"/>
              <path class="cls-5" d="M453.16,367.42v1.11h-1.68c.53-.41,1.09-.78,1.68-1.11Z"/>
              <path class="cls-53" d="M456.42,368.46v.07h-3.26v-1.11s.06-.03,.09-.05c.85-.47,1.75-.84,2.7-1.11v.41c0,.65,.17,1.27,.47,1.8Z"/>
              <path class="cls-5" d="M456.45,368.53h-.04v-.07s.02,.05,.04,.07Z"/>
              <path class="cls-53" d="M462.94,368.46v.07h-.04s.03-.04,.04-.07Z"/>
              <path class="cls-5" d="M466.2,367.42v1.1h-3.26v-.07c.3-.53,.47-1.15,.47-1.8v-.41c.95,.27,1.85,.64,2.69,1.11,0,0,0,0,0,0l.1,.06Z"/>
              <path class="cls-53" d="M467.87,368.53h-1.67v-1.1c.59,.33,1.15,.69,1.67,1.1Z"/>
            </g>
            <path class="cls-109" d="M466.66,371.79v-2.36c-.01-.31-.04-.61-.12-.9-.06-.34-.18-.66-.34-.96-.03-.07-.06-.14-.1-.2,0,0,0-.01-.01-.01-.57-.99-1.54-1.72-2.69-1.99v1.29c0,.14,0,.27-.03,.41v.05s0,.05-.01,.07c0,.04,0,.08-.02,.12,0,.02,0,.05-.02,.07,.01,.02,0,.04,0,.05,0,.02,0,.04-.02,.06,0,.05-.02,.09-.03,.13-.01,.04-.02,.07-.03,.1-.03,.11-.06,.22-.11,.33-.05,.13-.11,.26-.18,.39,0,0-.01,.01-.01,.02,0,.02-.03,.05-.04,.07-.02,.03-.03,.05-.06,.08,0,.03-.03,.05-.04,.08,0,.01,0,.02-.02,.03,0,0,0,.01-.01,.01-.01,.01-.01,.03-.02,.03t-.02,.03s-.01,.01-.01,.01c0,.02-.03,.04-.04,.06-.11,.16-.24,.3-.37,.44-.05,.05-.1,.1-.16,.15-.03,.03-.06,.06-.1,.09h-.02s-.03,.03-.04,.04c-.08,.06-.15,.12-.23,.17-.06,.04-.11,.08-.17,.11,0,.01-.02,.01-.03,.02l-.06,.03s-.03,.02-.05,.03c-.21,.11-.43,.21-.67,.28h-.01c-.11,.04-.23,.07-.34,.09-.06,.02-.12,.03-.18,.04h-.03s-.06,.01-.09,.01h-.05c-.13,.02-.26,.03-.4,.03s-.27-.01-.4-.02h-.05s-.07-.01-.1-.02c-.02,0-.03-.01-.05-.01-.04-.01-.09-.01-.13-.02t-.02-.01c-.12-.02-.24-.05-.35-.09h-.01c-.09-.03-.18-.06-.27-.1h0s-.05-.02-.07-.03c-.09-.03-.17-.07-.25-.12-.04-.01-.08-.04-.12-.06-.03-.02-.06-.03-.08-.05-.09-.05-.17-.1-.25-.16-.01-.01-.02-.02-.03-.02-.03-.02-.05-.04-.08-.06-.02-.01-.04-.03-.05-.04l-.02-.02s0,0-.02-.01c-.15-.12-.29-.25-.41-.39-.01,0-.01-.01-.01-.02,0,0,0-.01,0-.02-.08-.08-.15-.17-.21-.26-.03-.03-.06-.06-.07-.09,0-.02-.03-.04-.04-.06l-.02-.02s-.03-.05-.04-.08c-.03-.03-.04-.05-.06-.08l-.03-.06h0s-.05-.1-.07-.14t-.01-.02h0c-.04-.09-.07-.18-.11-.26-.04-.11-.08-.22-.11-.33-.02-.03-.03-.07-.03-.1-.01-.04-.03-.08-.03-.13,0-.02-.02-.04-.02-.06,0-.01-.01-.03,0-.05-.01-.02-.01-.05-.02-.07,0-.04-.02-.08-.02-.12-.01-.02-.01-.05-.01-.07v-.05c-.02-.13-.03-.27-.03-.41v-1.28c-1.14,.26-2.12,.99-2.7,1.98h0c-.03,.07-.07,.13-.09,.19-.17,.3-.29,.63-.36,.98-.08,.31-.12,.63-.12,.96v2.3l.02,2.82,.46-.14,3.26-1.01,1.45-.45,1.8-.56h.01l1.8,.54,1.46,.44,3.26,.98,.47,.14v-2.76Z"/>
            <circle class="cls-102" cx="459.68" cy="374.58" r=".93"/>
          </g>
        </g>
        <g>
          <rect class="cls-3" x="449.9" y="336.86" width="19.56" height="27.94" rx="9.78" ry="9.78"/>
          <g>
            <path class="cls-26" d="M469.45,349.9h.47c1.28,0,2.33,1.05,2.33,2.33,0,.64-.26,1.22-.68,1.64s-1,.68-1.64,.68h-.47v-4.66Z"/>
            <path class="cls-26" d="M449.9,354.56h-.47c-1.28,0-2.33-1.05-2.33-2.33,0-.64,.26-1.22,.68-1.64s1-.68,1.64-.68h.47v4.66Z"/>
          </g>
          <path class="cls-15" d="M461.54,353.16v-1.86c0-1.02-.84-1.86-1.86-1.86h0c-1.02,0-1.86,.84-1.86,1.86v1.86h3.73Z"/>
          <g>
            <circle class="cls-85" cx="454.79" cy="349.67" r="1.4"/>
            <circle class="cls-85" cx="464.57" cy="349.67" r="1.4"/>
          </g>
        </g>
        <path class="cls-56" d="M465.73,352.46h-12.11c-2.06,0-3.73,1.67-3.73,3.73,0,5.4,4.38,9.78,9.78,9.78s9.78-4.38,9.78-9.78c0-2.06-1.67-3.73-3.73-3.73Z"/>
        <path class="cls-56" d="M449.9,351.23v-4.59c0-.88,.13-1.74,.35-2.56h18.85c.22,.82,.35,1.68,.35,2.56v4.59c1.15-1.67,1.86-3.95,1.86-6.45s-1.04-5.02-2.73-6.82c-1.69-1.8-4.01-2.96-6.58-2.96h-4.66c-5.15,0-9.31,4.63-9.31,9.78,0,2.51,.72,4.78,1.86,6.45Z"/>
        <g>
          <path class="cls-96" d="M465.73,355.02c0,2.07-1.33,3.86-3.27,4.75-.83,.38-1.78,.6-2.78,.6s-1.95-.22-2.78-.6c-1.94-.89-3.27-2.69-3.27-4.75h12.11Z"/>
          <path class="cls-6" d="M465.73,355.02c0,.57-.1,1.13-.29,1.65h-11.52c-.19-.52-.29-1.08-.29-1.65h12.11Z"/>
          <path class="cls-94" d="M462.46,359.78c-.83,.38-1.78,.6-2.78,.6s-1.95-.22-2.78-.6c.12-.83,1.32-1.49,2.78-1.49s2.67,.66,2.78,1.49Z"/>
        </g>
      </g>
    </g>
    <g>
      <g>
        <rect class="cls-89" x="476.25" y="345" width="36.33" height="50" transform="translate(988.84 740) rotate(180)"/>
        <polygon class="cls-65" points="476.25 395 476.25 345 512.59 345 508.92 348.67 479.92 391.33 476.25 395"/>
        <rect class="cls-57" x="473.09" y="355.5" width="42.67" height="29" transform="translate(124.42 864.42) rotate(-90)"/>
        <rect class="cls-20" x="473.09" y="355.5" width="42.67" height="29" transform="translate(124.42 864.42) rotate(-90)"/>
        <rect class="cls-104" x="483.25" y="352" width="22.33" height="36" transform="translate(988.84 740) rotate(180)"/>
      </g>
      <g>
        <rect class="cls-76" x="485.59" y="358" width="17.66" height="24.2" rx="8.83" ry="8.83"/>
        <g>
          <g>
            <path class="cls-47" d="M503.57,388c-.03-2.68-1.29-5.07-3.27-6.67-.6-.48-1.25-.9-1.96-1.22-1.19-.55-2.52-.85-3.92-.85s-2.73,.3-3.92,.85c-.71,.32-1.37,.74-1.96,1.22-1.98,1.6-3.24,3.99-3.27,6.67h18.3Z"/>
            <rect class="cls-34" x="491.8" y="372.72" width="5.23" height="9.81" rx="2.62" ry="2.62"/>
          </g>
          <path class="cls-28" d="M503.57,388c-.03-2.68-1.29-5.07-3.27-6.67-.6-.48-1.25-.9-1.96-1.22-.11-.05-.22-.1-.33-.14v2.54c0,1.99-1.61,3.6-3.6,3.6s-3.6-1.61-3.6-3.6v-2.54c-.11,.04-.22,.09-.33,.14-.71,.32-1.37,.74-1.96,1.22-1.98,1.6-3.24,3.99-3.27,6.67h18.3Z"/>
        </g>
        <g>
          <rect class="cls-3" x="487.55" y="358.98" width="13.74" height="19.62" rx="6.87" ry="6.87"/>
          <g>
            <path class="cls-26" d="M501.29,368.14h.33c.9,0,1.64,.74,1.64,1.64,0,.45-.18,.86-.48,1.15s-.7,.48-1.15,.48h-.33"/>
            <path class="cls-26" d="M487.55,371.41h-.33c-.9,0-1.64-.74-1.64-1.64,0-.45,.18-.86,.48-1.15s.7-.48,1.15-.48h.33"/>
          </g>
          <path class="cls-15" d="M495.73,370.43v-1.31c0-.72-.59-1.31-1.31-1.31h0c-.72,0-1.31,.59-1.31,1.31v1.31h2.62Z"/>
          <g>
            <path class="cls-96" d="M498.67,371.74c0,1.45-.93,2.71-2.3,3.34-.59,.27-1.25,.42-1.96,.42s-1.37-.15-1.96-.42c-1.36-.62-2.3-1.89-2.3-3.34h8.5Z"/>
            <path class="cls-6" d="M498.67,371.74c0,.4-.07,.79-.21,1.16h-8.09c-.13-.36-.21-.76-.21-1.16h8.5Z"/>
            <path class="cls-94" d="M496.37,375.07c-.59,.27-1.25,.42-1.96,.42s-1.37-.15-1.96-.42c.08-.59,.93-1.05,1.96-1.05s1.87,.46,1.96,1.05Z"/>
          </g>
          <g>
            <circle class="cls-85" cx="490.98" cy="367.97" r=".98"/>
            <circle class="cls-85" cx="497.85" cy="367.97" r=".98"/>
          </g>
        </g>
        <path class="cls-76" d="M495.73,365.19c.89,1.01,2.11,1.64,3.47,1.64h4.06c0-4.88-3.95-8.83-8.83-8.83h0c-4.88,0-8.83,3.95-8.83,8.83h10.14v-1.64Z"/>
      </g>
    </g>
    <g>
      <g>
        <rect class="cls-89" x="399.34" y="351.91" width="36.76" height="50.58" transform="translate(794.92 -40.51) rotate(90)"/>
        <polygon class="cls-65" points="392.43 395.58 443.01 395.58 443.01 358.83 439.3 362.54 396.14 391.87 392.43 395.58"/>
        <rect class="cls-57" x="396.14" y="362.54" width="43.16" height="29.34"/>
        <rect class="cls-20" x="396.14" y="362.54" width="43.16" height="29.34"/>
        <rect class="cls-80" x="406.42" y="358.99" width="22.59" height="36.42" transform="translate(794.92 -40.51) rotate(90)"/>
      </g>
      <g>
        <g>
          <path class="cls-14" d="M414.08,374.37c0-1.61-.66-3.08-1.72-4.15s-2.53-1.72-4.15-1.72c-3.23,0-5.87,2.64-5.87,5.87l-.65,7.61h13.04l-.65-7.61Z"/>
          <g>
            <g>
              <path class="cls-47" d="M414.3,388.5h-12.17c0-1.8,.84-3.42,2.17-4.49,.4-.32,.83-.6,1.3-.81,.79-.36,1.68-.57,2.61-.57s1.82,.2,2.61,.57c.47,.22,.91,.49,1.3,.81,1.33,1.07,2.17,2.69,2.17,4.49Z"/>
              <rect class="cls-34" x="406.47" y="378.28" width="3.48" height="6.52" rx="1.74" ry="1.74"/>
            </g>
            <g>
              <path class="cls-33" d="M414.3,388.5h-12.17c0-1.71,.75-3.24,1.96-4.32,.07-.06,.14-.12,.21-.18,.4-.32,.83-.6,1.3-.81,.06-.03,.13-.06,.19-.08h0c.22-.09,.44-.17,.67-.24v.19c0,.13,.01,.25,.04,.37h0c.16,.1,.32,.2,.5,.29,.04,.02,.08,.04,.12,.06,.1,.05,.2,.08,.32,.12,.48,.15,1.01,.15,1.49,0,.05-.02,.1-.03,.15-.05,.05-.02,.09-.03,.13-.05,.03-.01,.06-.02,.08-.04,.06-.03,.12-.05,.17-.08,.04-.02,.07-.04,.11-.06,.11-.06,.21-.12,.31-.18h0c.03-.12,.04-.25,.04-.38v-.19c.23,.07,.46,.15,.67,.24h0c.06,.03,.13,.05,.19,.08,.47,.22,.91,.49,1.3,.81,.07,.06,.14,.12,.21,.18,1.21,1.07,1.96,2.61,1.96,4.32Z"/>
              <path class="cls-63" d="M413,382.63c0,.61-.25,1.16-.66,1.55-.39,.38-.93,.62-1.52,.62h-5.22c-.59,0-1.12-.23-1.52-.62-.41-.4-.66-.95-.66-1.55,0-1.2,.98-2.17,2.17-2.17h.87v.65h-1.09c-.54,0-.98,.44-.98,.98s.43,.98,.97,.98c.03,0,.07,0,.1,0,.03,0,.06,0,.09,0h0s.09,0,.13,.01c.03,0,.07,.01,.1,.02h0c.17,.04,.33,.11,.48,.19,.03,.02,.07,.04,.1,.06,.02,.01,.05,.03,.07,.04s.04,.03,.07,.04h0c.16,.1,.32,.2,.5,.29,.04,.02,.08,.04,.12,.06,.1,.05,.2,.08,.32,.12,.48,.15,1.01,.15,1.49,0,.05-.02,.1-.03,.15-.05,.05-.02,.09-.03,.13-.05,.03-.01,.06-.02,.08-.04,.06-.03,.12-.05,.17-.08,.04-.02,.07-.04,.11-.06,.11-.06,.21-.12,.31-.18h0c.07-.04,.14-.08,.21-.12,.07-.04,.14-.07,.21-.1,.1-.04,.2-.08,.3-.1,.01,0,.03,0,.04-.01,.04,0,.08-.02,.13-.02,.04,0,.08,0,.12-.01,.04,0,.09,0,.13,0,.53,0,.97-.44,.97-.98s-.44-.98-.98-.98h-1.09v-.65h.87c1.2,0,2.17,.98,2.17,2.17Z"/>
              <path class="cls-49" d="M406.47,383.07c0,.13,.01,.25,.04,.37h0l-.07-.04s-.04-.03-.07-.04c-.03-.02-.07-.04-.1-.06-.15-.08-.3-.15-.48-.19h0s-.07-.02-.1-.02c-.04,0-.08-.01-.13-.02-.03,0-.06,0-.09,0-.03,0-.07,0-.1,0-.53,0-.97-.44-.97-.98s.44-.98,.98-.98h1.09v1.96Z"/>
              <path class="cls-49" d="M412.02,382.09c0,.53-.43,.98-.97,.98-.05,0-.09,0-.13,0-.04,0-.08,0-.12,.01-.04,0-.09,.01-.13,.02-.02,0-.03,0-.04,0h0c-.11,.02-.2,.06-.3,.1-.07,.03-.14,.07-.21,.1-.07,.04-.14,.08-.21,.12h0c.03-.12,.04-.25,.04-.37v-1.96h1.09c.54,0,.98,.44,.98,.98Z"/>
              <g>
                <path class="cls-6" d="M406.91,384.48v4.02h-.65v-4.02c0-.18,.15-.33,.33-.33s.33,.15,.33,.33Z"/>
                <path class="cls-6" d="M410.17,384.48v4.02h-.65v-4.02c0-.18,.15-.33,.33-.33s.33,.15,.33,.33Z"/>
              </g>
            </g>
          </g>
          <g>
            <rect class="cls-3" x="403.65" y="369.15" width="9.13" height="13.04" rx="4.57" ry="4.57"/>
            <g>
              <path class="cls-26" d="M412.78,375.24h.22c.6,0,1.09,.49,1.09,1.09,0,.3-.12,.57-.32,.77s-.47,.32-.77,.32h-.22"/>
              <path class="cls-26" d="M403.65,377.41h-.22c-.6,0-1.09-.49-1.09-1.09,0-.3,.12-.57,.32-.77s.47-.32,.77-.32h.22"/>
            </g>
            <path class="cls-15" d="M409.08,376.76v-.87c0-.48-.39-.87-.87-.87h0c-.48,0-.87,.39-.87,.87v.87h1.74Z"/>
            <g>
              <path class="cls-96" d="M411.04,377.63c0,.97-.62,1.8-1.53,2.22-.39,.18-.83,.28-1.3,.28s-.91-.1-1.3-.28c-.91-.42-1.53-1.25-1.53-2.22h5.65Z"/>
              <path class="cls-6" d="M411.04,377.63c0,.27-.05,.53-.14,.77h-5.38c-.09-.24-.14-.5-.14-.77h5.65Z"/>
              <path class="cls-94" d="M409.51,379.85c-.39,.18-.83,.28-1.3,.28s-.91-.1-1.3-.28c.05-.39,.62-.7,1.3-.7s1.25,.31,1.3,.7Z"/>
            </g>
            <g>
              <circle class="cls-85" cx="405.93" cy="375.13" r=".65"/>
              <circle class="cls-85" cx="410.5" cy="375.13" r=".65"/>
            </g>
          </g>
          <path class="cls-14" d="M412.36,370.22c-1.06-1.06-2.53-1.72-4.15-1.72-3.23,0-5.87,2.64-5.87,5.87h6.74v-2.17l1.09,2.17h3.91c0-1.61-.66-3.08-1.72-4.15Z"/>
        </g>
        <g>
          <g>
            <g>
              <circle class="cls-76" cx="433.17" cy="371.33" r="2.61"/>
              <path class="cls-75" d="M431.5,369.32c-.11,.1-.22,.2-.31,.31-.39,.46-.63,1.05-.63,1.7,0,1.44,1.17,2.61,2.61,2.61,.14,0,.28-.01,.41-.03,.15-.02,.29-.06,.43-.11-.16-1.83-1.11-3.43-2.51-4.48Z"/>
            </g>
            <g>
              <circle class="cls-76" cx="422.3" cy="371.33" r="2.61"/>
              <path class="cls-75" d="M423.97,369.32c-1.4,1.04-2.35,2.65-2.51,4.48,.14,.05,.28,.08,.43,.11,.13,.02,.27,.03,.41,.03,1.44,0,2.61-1.17,2.61-2.61,0-.65-.24-1.24-.63-1.7-.09-.11-.2-.21-.31-.31Z"/>
            </g>
          </g>
          <g>
            <circle class="cls-76" cx="427.74" cy="374.37" r="5.87"/>
            <g>
              <path class="cls-47" d="M433.82,388.5h-12.17c0-1.8,.84-3.42,2.17-4.49,.4-.32,.83-.6,1.3-.81,.79-.36,1.68-.57,2.61-.57s1.82,.2,2.61,.57c.47,.22,.91,.49,1.3,.81,1.33,1.07,2.17,2.69,2.17,4.49Z"/>
              <rect class="cls-34" x="426" y="378.28" width="3.48" height="6.52" rx="1.74" ry="1.74"/>
            </g>
            <g>
              <rect class="cls-3" x="423.17" y="369.15" width="9.13" height="13.04" rx="4.57" ry="4.57"/>
              <g>
                <path class="cls-26" d="M432.3,375.24h.22c.6,0,1.09,.49,1.09,1.09,0,.3-.12,.57-.32,.77s-.47,.32-.77,.32h-.22v-2.17Z"/>
                <path class="cls-26" d="M423.17,377.41h-.22c-.6,0-1.09-.49-1.09-1.09,0-.3,.12-.57,.32-.77s.47-.32,.77-.32h.22v2.17Z"/>
              </g>
              <path class="cls-15" d="M428.61,376.76v-.87c0-.48-.39-.87-.87-.87h0c-.48,0-.87,.39-.87,.87v.87h1.74Z"/>
              <g>
                <path class="cls-96" d="M430.56,377.63c0,.97-.62,1.8-1.53,2.22-.39,.18-.83,.28-1.3,.28s-.91-.1-1.3-.28c-.91-.42-1.53-1.25-1.53-2.22h5.65Z"/>
                <path class="cls-6" d="M430.56,377.63c0,.27-.05,.53-.14,.77h-5.38c-.09-.24-.14-.5-.14-.77h5.65Z"/>
                <path class="cls-94" d="M429.04,379.85c-.39,.18-.83,.28-1.3,.28s-.91-.1-1.3-.28c.05-.39,.62-.7,1.3-.7s1.25,.31,1.3,.7Z"/>
              </g>
              <g>
                <circle class="cls-85" cx="425.45" cy="375.13" r=".65"/>
                <circle class="cls-85" cx="430.02" cy="375.13" r=".65"/>
              </g>
            </g>
            <path class="cls-76" d="M427.74,368.5c-1.84,0-3.49,.85-4.57,2.18v4.56c0-1.74,.98-3.25,2.42-4.02,1.28,2.39,3.81,4.02,6.71,4.02h0v-4.56c-1.08-1.33-2.72-2.18-4.57-2.18Z"/>
            <g>
              <path class="cls-111" d="M433.82,388.5h-12.17c0-1.8,.84-3.42,2.17-4.49,.07-.06,.15-.12,.22-.17,.27-.2,.56-.38,.86-.53,0,.06,0,.12,0,.19,0,.23,.03,.44,.09,.65,.12,.41,.34,.78,.64,1.08,.52,.53,1.27,.87,2.11,.87,.83,0,1.59-.34,2.1-.88,.29-.3,.51-.68,.63-1.09,.06-.21,.09-.43,.09-.65,0-.07,0-.13-.01-.19,.3,.15,.59,.33,.86,.53,.08,.06,.17,.13,.25,.19,1.33,1.07,2.17,2.69,2.17,4.49Z"/>
              <g>
                <path class="cls-93" d="M429.47,388.5h4.35c0-1.8-.85-3.42-2.17-4.49-.08-.07-.17-.13-.25-.19-.27-.2-.56-.38-.86-.53,0,.06,.01,.13,.01,.19,0,.23-.03,.44-.09,.65-.11,.41-.33,.78-.63,1.09-.11,.11-.23,.21-.36,.31v2.97Z"/>
                <path class="cls-93" d="M426,385.55c-.14-.1-.26-.2-.38-.32-.3-.3-.52-.67-.64-1.08-.06-.21-.09-.43-.09-.65,0-.07,0-.13,0-.19-.3,.15-.59,.33-.86,.53-.08,.05-.15,.11-.22,.17-1.33,1.07-2.17,2.69-2.17,4.49h4.35v-2.95Z"/>
              </g>
            </g>
          </g>
        </g>
        <g>
          <path class="cls-38" d="M423.32,379.95v-3.66c0-2.97-2.41-5.38-5.38-5.38s-5.38,2.41-5.38,5.38v3.66h-1.08c0,.95,.77,1.72,1.72,1.72h9.46c.95,0,1.72-.77,1.72-1.72h-1.08Z"/>
          <g>
            <g>
              <path class="cls-47" d="M423.42,388.5h-10.95s.03-.08,.06-.12c.18-.36,.4-.7,.66-1.02,0-.01,.01-.02,.02-.03,.13-.15,.26-.3,.4-.43,.15-.15,.31-.3,.47-.43,.23-.18,.48-.35,.73-.49,.05-.03,.1-.06,.16-.09,.07-.05,.14-.09,.21-.12,.06-.04,.13-.07,.19-.1,.06-.03,.12-.06,.19-.08,.02-.01,.05-.02,.08-.03,.15-.07,.31-.12,.48-.17,.04-.02,.07-.03,.11-.03,.54-.17,1.12-.25,1.72-.25s1.18,.08,1.72,.25c.05,.01,.09,.02,.13,.04,.17,.05,.34,.11,.5,.18,.08,.03,.15,.06,.23,.09,0,.01,0,.01,.02,.01,.08,.04,.15,.08,.23,.13,.05,.01,.09,.04,.13,.06,0,0,0,.01,0,.01l.32,.18c.18,.12,.36,.24,.52,.37l.11,.08c.15,.12,.29,.25,.42,.39,.12,.12,.24,.25,.35,.38l.12,.15c.11,.14,.22,.29,.32,.45,.1,.16,.19,.32,.28,.49,.02,.04,.04,.09,.06,.13Z"/>
              <rect class="cls-34" x="416.23" y="380.81" width="3.44" height="6.45" rx="1.72" ry="1.72"/>
            </g>
            <g>
              <path class="cls-46" d="M423.42,388.5h-10.95s.03-.08,.06-.12c.18-.36,.4-.7,.66-1.02,0-.01,.01-.02,.02-.03,.13-.15,.26-.3,.4-.43,.15-.15,.31-.3,.47-.43,.23-.18,.48-.35,.73-.49,.06-.03,.11-.08,.17-.11,.07-.04,.13-.07,.2-.1,.12-.07,.25-.13,.38-.18,.02-.01,.05-.02,.08-.03,.15-.07,.31-.12,.48-.17,.03-.02,.07-.03,.11-.04v.19c0,.95,.77,1.72,1.72,1.72s1.72-.77,1.72-1.72v-.19s.09,.03,.13,.05c.17,.05,.34,.11,.5,.18,.08,.03,.15,.06,.23,.09,0,.01,0,.01,.02,.01,.08,.04,.15,.08,.23,.13,.05,.01,.09,.04,.13,.06,0,0,0,.01,0,.01l.32,.18c.18,.12,.36,.24,.52,.37l.11,.08c.15,.12,.29,.25,.42,.39,.12,.12,.24,.25,.35,.38l.12,.15c.11,.14,.22,.29,.32,.45,.02,.02,.04,.05,.05,.07,.08,.14,.16,.28,.23,.42,.02,.04,.04,.09,.06,.13Z"/>
              <path class="cls-90" d="M421.17,386.82c0-.35-.1-.66-.25-.94,0,0,0-.01,0-.01-.27-.46-.71-.8-1.24-.92v.59c0,.95-.77,1.72-1.72,1.72s-1.72-.77-1.72-1.72v-.59c-.53,.12-.98,.46-1.25,.91h0s-.01,.02-.01,.03c-.16,.28-.26,.61-.25,.96v1.65h2.29l.1-.03,.83-.26,.84,.26,.1,.03h2.3v-1.68Z"/>
              <polygon class="cls-88" points="418.78 388.47 418.78 388.5 417.11 388.5 417.11 388.47 417.94 388.21 418.78 388.47"/>
            </g>
          </g>
          <g>
            <rect class="cls-3" x="413.43" y="371.78" width="9.03" height="12.9" rx="4.52" ry="4.52"/>
            <g>
              <path class="cls-26" d="M422.46,377.8h.22c.59,0,1.08,.48,1.08,1.08,0,.3-.12,.56-.32,.76s-.46,.32-.76,.32h-.22v-2.15Z"/>
              <path class="cls-26" d="M413.43,379.95h-.22c-.59,0-1.08-.48-1.08-1.08,0-.3,.12-.56,.32-.76s.46-.32,.76-.32h.22v2.15Z"/>
            </g>
            <path class="cls-15" d="M418.81,379.31v-.86c0-.47-.39-.86-.86-.86h0c-.47,0-.86,.39-.86,.86v.86h1.72Z"/>
            <g>
              <path class="cls-96" d="M420.74,380.17c0,.95-.61,1.78-1.51,2.2-.38,.18-.82,.28-1.29,.28s-.9-.1-1.29-.28c-.9-.41-1.51-1.24-1.51-2.2h5.59Z"/>
              <path class="cls-6" d="M420.74,380.17c0,.26-.05,.52-.14,.76h-5.32c-.09-.24-.14-.5-.14-.76h5.59Z"/>
              <path class="cls-94" d="M419.23,382.36c-.38,.18-.82,.28-1.29,.28s-.9-.1-1.29-.28c.05-.38,.61-.69,1.29-.69s1.23,.31,1.29,.69Z"/>
            </g>
            <g>
              <circle class="cls-85" cx="415.69" cy="377.69" r=".65"/>
              <circle class="cls-85" cx="420.2" cy="377.69" r=".65"/>
            </g>
          </g>
          <g>
            <path class="cls-38" d="M415.98,372.23c.34,.75,1.09,1.27,1.96,1.27s1.63-.52,1.96-1.27h-3.92Z"/>
            <path class="cls-38" d="M420.1,371.37c0,.31-.07,.6-.19,.86-.34,.75-1.09,1.27-1.96,1.27s-1.62-.52-1.96-1.27c-.12-.26-.19-.55-.19-.86,.66-.29,1.39-.45,2.15-.45s1.49,.16,2.15,.45Z"/>
            <path class="cls-38" d="M415.8,371.37c0,.31,.07,.6,.19,.86,.34,.75,1.09,1.27,1.96,1.27s1.63-.52,1.96-1.27c.12-.26,.19-.55,.19-.86h-4.3Z"/>
          </g>
          <g>
            <path class="cls-38" d="M420.74,379.31h-6.45v.86c0,.91,.4,1.75,1.08,2.36v1.94h.86v-2.35c-.65-.45-1.08-1.16-1.08-1.95h5.59c0,.79-.42,1.5-1.08,1.95v2.35h.86v-1.94c.68-.61,1.08-1.45,1.08-2.36v-.86h-.86Z"/>
            <rect class="cls-38" x="417.52" y="383.39" width=".86" height="1.72"/>
          </g>
        </g>
      </g>
    </g>
    <g>
      <path class="cls-42" d="M1375.75,372.81c-.27,.05-.53-.13-.58-.41l-3.47-19.7c-.05-.27,.13-.53,.41-.58s.53,.13,.58,.41l3.47,19.7c.05,.27-.13,.53-.41,.58Z"/>
      <path class="cls-45" d="M1370.8,344.74c-7.07,1.25-12.18,5.78-11.41,10.14,.14,.79,.89,1.31,1.67,1.17s1.31-.89,1.17-1.67c.14,.79,.89,1.31,1.67,1.17s1.31-.89,1.17-1.67c.14,.79,.89,1.31,1.67,1.17s1.31-.89,1.17-1.67c.14,.79,.89,1.31,1.67,1.17s1.31-.89,1.17-1.67c.14,.79,.89,1.31,1.67,1.17s1.31-.89,1.17-1.67c.14,.79,.89,1.31,1.67,1.17s1.31-.89,1.17-1.67c.14,.79,.89,1.31,1.67,1.17s1.31-.89,1.17-1.67c.14,.79,.89,1.31,1.67,1.17s1.31-.89,1.17-1.67c.14,.79,.89,1.31,1.67,1.17s1.31-.89,1.17-1.67c-.77-4.35-7.12-6.87-14.19-5.62Z"/>
    </g>
    <rect class="cls-78" x="1237" y="274" width="2" height=".5"/>
    <polygon class="cls-37" points="1263 279 1261 278 1261 275 1263 275 1263 279"/>
    <rect class="cls-78" x="1224" y="274" width="2" height=".5"/>
  </g>
</svg>