<?xml version="1.0" encoding="UTF-8"?>
<svg xmlns="http://www.w3.org/2000/svg" viewBox="0 0 1920 1080">
  <defs>
    <style>
      .cls-1 {
        fill: #8c4025;
      }

      .cls-2 {
        fill: #e07563;
      }

      .cls-3 {
        fill: #212854;
      }

      .cls-4 {
        fill: #f0917b;
      }

      .cls-5 {
        fill: #dfe3ec;
      }

      .cls-6 {
        fill: #ced1d8;
      }

      .cls-7 {
        fill: #6e6d68;
      }

      .cls-8 {
        fill: #464646;
      }

      .cls-9 {
        fill: #662719;
      }

      .cls-10 {
        fill: #6d2218;
      }

      .cls-11 {
        fill: #344982;
      }

      .cls-12 {
        fill: #fac531;
      }

      .cls-13 {
        fill: #861f1d;
      }

      .cls-14 {
        fill: #3c3048;
      }

      .cls-15 {
        fill: #293462;
      }

      .cls-16 {
        fill: #f2b696;
      }
    </style>
  </defs>
  <g id="Calque_2" data-name="Calque 2"/>
  <g id="Calque_1" data-name="Calque 1">
    <g>
      <g>
        <rect class="cls-7" x="716.19" y="701.76" width="42.02" height="9.01"/>
        <rect class="cls-7" x="1113.92" y="701.76" width="42.02" height="9.01"/>
        <rect class="cls-8" x="758.22" y="704.76" width="12.01" height="3"/>
        <rect class="cls-8" x="1101.91" y="704.76" width="12.01" height="3"/>
        <rect class="cls-7" x="770.22" y="701.76" width="331.69" height="9.01"/>
      </g>
      <g>
        <rect class="cls-9" x="677.17" y="572.69" width="24.01" height="45.03" rx="12.01" ry="12.01"/>
        <path class="cls-11" d="M712.04,677.75h-43.52v-53.28c0-12.02,9.74-21.76,21.76-21.76h0c12.02,0,21.76,9.74,21.76,21.76v53.28Z"/>
        <g>
          <rect class="cls-3" x="673.02" y="677.75" width="21.01" height="126.07"/>
          <path class="cls-6" d="M661.02,803.82h33.02v-15.01h-24.01c-4.97,0-9.01,4.03-9.01,9.01v6Z"/>
        </g>
        <g>
          <rect class="cls-15" x="686.53" y="677.75" width="21.01" height="126.07"/>
          <path class="cls-15" d="M707.54,677.75h-34.52v4.5c0,7.46,12.77,13.51,28.52,13.51,2.07,0,4.06-.13,6-.32v-17.69Z"/>
          <path class="cls-5" d="M674.52,803.82h33.02v-15.01h-24.01c-4.97,0-9.01,4.03-9.01,9.01v6Z"/>
        </g>
        <path class="cls-11" d="M728.32,695.91l-.91-45.42-34.67-27.19,11.12-14.17,38.04,29.84c2.13,1.67,3.4,4.22,3.45,6.93l.98,49.7-18.01,.31Z"/>
        <g>
          <rect class="cls-1" x="722.09" y="691.96" width="28.52" height="18.01" rx="9.01" ry="9.01" transform="translate(-81.83 1304.4) rotate(-80)"/>
          <rect class="cls-1" x="720.24" y="693.82" width="15.01" height="6" rx="3" ry="3" transform="translate(-268.07 543.44) rotate(-35)"/>
        </g>
        <g>
          <rect class="cls-5" x="704.38" y="618.6" width="18.01" height="18.88" transform="translate(-221.05 801.81) rotate(-51.89)"/>
          <rect class="cls-2" x="708.51" y="627.47" width="9.61" height="3" transform="translate(-223.37 793.42) rotate(-51.36)"/>
          <rect class="cls-2" x="711.44" y="623.26" width="3" height="10.67" transform="translate(-225.03 782.33) rotate(-50.71)"/>
        </g>
        <rect class="cls-1" x="657.66" y="509.65" width="63.04" height="90.05" rx="31.52" ry="31.52"/>
        <path class="cls-13" d="M662.87,579.27c-.58,0-1.08-.44-1.14-1.03-.06-.63,.4-1.19,1.02-1.25l11.44-1.14c.64-.05,1.19,.4,1.25,1.02,.06,.63-.4,1.19-1.02,1.25l-11.44,1.14s-.08,0-.12,0Z"/>
        <path class="cls-14" d="M717.8,517.05c-7.34-7.34-17.49-11.9-28.62-11.9-12.38,0-23.52,5.63-30.96,14.47-.27,4.77,1.8,9.97,9.2,14.27,8.34,4.86,14.11,8.82,17.94,11.78,5.09,3.9,6.83,6,6.83,6l3.66,14.53s15.85,10.99,33.86,12.49v-33.02c0-11.14-4.56-21.28-11.9-28.62Z"/>
        <path class="cls-14" d="M737.21,574.19v-24.01c0-5.8-4.7-10.51-10.51-10.51s-10.51,4.7-10.51,10.51v21.01c0,9.95,8.06,18.01,18.01,18.01h15.01l-12.01-15.01Z"/>
        <path class="cls-9" d="M693.68,551.68h-1.38v15.01h1.38c4.14,0,7.5-3.36,7.5-7.5s-3.36-7.5-7.5-7.5Z"/>
        <circle class="cls-10" cx="673.42" cy="550.93" r="2.25"/>
        <path class="cls-9" d="M656.23,566.79c.01,.85,.49,1.68,1.29,1.96,1.11,.38,2.41,.1,3.25-.86l2.99-3.42,.89-1.02c1.7-1.94,.32-4.99-2.26-4.99h-3.88c-1.31,0-2.37,1.07-2.35,2.38l.07,5.94Z"/>
      </g>
      <g>
        <g>
          <rect class="cls-4" x="1167.96" y="572.69" width="24.01" height="45.03" rx="12.01" ry="12.01"/>
          <rect class="cls-16" x="1148.45" y="509.65" width="63.04" height="90.05" rx="31.52" ry="31.52"/>
          <circle class="cls-10" cx="1164.21" cy="547.93" r="2.25"/>
          <path class="cls-12" d="M1157.45,517.16c-6.6,0-12.01-5.4-12.01-12.01h33.99c11.14,0,21.28,4.56,28.62,11.9,7.34,7.34,11.9,17.48,11.9,28.62v25.29c0,4.23-3.93,7.4-8.05,6.45-14.43-3.32-25.81-11.21-25.81-11.21l-3.13-14.53s-2.27-2.1-7.36-6c-3.83-2.96-9.59-6.92-17.94-11.78-7.4-4.31-12.49-11.96-12.22-16.73h12.01"/>
          <path class="cls-4" d="M1184.35,551.68h-1.38v15.01h1.38c4.14,0,7.5-3.36,7.5-7.5s-3.36-7.5-7.5-7.5Z"/>
          <path class="cls-4" d="M1148.45,568.19h0c4.13,0,7.5-3.38,7.5-7.5h0c0-.83-.67-1.5-1.5-1.5h-6c-.83,0-1.5,.67-1.5,1.5v6c0,.83,.67,1.5,1.5,1.5Z"/>
          <path class="cls-13" d="M1156.33,578.59c-.41,0-.81-.23-1.01-.62-.28-.56-.05-1.23,.5-1.51,3.2-1.6,9.25-1.62,9.51-1.62,.62,0,1.13,.5,1.13,1.13s-.5,1.13-1.13,1.13c-.06,0-5.77,.02-8.5,1.38-.16,.08-.33,.12-.5,.12Z"/>
        </g>
        <path class="cls-11" d="M1148.63,705.26l-14.36-10.87,7.18,5.44-7.19-5.42c.22-.3,22.45-30.27,29.82-75.57l17.78,2.89c-8.12,49.92-32.21,82.19-33.23,83.53Z"/>
        <path class="cls-11" d="M1202.98,677.75h-43.52v-53.28c0-12.02,9.74-21.76,21.76-21.76h0c12.02,0,21.76,9.74,21.76,21.76v53.28Z"/>
        <g>
          <rect class="cls-3" x="1163.96" y="677.75" width="21.01" height="126.07"/>
          <path class="cls-6" d="M1151.96,803.82h33.02v-15.01h-24.01c-4.97,0-9.01,4.03-9.01,9.01v6Z"/>
        </g>
        <g>
          <rect class="cls-15" x="1177.47" y="677.75" width="21.01" height="126.07"/>
          <path class="cls-15" d="M1198.48,677.75h-34.52v4.5c0,7.46,12.77,13.51,28.52,13.51,2.07,0,4.06-.13,6-.32v-17.69Z"/>
          <path class="cls-5" d="M1165.46,803.82h33.02v-15.01h-24.01c-4.97,0-9.01,4.03-9.01,9.01v6Z"/>
        </g>
        <g>
          <path class="cls-5" d="M1175.08,650.41l-17.2-5.35c1.9-6.09,3.51-12.37,4.81-18.65l17.64,3.63c-1.41,6.86-3.18,13.72-5.25,20.37Z"/>
          <g>
            <polygon class="cls-2" points="1173.49 640.79 1164.07 637.92 1164.85 635.03 1174.27 637.9 1173.49 640.79"/>
            <rect class="cls-2" x="1164.24" y="636.48" width="9.49" height="3" transform="translate(193.8 1544.92) rotate(-71.55)"/>
          </g>
        </g>
        <g>
          <rect class="cls-16" x="1122.76" y="696.04" width="28.52" height="18.01" rx="9.01" ry="9.01" transform="translate(-155.01 1052.25) rotate(-46.84)"/>
          <rect class="cls-16" x="1124.58" y="693.87" width="15.01" height="6" rx="3" ry="3" transform="translate(-21.84 36.79) rotate(-1.84)"/>
        </g>
      </g>
    </g>
  </g>
</svg>