<?xml version="1.0" encoding="UTF-8"?>
<svg xmlns="http://www.w3.org/2000/svg" viewBox="0 0 1920 1080">
  <defs>
    <style>
      .cls-1 {
        fill: #f9c43a;
      }

      .cls-2 {
        fill: #c99728;
      }
    </style>
  </defs>
  <g id="Calque_2" data-name="Calque 2"/>
  <g id="Calque_1" data-name="Calque 1">
    <g>
      <g>
        <polygon class="cls-2" points="1648 831 1678 831 1668 791 1638 791 1648 831"/>
        <polygon class="cls-1" points="1658 831 1628 831 1638 791 1668 791 1658 831"/>
      </g>
      <path d="M1646.88,818.19c-1.14,0-2.12-.14-2.93-.41-.81-.27-1.47-.62-1.98-1.06-.51-.43-.89-.89-1.14-1.39-.25-.49-.38-.96-.4-1.42,0-.13,.05-.24,.14-.33s.21-.13,.34-.13h2.86c.18,0,.32,.03,.42,.1,.1,.07,.2,.17,.29,.32,.12,.28,.29,.51,.52,.68s.5,.3,.83,.36c.32,.07,.67,.1,1.06,.1,.75,0,1.33-.17,1.75-.52s.63-.82,.63-1.42-.2-1.08-.59-1.35c-.4-.27-.96-.41-1.69-.41h-2.44c-.16,0-.29-.05-.4-.15-.1-.1-.15-.23-.15-.4v-1.23c0-.18,.04-.33,.11-.46,.07-.13,.15-.23,.24-.29l3.61-3.06h-6.12c-.15,0-.27-.05-.38-.15s-.17-.23-.17-.4v-2.07c0-.16,.05-.29,.17-.4s.24-.15,.38-.15h10.12c.16,0,.3,.05,.41,.15,.11,.1,.17,.24,.17,.4v1.87c0,.16-.04,.3-.11,.43s-.15,.22-.24,.3l-3.34,3.1,.15,.04c.84,.1,1.58,.33,2.24,.67,.66,.34,1.18,.82,1.56,1.44,.38,.62,.57,1.4,.57,2.35s-.28,1.86-.85,2.58c-.57,.73-1.33,1.29-2.3,1.68-.97,.4-2.08,.59-3.32,.59Z"/>
    </g>
  </g>
</svg>