<?xml version="1.0" encoding="UTF-8"?>
<svg xmlns="http://www.w3.org/2000/svg" viewBox="0 0 1920 1080">
  <defs>
    <style>
      .cls-1 {
        fill: #f9c43a;
      }

      .cls-2 {
        fill: #c99728;
      }
    </style>
  </defs>
  <g id="Calque_2" data-name="Calque 2"/>
  <g id="Calque_1" data-name="Calque 1">
    <g>
      <g>
        <polygon class="cls-2" points="1754 628 1784 628 1774 588 1744 588 1754 628"/>
        <polygon class="cls-1" points="1764 628 1734 628 1744 588 1774 588 1764 628"/>
      </g>
      <path d="M1752.79,615.21c-1.38,0-2.53-.22-3.45-.65s-1.62-1-2.1-1.69c-.48-.7-.73-1.45-.76-2.26,0-.13,.04-.24,.13-.33,.09-.09,.2-.13,.33-.13h2.95c.19,0,.34,.04,.45,.12,.11,.08,.19,.18,.25,.3,.13,.34,.3,.62,.52,.84,.21,.22,.46,.38,.75,.48,.29,.1,.6,.15,.96,.15,.41,0,.79-.09,1.14-.26,.35-.18,.63-.44,.85-.78s.32-.76,.32-1.24c0-.44-.1-.82-.3-1.14-.2-.32-.47-.58-.83-.77s-.75-.29-1.19-.29c-.35,0-.64,.04-.86,.12-.22,.08-.4,.18-.55,.3-.15,.12-.28,.22-.4,.3-.12,.08-.25,.12-.4,.12h-2.88c-.13,0-.25-.05-.34-.14s-.14-.21-.14-.34l.79-7.68c.03-.22,.11-.38,.24-.5,.13-.11,.29-.17,.48-.17h8.82c.16,0,.29,.05,.4,.15,.1,.1,.15,.24,.15,.4v2.07c0,.16-.05,.29-.15,.4-.1,.1-.24,.15-.4,.15h-6.38l-.29,2.86c.32-.22,.7-.4,1.13-.54,.43-.14,1.02-.21,1.77-.21,.7,0,1.38,.12,2.01,.35s1.21,.57,1.72,1.01c.51,.44,.9,.96,1.19,1.57s.43,1.29,.43,2.06c0,1.04-.25,1.97-.76,2.77s-1.24,1.44-2.19,1.9-2.1,.69-3.43,.69Z"/>
    </g>
  </g>
</svg>