<?xml version="1.0" encoding="UTF-8"?>
<svg xmlns="http://www.w3.org/2000/svg" viewBox="0 0 1920 1080">
  <defs>
    <style>
      .cls-1 {
        fill: #f9c43a;
      }

      .cls-2 {
        fill: #c99728;
      }
    </style>
  </defs>
  <g id="Calque_2" data-name="Calque 2"/>
  <g id="Calque_1" data-name="Calque 1">
    <g>
      <g>
        <polygon class="cls-2" points="391 677 421 677 411 637 381 637 391 677"/>
        <polygon class="cls-1" points="401 677 371 677 381 637 411 637 401 677"/>
      </g>
      <path d="M384.3,663.97c-.16,0-.3-.05-.41-.15-.11-.1-.17-.23-.17-.4v-1.56c0-.1,.03-.26,.09-.47s.21-.41,.46-.61l2.29-2.24c1.17-.89,2.14-1.65,2.89-2.28s1.32-1.18,1.68-1.66c.37-.48,.55-.94,.55-1.36,0-.5-.13-.91-.38-1.24-.26-.33-.7-.5-1.33-.5-.43,0-.78,.09-1.07,.27-.29,.18-.5,.42-.65,.71-.15,.29-.25,.59-.31,.9-.06,.19-.16,.32-.3,.4-.14,.07-.29,.11-.45,.11h-2.75c-.13,0-.24-.04-.33-.13s-.13-.2-.13-.33c.01-.7,.17-1.36,.45-1.98,.29-.62,.69-1.16,1.21-1.64s1.14-.85,1.87-1.11c.73-.26,1.54-.4,2.45-.4,1.25,0,2.31,.2,3.18,.59,.87,.4,1.54,.95,1.99,1.66,.45,.71,.68,1.54,.68,2.5,0,.72-.16,1.39-.47,2.01-.32,.62-.76,1.22-1.34,1.78-.58,.57-1.26,1.15-2.06,1.75l-2.02,2.05h5.65c.16,0,.3,.05,.41,.15s.17,.23,.17,.4v2.22c0,.16-.05,.29-.17,.4-.11,.1-.25,.15-.41,.15h-11.29Z"/>
    </g>
  </g>
</svg>