<?xml version="1.0" encoding="UTF-8"?>
<svg xmlns="http://www.w3.org/2000/svg" viewBox="0 0 1920 1080">
  <defs>
    <style>
      .cls-1 {
        fill: #f9c43a;
      }

      .cls-2 {
        fill: #c99728;
      }
    </style>
  </defs>
  <g id="Calque_2" data-name="Calque 2"/>
  <g id="Calque_1" data-name="Calque 1">
    <g>
      <g>
        <polygon class="cls-2" points="372 399 402 399 392 359 362 359 372 399"/>
        <polygon class="cls-1" points="382 399 352 399 362 359 392 359 382 399"/>
      </g>
      <path d="M372.03,385.97c-.15,0-.27-.05-.38-.15-.11-.1-.17-.23-.17-.4v-2.49h-6.84c-.15,0-.28-.05-.38-.15-.11-.1-.17-.23-.17-.4v-2.09c0-.13,.03-.25,.08-.36,.05-.11,.11-.22,.17-.32l6.4-8.67c.19-.25,.46-.37,.81-.37h3.19c.16,0,.3,.05,.41,.15s.17,.24,.17,.4v8.54h1.94c.18,0,.31,.06,.42,.17,.1,.11,.15,.24,.15,.39v2.18c0,.16-.05,.29-.17,.4-.11,.1-.24,.15-.38,.15h-1.96v2.49c0,.16-.05,.29-.17,.4-.11,.1-.25,.15-.41,.15h-2.71Zm-4.16-6.16h3.7v-5.19l-3.7,5.19Z"/>
    </g>
  </g>
</svg>