<?xml version="1.0" encoding="UTF-8"?>
<svg xmlns="http://www.w3.org/2000/svg" viewBox="0 0 1920 1080">
  <defs>
    <style>
      .cls-1 {
        fill: #f9c43a;
      }

      .cls-2 {
        fill: #c99728;
      }
    </style>
  </defs>
  <g id="Calque_2" data-name="Calque 2"/>
  <g id="Calque_1" data-name="Calque 1">
    <g>
      <g>
        <polygon class="cls-2" points="1010.75 883 1040.75 883 1030.75 843 1000.75 843 1010.75 883"/>
        <polygon class="cls-1" points="1020.75 883 990.75 883 1000.75 843 1030.75 843 1020.75 883"/>
      </g>
      <path d="M1010.35,869.97c-.15,0-.27-.05-.38-.15-.11-.1-.17-.23-.17-.4v-10.47l-3.01,2.31c-.13,.1-.27,.14-.41,.11s-.26-.11-.36-.24l-1.3-1.69c-.09-.13-.12-.28-.1-.43,.02-.15,.11-.28,.25-.36l5.06-3.92c.09-.06,.17-.1,.25-.12,.08-.02,.17-.03,.28-.03h2.75c.15,0,.27,.05,.38,.15s.17,.24,.17,.4v14.3c0,.16-.05,.29-.17,.4-.11,.1-.24,.15-.38,.15h-2.86Z"/>
    </g>
  </g>
</svg>