<?xml version="1.0" encoding="UTF-8"?>
<svg xmlns="http://www.w3.org/2000/svg" viewBox="0 0 1920 1080">
  <defs>
    <style>
      .cls-1 {
        fill: #ffa86c;
      }

      .cls-2 {
        fill: #fff;
      }

      .cls-3 {
        fill: #f2925a;
      }

      .cls-4 {
        fill: #f38f55;
      }

      .cls-5 {
        fill: #75332e;
      }

      .cls-6 {
        fill: #1c1c1c;
      }

      .cls-7 {
        fill: #c05e2e;
      }

      .cls-8 {
        fill: #a4461a;
      }

      .cls-9 {
        fill: #5d1d12;
      }

      .cls-10 {
        fill: #6d2218;
      }

      .cls-11 {
        fill: #f3a63b;
      }

      .cls-12 {
        fill: #861f1d;
      }

      .cls-13 {
        fill: #8a2b15;
      }

      .cls-14 {
        fill: #7f3518;
      }

      .cls-15 {
        fill: #f2f2f2;
      }
    </style>
  </defs>
  <g id="Calque_2" data-name="Calque 2"/>
  <g id="Calque_1" data-name="Calque 1">
    <g>
      <g>
        <path class="cls-7" d="M1639.09,742.89c-32.27,0-58.44,26.16-58.44,58.44v52.44h17.98v-52.44c0-22.31,18.15-40.46,40.46-40.46s40.46,18.15,40.46,40.46v52.44h17.98v-52.44c0-32.27-26.16-58.44-58.44-58.44Z"/>
        <g>
          <g>
            <rect class="cls-1" x="1580.66" y="844.78" width="17.98" height="28.47" rx="8.99" ry="8.99"/>
            <rect class="cls-1" x="1595.82" y="848.94" width="5.99" height="14.98" rx="3" ry="3" transform="translate(-137.31 1381.38) rotate(-45)"/>
          </g>
          <g>
            <rect class="cls-1" x="1679.55" y="844.78" width="17.98" height="28.47" rx="8.99" ry="8.99"/>
            <rect class="cls-1" x="1671.87" y="853.43" width="14.98" height="5.99" rx="3" ry="3" transform="translate(-113.71 1438.33) rotate(-45)"/>
          </g>
        </g>
      </g>
      <rect class="cls-14" x="1621.11" y="817.81" width="35.96" height="65.93"/>
      <g>
        <rect class="cls-6" x="1610.62" y="817.81" width="20.98" height="125.86"/>
        <path class="cls-6" d="M1598.64,943.67h32.96v-14.98h-23.97c-4.97,0-8.99,4.03-8.99,8.99v5.99Z"/>
        <rect class="cls-6" x="1646.58" y="817.81" width="20.98" height="125.86"/>
        <path class="cls-6" d="M1679.55,943.67h-32.96v-14.98h23.97c4.97,0,8.99,4.03,8.99,8.99v5.99Z"/>
        <path class="cls-6" d="M1610.62,817.81v4.5c0,7.45,12.75,13.49,28.47,13.49s28.47-6.04,28.47-13.49v-4.5h-56.94Z"/>
      </g>
      <path class="cls-15" d="M1621.11,817.81v-67.73c0-5.62,4.56-10.18,10.18-10.18h15.6c5.62,0,10.18,4.56,10.18,10.18v67.73h-35.96Z"/>
      <polygon class="cls-9" points="1646.58 762.37 1639.09 759.37 1631.6 762.37 1636.1 769.86 1633.1 801.32 1639.09 807.32 1645.09 801.32 1642.09 769.86 1646.58 762.37"/>
      <path class="cls-2" d="M1639.09,759.37l17.98,7.19v-16.49c0-5.62-4.56-10.18-10.18-10.18h-15.6c-5.62,0-10.18,4.56-10.18,10.18v16.49l17.98-7.19Z"/>
      <g>
        <rect class="cls-7" x="1606.13" y="760.87" width="14.98" height="122.87"/>
        <rect class="cls-7" x="1657.07" y="760.87" width="14.98" height="122.87"/>
      </g>
      <g>
        <path class="cls-8" d="M1621.11,811.77v-61.7c0-5.21,3.92-9.5,8.96-10.1-10.87,.8-19.45,9.86-19.45,20.94v2.95l5.99,4.5-5.99,8.99,10.49,34.42Z"/>
        <path class="cls-8" d="M1657.07,811.77v-61.7c0-5.21-3.92-9.5-8.96-10.1,10.87,.8,19.45,9.86,19.45,20.94v2.95l-5.99,4.5,5.99,8.99-10.49,34.42Z"/>
      </g>
      <g>
        <rect class="cls-4" x="1627.1" y="712.92" width="23.97" height="44.95" rx="11.99" ry="11.99"/>
        <g>
          <rect class="cls-3" x="1598.64" y="691.94" width="80.91" height="14.98" rx="7.49" ry="7.49"/>
          <rect class="cls-3" x="1598.64" y="691.94" width="80.91" height="14.98" rx="7.49" ry="7.49"/>
          <rect class="cls-1" x="1607.63" y="649.99" width="62.93" height="89.9" rx="31.47" ry="31.47"/>
        </g>
        <g>
          <path class="cls-5" d="M1670.56,691.94h1.5c1.07,0,2.08,.23,3,.63v-9.62h-4.5v8.99Z"/>
          <path class="cls-5" d="M1606.13,691.94h1.5v-8.99h-4.5v9.62c.92-.4,1.93-.63,3-.63Z"/>
        </g>
        <path class="cls-12" d="M1631.6,719.29c-.76,0-1.41-.58-1.49-1.35-.08-.82,.52-1.56,1.34-1.64l14.98-1.5c.83-.07,1.56,.52,1.64,1.34,.08,.82-.52,1.56-1.34,1.64l-14.98,1.5c-.05,0-.1,0-.15,0Z"/>
        <g>
          <path class="cls-10" d="M1617.37,688.2c0,3.31,2.68,5.99,5.99,5.99s5.99-2.68,5.99-5.99h-11.99Z"/>
          <path class="cls-10" d="M1660.82,688.2c0,3.31-2.68,5.99-5.99,5.99s-5.99-2.68-5.99-5.99h11.99Z"/>
        </g>
        <path class="cls-5" d="M1630.09,699.44c-4.13,0-7.48,3.35-7.48,7.48v4.5h32.96v-4.5c0-4.13-3.35-7.48-7.48-7.48h-18Z"/>
        <rect class="cls-4" x="1633.1" y="687.45" width="11.99" height="17.98" rx="5.99" ry="5.99"/>
        <g>
          <rect class="cls-9" x="1597.14" y="676.96" width="83.91" height="5.99" rx="3" ry="3"/>
          <path class="cls-13" d="M1675.05,676.96h-71.92c0-1.35,.31-3.46,.93-5.99,2.62-10.97,10.55-29.97,20.71-29.97,3.36,0,6.35,1.74,8.39,4.47,1.29,1.72,3.45,2.97,5.87,2.98h.12c2.43-.01,4.58-1.26,5.87-2.98,2.04-2.73,5.03-4.47,8.39-4.47,10.16,0,18.09,19,20.71,29.97,.61,2.53,.93,4.65,.93,5.99Z"/>
          <path class="cls-11" d="M1675.05,676.96h-71.92c0-1.35,.31-3.46,.93-5.99h70.06c.61,2.53,.93,4.65,.93,5.99Z"/>
        </g>
      </g>
      <rect class="cls-8" x="1577.66" y="834.29" width="17.98" height="7.49"/>
      <rect class="cls-8" x="1682.54" y="834.29" width="17.98" height="7.49"/>
    </g>
  </g>
</svg>