<?xml version="1.0" encoding="UTF-8"?>
<svg xmlns="http://www.w3.org/2000/svg" viewBox="0 0 1920 1080">
  <defs>
    <style>
      .cls-1 {
        fill: #ffa86c;
      }

      .cls-2 {
        fill: #59a0b6;
      }

      .cls-3 {
        fill: #fff;
      }

      .cls-4 {
        fill: #f2925a;
      }

      .cls-5 {
        fill: #2d3a4b;
      }

      .cls-6 {
        fill: #efe1c7;
      }

      .cls-7 {
        fill: #3a609f;
      }

      .cls-8 {
        fill: #ffbf44;
      }

      .cls-9 {
        fill: #2f3e5b;
      }

      .cls-10 {
        fill: #f6c69e;
      }

      .cls-11 {
        fill: #1c1d17;
      }

      .cls-12 {
        fill: #e09868;
      }

      .cls-13 {
        fill: #eda874;
      }

      .cls-14 {
        fill: #5a352c;
      }

      .cls-15 {
        fill: #fed992;
      }

      .cls-16 {
        fill: #2d2d2d;
      }

      .cls-17 {
        fill: #ccc;
      }

      .cls-18 {
        fill: #3a1f01;
      }

      .cls-19 {
        fill: #6d2218;
      }

      .cls-20 {
        fill: #242d4e;
      }

      .cls-21 {
        fill: #c0b096;
      }

      .cls-22 {
        fill: #861f1d;
      }

      .cls-23 {
        fill: #1b2c3e;
      }

      .cls-24 {
        fill: #12192b;
      }

      .cls-25 {
        fill: #e3e3e3;
      }
    </style>
  </defs>
  <g id="Calque_2" data-name="Calque 2"/>
  <g id="Calque_1" data-name="Calque 1">
    <g>
      <rect class="cls-20" x="1372.02" y="582.56" width="20.99" height="125.97"/>
      <rect class="cls-20" x="1408.01" y="582.56" width="20.99" height="125.97"/>
      <path class="cls-20" d="M1372.02,582.56v4.5c0,7.45,12.76,13.5,28.49,13.5s28.49-6.04,28.49-13.5v-4.5h-56.99Z"/>
      <rect class="cls-7" x="1367.52" y="525.57" width="65.98" height="56.99"/>
      <g>
        <rect class="cls-1" x="1376.79" y="536.92" width="28.49" height="18" rx="9" ry="9" transform="translate(-25.47 1021.86) rotate(-40)"/>
        <rect class="cls-1" x="1375.66" y="537.55" width="15" height="6" rx="3" ry="3" transform="translate(724.11 1871.33) rotate(-85)"/>
      </g>
      <path class="cls-18" d="M1441,708.52h-32.99v-15h23.99c4.97,0,9,4.03,9,9v6Z"/>
      <path class="cls-18" d="M1360.02,708.52h32.99v-15h-23.99c-4.97,0-9,4.03-9,9v6Z"/>
      <path class="cls-7" d="M1364.63,543.01l-16.17-7.89,10.98-22.49c1.51-3.09,4.65-5.05,8.09-5.05h65.98c3.45,0,6.59,1.97,8.09,5.07l10.92,22.49-16.19,7.86-8.46-17.42h-54.73l-8.51,17.44Z"/>
      <g>
        <g>
          <polygon class="cls-9" points="1417.65 507.58 1416.22 522.57 1384.8 522.57 1383.37 507.58 1370.52 507.58 1376.52 570.56 1424.5 570.56 1430.5 507.58 1417.65 507.58"/>
          <polygon class="cls-23" points="1419.52 519.57 1420.38 510.57 1427.2 510.57 1426.35 519.57 1419.52 519.57"/>
          <polygon class="cls-23" points="1374.67 519.57 1373.82 510.57 1380.64 510.57 1381.5 519.57 1374.67 519.57"/>
          <g>
            <polygon class="cls-23" points="1424.92 534.57 1425.78 525.57 1375.24 525.57 1376.1 534.57 1424.92 534.57"/>
            <polygon class="cls-23" points="1376.67 540.57 1379.24 567.56 1421.78 567.56 1424.35 540.57 1376.67 540.57"/>
          </g>
        </g>
        <g>
          <rect class="cls-9" x="1424.5" y="549.56" width="9" height="3"/>
          <rect class="cls-9" x="1424.5" y="558.56" width="9" height="3"/>
          <rect class="cls-9" x="1367.52" y="549.56" width="9" height="3"/>
          <rect class="cls-9" x="1367.52" y="558.56" width="9" height="3"/>
        </g>
      </g>
      <g>
        <path class="cls-8" d="M1420,537.57c6.58-4.83,5.98-12.5,5.98-12.5,0,0-4.79,0-5.98-2.5-1.2,2.5-5.98,2.5-5.98,2.5,0,0-.6,7.66,5.98,12.5Z"/>
        <path class="cls-15" d="M1420,533.54c-1.77-1.98-2.51-4.2-2.8-5.84,.91-.21,1.9-.54,2.8-1.05,.91,.51,1.9,.84,2.81,1.05-.3,1.64-1.03,3.86-2.81,5.84Z"/>
      </g>
      <g>
        <rect class="cls-11" x="1372.02" y="582.56" width="56.99" height="6"/>
        <g>
          <rect class="cls-8" x="1395.26" y="581.06" width="10.5" height="9"/>
          <rect class="cls-15" x="1398.26" y="584.06" width="4.5" height="3"/>
        </g>
        <rect class="cls-16" x="1384.01" y="582.56" width="3" height="6"/>
        <rect class="cls-16" x="1414.01" y="582.56" width="3" height="6"/>
      </g>
      <g>
        <rect class="cls-11" x="1429" y="582.56" width="4.5" height="22.49"/>
        <path class="cls-16" d="M1433.1,591.55h-4.1v-9h4.1c1.05,0,1.9,.85,1.9,1.9v5.2c0,1.05-.85,1.9-1.9,1.9Z"/>
      </g>
      <g>
        <path class="cls-11" d="M1372.02,582.56c-2.48,0-4.5,5.04-4.5,11.25s2.01,11.25,4.5,11.25v-22.49Z"/>
        <path class="cls-16" d="M1367.92,592.2h4.1v-9.64h-4.1c-1.05,0-1.9,.85-1.9,1.9v5.85c0,1.05,.85,1.9,1.9,1.9Z"/>
      </g>
      <g>
        <path class="cls-17" d="M1415.51,598.3c-2.89,0-5.25-2.35-5.25-5.25s2.35-5.25,5.25-5.25,5.25,2.35,5.25,5.25-2.35,5.25-5.25,5.25Zm0-9c-2.07,0-3.75,1.68-3.75,3.75s1.68,3.75,3.75,3.75,3.75-1.68,3.75-3.75-1.68-3.75-3.75-3.75Z"/>
        <rect class="cls-17" x="1414.01" y="587.05" width="3" height="1.5" rx=".44" ry=".44"/>
      </g>
      <g>
        <path class="cls-17" d="M1422.02,596.43c-2.7,1.04-5.74-.32-6.78-3.02-1.04-2.7,.32-5.74,3.02-6.78,2.7-1.04,5.74,.32,6.78,3.02,1.04,2.7-.32,5.74-3.02,6.78Zm-3.22-8.4c-1.93,.74-2.9,2.91-2.16,4.84,.74,1.93,2.91,2.9,4.84,2.16s2.9-2.91,2.16-4.84c-.74-1.93-2.91-2.9-4.84-2.16Z"/>
        <rect class="cls-17" x="1416.76" y="585.88" width="3" height="1.5" rx=".44" ry=".44" transform="translate(-116.01 546.68) rotate(-20.98)"/>
      </g>
      <polyline class="cls-17" points="1394.33 562.62 1371 539.29 1373.12 537.17 1396.45 560.5 1397.51 563.68 1394.33 562.62"/>
      <g>
        <path class="cls-10" d="M1449.4,569.99c1.31,2.7,3.89,4.57,6.86,4.99,2.98,.41,5.96-.69,7.96-2.93l35.99-40.49c3.3-3.71,2.97-9.4-.75-12.7-3.72-3.3-9.4-2.97-12.7,.75l-27.04,30.42-7.21-14.87-16.18,7.85,13.07,26.99Z"/>
        <path class="cls-10" d="M1358.57,555.43l20.92-12.15c4.3-2.5,9.8-1.04,12.3,3.26,2.5,4.3,1.04,9.8-3.26,12.3l-46.49,26.99c-1.41,.82-2.97,1.22-4.51,1.22-2.22,0-4.42-.82-6.13-2.41-2.9-2.7-3.69-6.97-1.96-10.53l19.02-38.99,16.17,7.89-6.05,12.42Z"/>
      </g>
      <g>
        <rect class="cls-5" x="1488.99" y="477.58" width="12" height="4.5" rx="1.5" ry="1.5"/>
        <rect class="cls-14" x="1475.49" y="480.58" width="38.99" height="53.99" rx="3.13" ry="3.13"/>
        <rect class="cls-6" x="1478.49" y="483.58" width="32.99" height="41.99" rx="1.46" ry="1.46"/>
        <rect class="cls-2" x="1487.49" y="479.08" width="15" height="6" rx="1.5" ry="1.5"/>
        <g>
          <rect class="cls-21" x="1487.49" y="491.08" width="15" height="3" rx="1.5" ry="1.5"/>
          <rect class="cls-21" x="1481.49" y="500.08" width="26.99" height="3" rx="1.5" ry="1.5"/>
          <rect class="cls-21" x="1481.49" y="506.08" width="26.99" height="3" rx="1.5" ry="1.5"/>
          <rect class="cls-21" x="1481.49" y="512.07" width="19.49" height="3" rx="1.5" ry="1.5"/>
        </g>
      </g>
      <ellipse class="cls-10" cx="1512.98" cy="512.07" rx="6" ry="9"/>
      <g>
        <rect class="cls-10" x="1371.49" y="541.59" width="28.49" height="18" rx="9" ry="9" transform="translate(-104.87 589.28) rotate(-23.16)"/>
        <rect class="cls-10" x="1372.26" y="540.16" width="15" height="6" rx="3" ry="3" transform="translate(362.21 1621.75) rotate(-68.16)"/>
      </g>
      <g>
        <rect class="cls-13" x="1388.51" y="477.58" width="23.99" height="44.99" rx="12" ry="12"/>
        <g>
          <rect class="cls-4" x="1360.02" y="456.59" width="80.98" height="15" rx="7.5" ry="7.5"/>
          <rect class="cls-13" x="1360.02" y="456.59" width="80.98" height="15" rx="7.5" ry="7.5"/>
          <rect class="cls-10" x="1369.02" y="414.6" width="62.98" height="89.98" rx="31.49" ry="31.49"/>
        </g>
        <g>
          <path class="cls-22" d="M1400.51,484.17c-3.37,0-6.59-.7-9.59-2.07-.75-.34-1.08-1.23-.74-1.99,.35-.75,1.24-1.08,1.99-.74,5.21,2.38,11.48,2.38,16.69,0,.75-.34,1.64-.01,1.99,.74,.34,.75,.01,1.64-.74,1.99-3,1.37-6.23,2.07-9.59,2.07Z"/>
          <path class="cls-22" d="M1400.51,484.17c-3.37,0-6.59-.7-9.59-2.07-.75-.34-1.08-1.23-.74-1.99,.35-.75,1.24-1.08,1.99-.74,5.21,2.38,11.48,2.38,16.69,0,.75-.34,1.64-.01,1.99,.74,.34,.75,.01,1.64-.74,1.99-3,1.37-6.23,2.07-9.59,2.07Z"/>
        </g>
        <g>
          <path class="cls-19" d="M1416.26,458.46c-2.41,0-4.63-1.13-5.77-2.95-.44-.7-.23-1.63,.47-2.07,.7-.44,1.63-.23,2.07,.47,.59,.94,1.86,1.55,3.23,1.55s2.64-.61,3.23-1.55c.44-.7,1.37-.91,2.07-.47,.7,.44,.91,1.37,.47,2.07-1.14,1.82-3.35,2.95-5.77,2.95Z"/>
          <path class="cls-19" d="M1384.76,458.46c-2.41,0-4.63-1.13-5.77-2.95-.44-.7-.23-1.63,.47-2.07,.7-.44,1.63-.23,2.07,.47,.59,.94,1.86,1.55,3.23,1.55s2.64-.61,3.23-1.55c.44-.7,1.37-.91,2.07-.47,.7,.44,.91,1.37,.47,2.07-1.14,1.82-3.35,2.95-5.77,2.95Z"/>
        </g>
        <g>
          <rect class="cls-12" x="1393.76" y="463.79" width="13.5" height="4.05" rx="2.02" ry="2.02"/>
          <path class="cls-13" d="M1400.51,451.34c-2.48,0-4.5,2.01-4.5,4.5v12c0,1.66,1.34,3,3,3h3c1.66,0,3-1.34,3-3v-12c0-2.48-2.01-4.5-4.5-4.5Z"/>
        </g>
        <g>
          <g>
            <path class="cls-25" d="M1438,471.58v-1.53c-1.26,.95-2.8,1.53-4.5,1.53h-1.5v1.5c0,3.68-.66,7.21-1.83,10.5h3.33c6.63,0,12-5.37,12-12h-7.5Z"/>
            <path class="cls-25" d="M1367.52,456.59h1.5v-10.5c0-17.32,14.17-31.49,31.49-31.49s31.49,14.17,31.49,31.49v10.5h1.5c1.7,0,3.24,.58,4.5,1.53v-12.03c0-20.71-16.78-37.49-37.49-37.49s-37.49,16.78-37.49,37.49v12.03c1.26-.95,2.8-1.53,4.5-1.53Z"/>
            <path class="cls-25" d="M1367.52,483.58h3.33c-1.17-3.29-1.83-6.82-1.83-10.5v-1.5h-1.5c-1.7,0-3.24-.58-4.5-1.53v1.53h-7.5c0,6.63,5.37,12,12,12Z"/>
          </g>
          <g>
            <path class="cls-25" d="M1386.83,417.75c2.35,5.22,7.59,8.85,13.68,8.85s11.34-3.64,13.68-8.86"/>
            <path class="cls-25" d="M1415.51,411.75c-.02,2.13-.49,4.15-1.32,5.98-2.34,5.22-7.57,8.86-13.68,8.86s-11.32-3.63-13.68-8.85c-.82-1.83-1.3-3.85-1.32-6,4.6-2.02,9.67-3.15,15-3.15s10.41,1.12,15,3.15Z"/>
            <path class="cls-25" d="M1385.51,411.75c.01,2.14,.49,4.17,1.32,6,2.35,5.22,7.59,8.85,13.68,8.85s11.34-3.64,13.68-8.86c.82-1.83,1.3-3.85,1.32-5.98"/>
          </g>
        </g>
        <path class="cls-25" d="M1420,467.09h-38.99c-3.31,0-6,2.69-6,6v23.22c0,1.38,.57,2.72,1.62,3.62h.02c6.58,5.92,14.97,9.15,23.86,9.15s17.28-3.22,23.86-9.13h.02c1.05-.92,1.62-2.25,1.62-3.64v-23.22c0-3.31-2.69-6-6-6Zm0,24.59l-.21,.21c-5.14,5.29-12,8.19-19.28,8.19s-14.14-2.89-19.28-8.19l-.21-.21v-18.6h38.99v18.6Z"/>
      </g>
      <path d="M1433.59,455.05h-6v-2.28c0-2.05-1.67-3.73-3.73-3.73h-15.04c-2.06,0-3.73,1.67-3.73,3.73v2.28h-9v-2.28c0-2.05-1.67-3.73-3.73-3.73h-15.04c-2.06,0-3.73,1.67-3.73,3.73v2.28h-6v1.5h6v2.27c0,2.05,1.67,3.73,3.73,3.73h15.04c2.06,0,3.73-1.67,3.73-3.73v-2.27h9v2.27c0,2.05,1.67,3.73,3.73,3.73h15.04c2.06,0,3.73-1.67,3.73-3.73v-2.27h6v-1.5Zm-38.99,3.77c0,1.23-1,2.23-2.23,2.23h-15.04c-1.23,0-2.23-1-2.23-2.23v-6.04c0-1.23,1-2.23,2.23-2.23h15.04c1.23,0,2.23,1,2.23,2.23v6.04Zm31.49,0c0,1.23-1,2.23-2.23,2.23h-15.04c-1.23,0-2.23-1-2.23-2.23v-6.04c0-1.23,1-2.23,2.23-2.23h15.04c1.23,0,2.23,1,2.23,2.23v6.04Z"/>
      <g>
        <path class="cls-20" d="M1400.51,428.85c-15.51,0-29.23,2.91-37.49,7.36v10.13c0,4.9,5.54,7.62,9.52,4.76,6.92-4.98,16.93-8.75,27.97-8.75s21.05,3.77,27.97,8.75c3.98,2.86,9.52,.15,9.52-4.76v-10.13l-2.12-1.04c-8.38-3.86-21.12-6.32-35.37-6.32Z"/>
        <path class="cls-24" d="M1438,426.38v9.83c-8.26-4.45-21.98-7.36-37.49-7.36s-29.23,2.91-37.49,7.36v-9.83c0-13.13,10.64-23.77,23.77-23.77h27.43c13.13,0,23.77,10.64,23.77,23.77Z"/>
        <g>
          <path class="cls-3" d="M1378.76,417.5l4.04-.62c.92-.14,1.68-.02,2.27,.37,.59,.39,.94,1.01,1.07,1.84,.13,.83-.03,1.52-.48,2.08-.45,.55-1.13,.9-2.04,1.04l-1.86,.29,.46,3.02-2.18,.33-1.28-8.36Zm4.31,3.13c.4-.06,.69-.19,.86-.39,.17-.2,.23-.47,.17-.81s-.19-.59-.41-.73c-.22-.14-.53-.18-.93-.12l-1.57,.24,.31,2.05,1.57-.24Z"/>
          <path class="cls-3" d="M1389.65,424.14c-.66-.31-1.18-.78-1.57-1.4-.39-.63-.62-1.38-.68-2.26-.06-.88,.05-1.65,.35-2.33,.3-.68,.75-1.21,1.36-1.61,.61-.4,1.34-.63,2.21-.69,.86-.06,1.62,.06,2.28,.37,.66,.31,1.18,.77,1.57,1.4,.39,.63,.61,1.38,.67,2.26,.06,.88-.05,1.65-.35,2.33s-.75,1.21-1.36,1.61c-.61,.4-1.34,.63-2.19,.69-.86,.06-1.62-.06-2.28-.37Zm3.61-2.1c.33-.48,.46-1.15,.4-2.01-.06-.86-.29-1.5-.68-1.92-.4-.42-.91-.61-1.54-.56-.64,.05-1.12,.3-1.45,.77s-.46,1.14-.4,2.01c.06,.87,.29,1.51,.68,1.94s.91,.61,1.54,.56c.64-.05,1.12-.31,1.45-.78Z"/>
          <path class="cls-3" d="M1397.3,424.11l-.04-8.46h2.21l.03,6.66,3.6-.02v1.79l-5.8,.03Z"/>
          <path class="cls-3" d="M1404.07,424.14l.32-8.45,2.21,.08-.32,8.45-2.21-.08Z"/>
          <path class="cls-3" d="M1409.54,423.99c-.62-.42-1.07-.97-1.36-1.65s-.39-1.46-.32-2.32,.32-1.6,.72-2.22,.95-1.08,1.63-1.38c.68-.3,1.46-.41,2.34-.34,.55,.05,1.07,.18,1.57,.39,.5,.21,.9,.47,1.2,.78l-.82,1.49c-.65-.55-1.34-.85-2.06-.92-.69-.06-1.23,.11-1.63,.51-.4,.4-.64,1.02-.71,1.88-.08,.85,.05,1.51,.37,1.98,.32,.47,.83,.73,1.51,.79,.72,.06,1.46-.12,2.19-.54l.54,1.61c-.35,.25-.79,.44-1.32,.56-.53,.12-1.07,.16-1.62,.11-.88-.08-1.62-.32-2.24-.74Z"/>
          <path class="cls-3" d="M1415.66,425.03l1.34-8.35,5.93,.95-.27,1.68-3.81-.61-.25,1.59,3.58,.58-.27,1.67-3.58-.58-.28,1.73,3.81,.61-.27,1.68-5.93-.95Z"/>
        </g>
        <path class="cls-20" d="M1396.01,402.6c0-.83,2.01-1.5,4.5-1.5s4.5,.67,4.5,1.5h-9Z"/>
      </g>
    </g>
  </g>
</svg>