<?xml version="1.0" encoding="UTF-8"?>
<svg xmlns="http://www.w3.org/2000/svg" viewBox="0 0 1920 1080">
  <defs>
    <style>
      .cls-1 {
        fill: #fff;
      }
    </style>
  </defs>
  <g id="Calque_2" data-name="Calque 2"/>
  <g id="Calque_1" data-name="Calque 1">
    <path class="cls-1" d="M1007.9,840.74h-62.18c-27.32,0-51.32-10.09-57.83-24.14h-4.26c-5.41,6.13-16.79,10.07-29.42,10.12-.58,2.67-4.4,4.67-9.17,4.67-3.64,0-6.8-1.18-8.3-2.99-3.06,.43-6.23,.65-9.46,.65-20.61,0-37.37-9.06-37.37-20.19s16.77-20.19,37.37-20.19c3.23,0,6.4,.22,9.46,.65,1.51-1.81,4.67-2.98,8.3-2.98,4.77,0,8.58,2,9.17,4.67,12.63,.06,24.01,3.99,29.42,10.12h4.26c6.51-14.05,30.51-24.14,57.83-24.14h62.18c6.01,0,10.72,2.71,10.72,6.17s-4.61,6.11-10.53,6.17c.01,.08,.02,.17,.02,.25,0,.93-.62,1.78-1.71,2.35-.62,.33-1.36,.54-2.12,.64h65.44v-.06c0-3.46,4.71-6.17,10.72-6.17h7.76v20.12h-106.76c.11,.79,.16,1.59,.16,2.4s-.06,1.61-.16,2.4h106.76v20.12h-7.76c-6.01,0-10.72-2.71-10.72-6.17v-.06h-65.44c.77,.1,1.5,.31,2.12,.64,1.09,.57,1.71,1.43,1.71,2.36,0,.08,0,.17-.02,.25,5.92,.06,10.53,2.75,10.53,6.17s-4.71,6.17-10.72,6.17Zm-126.25-27.13h8.89l.41,1.04c5.31,13.39,28.34,23.11,54.77,23.11h62.18c4.15,0,7.04-1.68,7.04-3.18s-2.89-3.18-7.04-3.18h-9.94l6.11-3.22c-.58-.16-1.4-.11-1.85,.13l-5.87,3.09h-50.63c-8.61,0-16.89-1.39-23.92-4.03l-7.6-2.85h45.97v-2.34h113.24v3.05c0,1.5,2.89,3.18,7.04,3.18h4.08v-14.15h-107.47l.44-1.79c.29-1.17,.43-2.38,.43-3.6s-.15-2.43-.43-3.6l-.44-1.79h107.47v-14.15h-4.08c-4.15,0-7.04,1.67-7.04,3.18v3.05h-113.24v-2.34h-45.97l7.6-2.85c7.03-2.64,15.31-4.03,23.92-4.03h50.63l5.87,3.09c.45,.24,1.27,.28,1.85,.13l-6.11-3.21h9.95c4.15,0,7.04-1.68,7.04-3.18s-2.89-3.18-7.04-3.18h-62.18c-26.43,0-49.46,9.72-54.77,23.11l-.41,1.04h-8.89l-.54-.69c-4.46-5.64-15.38-9.44-27.18-9.44h-3.32v-2.27c0-1.13-2.38-2.4-5.56-2.4-2.98,0-5.14,1.06-5.5,2.09l-.03,.1h0l-.05,.21h-.03l-.36,1.01-1.66-.27c-3.24-.53-6.65-.8-10.13-.8-18.58,0-33.69,7.72-33.69,17.2s15.11,17.2,33.69,17.2c3.48,0,6.89-.27,10.13-.8l1.66-.27,.39,1.08h.02l.03,.13h0l.04,.11c.37,1.03,2.53,2.09,5.5,2.09,3.18,0,5.56-1.27,5.56-2.4v-2.27h3.32c11.8,0,22.72-3.79,27.18-9.44l.54-.69Zm52.61,13.89c3.67,.6,7.53,.91,11.46,.91h49.54l4.96-2.61c.62-.33,1.36-.54,2.12-.64h-38.49v2.34h-29.59Zm70.24,.87h0Zm0-.43h0Zm-40.66-35.36h38.49c-.77-.1-1.5-.31-2.12-.64l-4.96-2.61h-49.54c-3.93,0-7.79,.31-11.46,.91h29.59v2.34Zm40.66-2.77h0Zm0-.43h0Z"/>
  </g>
</svg>