<?xml version="1.0" encoding="UTF-8"?>
<svg xmlns="http://www.w3.org/2000/svg" viewBox="0 0 1920 1080">
  <defs>
    <style>
      .cls-1 {
        fill: #d1ecef;
      }

      .cls-2 {
        fill: #ffde4e;
      }

      .cls-3 {
        fill: #ee5145;
      }

      .cls-4 {
        fill: #f6c69e;
      }

      .cls-5 {
        fill: #eda874;
      }

      .cls-6 {
        fill: #e0b08c;
      }

      .cls-7 {
        fill: #6d2218;
      }

      .cls-8 {
        fill: #861f1d;
      }

      .cls-9 {
        fill: #cc3e37;
      }
    </style>
  </defs>
  <g id="Calque_2" data-name="Calque 2"/>
  <g id="Calque_1" data-name="Calque 1">
    <g>
      <g>
        <rect class="cls-5" x="857.26" y="794.71" width="45.03" height="24.01" rx="12.01" ry="12.01"/>
        <rect class="cls-4" x="794.23" y="775.03" width="90.05" height="63.04" rx="31.52" ry="31.52"/>
        <path class="cls-5" d="M840.75,777.16c0-1.91,1.55-3.46,3.46-3.46h9.24c1.28,0,2.31,1.03,2.31,2.31v2.31c0,1.28-1.03,2.31-2.31,2.31h-9.24c-1.91,0-3.46-1.55-3.46-3.46Z"/>
        <g>
          <rect class="cls-6" x="1013.35" y="790.56" width="75.04" height="21.01"/>
          <g>
            <path class="cls-9" d="M1073.38,811.57h15.01v-33.02h-6c-4.97,0-9.01,4.04-9.01,9.01v24.01Z"/>
            <path class="cls-6" d="M1073.38,811.57h9.01v-19.5c0-.54-.09-1.05-.27-1.52-.62-1.76-2.3-3-4.25-3h-4.49v24.01Z"/>
          </g>
        </g>
        <g>
          <rect class="cls-4" x="1013.35" y="804.07" width="75.04" height="21.01"/>
          <g>
            <path class="cls-3" d="M1073.38,825.08h15.01v-33.02h-6c-4.97,0-9.01,4.04-9.01,9.01v24.01Z"/>
            <path class="cls-4" d="M1073.38,825.08h9.01v-19.5c0-.54-.09-1.05-.27-1.52-.62-1.76-2.3-3-4.25-3h-4.49v24.01Z"/>
          </g>
        </g>
        <ellipse class="cls-8" cx="868.52" cy="784.04" rx="1.5" ry="3.75" transform="translate(-244.74 1144.18) rotate(-60)"/>
        <path class="cls-7" d="M835.5,793.08l-1.94,1.94c-.59,.59-1.54,.59-2.12,0s-.59-1.54,0-2.12l1.94-1.94-1.94-1.94c-.59-.59-.59-1.54,0-2.12s1.54-.59,2.12,0l1.94,1.94,1.94-1.94c.59-.59,1.54-.59,2.12,0,.29,.29,.44,.68,.44,1.06s-.15,.77-.44,1.06l-1.94,1.94,1.94,1.94c.29,.29,.44,.68,.44,1.06s-.15,.77-.44,1.06c-.59,.59-1.54,.59-2.12,0l-1.94-1.94Z"/>
        <g>
          <path class="cls-1" d="M962.32,829.58v-43.52h-53.28c-12.02,0-21.76,9.74-21.76,21.76h0c0,12.02,9.74,21.76,21.76,21.76h53.28Z"/>
          <path class="cls-1" d="M944.31,807.82h0c0-20.8,16.86-30.15,37.65-30.15h31.39v60.3h-31.39c-20.8,0-37.65-9.35-37.65-30.15Z"/>
        </g>
        <path class="cls-2" d="M801.63,835.17c-7.34-7.34-11.9-17.49-11.9-28.62,0-12.38,5.63-23.52,14.47-30.96,0,0,8.04-8.06,24.55-3.56,5.25,1.43-5.36,3.94-12.88,9.04,.89,1.06,1.76,2.28,2.6,3.72,4.86,8.34,8.82,14.11,11.78,17.94,3.9,5.09,6,6.83,6,6.83l14.53,3.66s7.11,10.27,10.67,23.67v-.04l21.87,5.69c2.62,.68,2.13,4.54-.58,4.54h-52.5c-11.14,0-21.28-4.56-28.62-11.9Z"/>
        <path class="cls-5" d="M836.25,811.22v-1.38h15.01v1.38c0,4.14-3.36,7.5-7.5,7.5s-7.5-3.36-7.5-7.5Z"/>
      </g>
      <g>
        <rect class="cls-4" x="978.79" y="800.55" width="28.52" height="18.01" rx="9.01" ry="9.01"/>
        <rect class="cls-4" x="982.95" y="797.36" width="15.01" height="6" rx="3" ry="3" transform="translate(-275.85 934.78) rotate(-45)"/>
      </g>
    </g>
  </g>
</svg>