<?xml version="1.0" encoding="UTF-8"?>
<svg xmlns="http://www.w3.org/2000/svg" viewBox="0 0 1920 1080">
  <defs>
    <style>
      .cls-1 {
        fill: #f2b696;
      }
    </style>
  </defs>
  <g id="Calque_2" data-name="Calque 2"/>
  <g id="Calque_1" data-name="Calque 1">
    <g>
      <path class="cls-1" d="M1090.69,740.43c-1.51-7.56,2.33-15.59,1.86-23.72-.04-.75-.08-1.5-.11-2.24-.01-.13-.01-.26-.02-.39-.02-.63-.05-1.26-.06-1.9,0-.39-.02-.79-.03-1.18-.04-2.36-.01-4.71,.09-7.06,.02-.39,.03-.78,.06-1.17,.01-.32,.03-.64,.05-.95,.08-1.24,.17-2.49,.29-3.73,.08-.78,.16-1.55,.25-2.33,.09-.77,.19-1.54,.3-2.31,.05-.39,.11-.77,.17-1.15,.17-1.15,.38-2.29,.6-3.43,.07-.38,.15-.76,.23-1.14,.32-1.51,.68-3.01,1.08-4.49,.09-.35,.19-.69,.29-1.04,.17-.6,.35-1.2,.53-1.79,.09-.29,.18-.59,.28-.88,.43-1.33,.9-2.64,1.4-3.93,.12-.3,.23-.61,.35-.92,.12-.31,.22-.63,.33-.95s.22-.65,.32-.98c.11-.33,.21-.66,.31-1,.2-.7,.4-1.41,.59-2.14,.08-.34,.17-.68,.25-1.02,.08-.32,.15-.65,.23-.98,.69-3.09,1.22-6.45,1.62-10.06,.09-.77,.17-1.54,.24-2.33,.03-.37,.07-.75,.1-1.12,.03-.3,.05-.61,.07-.91,.05-.61,.1-1.23,.13-1.85,.02-.25,.04-.5,.05-.76,.08-1.39,.15-2.8,.21-4.24,.02-.53,.04-1.08,.06-1.62,.09-3.17,.11-6.46,.06-9.83-.03-2.36-.09-4.78-.19-7.22-.02-.55-.04-1.11-.06-1.67-.05-1.17-.11-2.35-.17-3.53-.03-.6-.07-1.2-.1-1.8-.04-.7-.08-1.4-.12-2.1-.03-.55-.07-1.1-.11-1.65-4.08-60.62-3.89-136.03-3.89-136.03,0,0-181.36-65.61-187.5-57-4.86,6.83-6.04,63.82-5.61,104.03,.09,7.76-.15,13.35-.86,15.71,0,.01,0,.02,0,.03-.25,.81-.56,1.23-.94,1.21-10.04-.54-13.87-17.17-39.16-41.73-.26-.26-1.22-2.7-3.21-6.7-5.35-10.72-8.17-32.62-35.1-53.4-7.31-5.64-16.05-4.02-19.52-1.08-4.33,3.65-6.06,8.36-5.43,9.96,.13,.33,.44,1.03,.9,2.02,.11,.24,.23,.49,.35,.77l.02,.05c5.16,11.18,13.51,49.57,16.07,58.91,3.89,14.19,36.21,60.44,45.32,96.19,5.56,21.82,73.75,108.08,88.79,126.91,1.87,2.35,2.92,3.65,2.92,3.65l99.11,23.2,36.33-23.17Z"/>
      <path class="cls-1" d="M939.41,270.4l16.51,165.49,5.01,52.39c.01,2.81-1.08,4.63-2.91,5.76-5.74,3.55-18.75,.28-27.43-.38l-.88-.06c-11.45-.87-20.86-11.12-20.92-22.77l-11.9-126.41h0l.02-77.24c-.06-11.66,9.26-20.49,20.7-19.62l.88,.06c11.45,.87,20.86,11.12,20.92,22.78Z"/>
      <path class="cls-1" d="M1092.87,712.17l-.37-.68s-25.88,7.25-47.88,14.64c-32.75,11.01-64.06,22.35-91.78,10.61-.08-.03-.16-.07-.24-.1l7.54,35.12,7.88,60.74h151.21l-26.36-120.33Z"/>
      <path class="cls-1" d="M1005.08,453.3l-2.07,5.65-19.01,38.02c-.33,.89-.7,1.76-1.11,2.58-5.74,11.61-19.52,7.1-31.94,2.56l-1.46-.53c-13.32-4.87-20.23-9.54-15.36-22.85l12.96-35.45,.94-2.58,2.07-5.65c4.87-13.31,22.29-20.22,35.61-15.35l1.46,.53c13.32,4.87,22.78,19.75,17.91,33.06Z"/>
      <path class="cls-1" d="M1056.4,460.4l-1.15,5.51-12.44,37.72c-.18,.87-.41,1.72-.68,2.54-3.74,11.51-17.09,9.2-29.19,6.67l-1.42-.29c-12.97-2.71-19.99-6.09-17.29-19.06l7.2-34.52,.52-2.51,1.15-5.51c2.71-12.97,17.89-21.7,30.86-19l1.42,.29c12.97,2.71,23.73,15.19,21.02,28.15Z"/>
      <path class="cls-1" d="M1099.14,474.62l-.13,5.07-4.94,35.45c-.02,.8-.08,1.59-.19,2.36-1.46,10.81-13.67,10.92-24.8,10.63l-1.31-.03c-11.94-.3-18.71-2.17-18.41-14.1l.81-31.77,.06-2.31,.13-5.07c.3-11.93,12.35-22.13,24.29-21.83l1.31,.03c11.94,.3,23.49,9.63,23.19,21.56Z"/>
    </g>
  </g>
</svg>