<?xml version="1.0" encoding="UTF-8"?>
<svg xmlns="http://www.w3.org/2000/svg" viewBox="0 0 1920 1080">
  <defs>
    <style>
      .cls-1 {
        fill: #38365f;
      }

      .cls-2 {
        fill: #f0917b;
      }

      .cls-3 {
        fill: #f2b696;
      }
    </style>
  </defs>
  <g id="Calque_2" data-name="Calque 2"/>
  <g id="Calque_1" data-name="Calque 1">
    <g>
      <path class="cls-3" d="M829.79,936c-.16,.17-.33,.34-.49,.51-.44,.45-.87,.9-1.3,1.34-4.75,4.86-9.42,9.32-14.02,13.35-.67,.59-1.34,1.17-2.01,1.74-1.1,.93-2.19,1.83-3.27,2.71-.61,.5-1.21,.98-1.81,1.45-.66,.51-1.31,1.02-1.95,1.51-.52,.39-1.04,.78-1.56,1.16-.1,.08-.2,.16-.31,.23-1.09,.8-2.17,1.57-3.25,2.31-.57,.4-1.15,.79-1.72,1.17-1.21,.79-2.4,1.54-3.58,2.25-.58,.35-1.15,.69-1.73,1.02s-1.15,.65-1.72,.96c-.75,.41-1.5,.82-2.25,1.25-3.34,1.89-6.62,3.92-9.82,6.09-.54,.36-1.08,.73-1.61,1.1-.63,.43-1.26,.87-1.88,1.32-1.25,.88-2.49,1.8-3.72,2.74-.62,.46-1.23,.93-1.84,1.41-.61,.47-1.22,.95-1.82,1.44-.87,.7-1.74,1.41-2.61,2.12-.03,.02-.06,.05-.09,.08-.89,.74-1.77,1.49-2.65,2.26-1.18,1.01-2.34,2.04-3.49,3.1-.69,.63-1.37,1.26-2.05,1.9-.39,.36-.78,.73-1.17,1.1-.63,.6-1.26,1.2-1.88,1.81-.89,.87-1.77,1.75-2.65,2.64-.87,.89-1.74,1.78-2.6,2.68-.44,.46-.88,.92-1.31,1.39-.54,.57-1.07,1.14-1.6,1.72-.81,.87-1.6,1.74-2.37,2.62-.79,.87-1.56,1.76-2.33,2.65-.87,.99-1.72,2-2.56,3.01-.67,.79-1.33,1.59-1.99,2.4-.5,.61-1,1.22-1.48,1.83-.42,.51-.84,1.03-1.24,1.56-.55,.68-1.08,1.36-1.6,2.04-.92,1.18-1.83,2.37-2.73,3.57-9.77,13.02-18.37,26.78-25.82,40.29-3.02,5.45-5.84,10.86-8.48,16.17h-78.89l-43.87-66.38-90.92-137.55s.08-3.34,.25-9.34c1.33-48.17,8.48-267.98,28.14-308.49,32.22-66.37,47.78-200.48,60.16-227.18,8.14-17.56,29.66-99.9,36.2-123.64l.03-.11c.17-.59,.32-1.13,.46-1.64,.58-2.1,1-3.56,1.23-4.24,1.1-3.24,9.82-8.21,21.15-8.2,7.84,0,20.38,6.52,26.19,19.88,.94,2.14,1.7,4.47,2.24,6.97,14.34,66.49,5.66,116.5,0,139.79-.84,3.46-1.62,6.33-2.24,8.58-.95,3.4-1.54,5.37-1.5,5.81,.26,2.64,.48,5.26,.66,7.85,.19,2.59,.34,5.15,.45,7.69,.12,2.52,.21,5.01,.26,7.48,.06,2.53,.08,5.02,.08,7.48,0,2.13-.02,4.25-.06,6.33-.04,2.42-.11,4.81-.2,7.16-.04,1.1-.09,2.2-.14,3.28-.05,1.09-.1,2.17-.16,3.24-.03,.69-.07,1.36-.11,2.04-.02,.39-.05,.77-.08,1.16-.07,1.18-.14,2.36-.23,3.53-.08,1.17-.17,2.33-.25,3.48-.18,2.3-.36,4.55-.56,6.77-.14,1.48-.27,2.94-.41,4.38-.55,5.76-1.14,11.22-1.69,16.35-.13,1.22-.26,2.43-.39,3.61-.13,1.31-.27,2.58-.4,3.83-.16,1.6-.31,3.16-.46,4.68-.63,6.81-1.03,12.83-.93,17.99,.01,.55,.02,1.09,.05,1.61,.02,.44,.04,.87,.07,1.29,.02,.37,.05,.73,.08,1.08,.09,1.16,.22,2.26,.4,3.3,.04,.26,.09,.51,.14,.77,.04,.27,.09,.55,.15,.81,.08,.39,.17,.77,.27,1.14,.2,.81,.44,1.57,.72,2.3,.14,.37,.28,.72,.44,1.06,.15,.35,.31,.68,.49,1,.17,.32,.35,.63,.54,.93,.38,.6,.79,1.16,1.25,1.67,.23,.26,.47,.51,.72,.74,.2,.19,.47,.27,.8,.26,.06,0,.13-.01,.21-.02,.06-.01,.12-.02,.19-.04,.49-.11,1.09-.39,1.79-.84,.02,0,.03-.02,.05-.03,4.13-2.68,11.71-10.92,21.59-22.89,.06-.07,.11-.14,.17-.21v409.49c0,6.23,1.42,12.12,3.97,17.37,6.45,13.39,20.16,22.62,36.02,22.62h110.24Z"/>
      <path class="cls-3" d="M1177.02,163.8l-57.02,83.58-24.44,35.83-17.54,25.71-6.46,9.48-7.51,11.01c-3.41,4.12-7.36,5.55-11.63,5.14-4.88-.46-10.17-3.31-15.56-7.27,5.08-5.47,11.63-9.87,19.26-12.59,.51-.19,1.02-.36,1.54-.53l13.9-3.58V162.23l16.71-20.2h0l4.34-5.26,21.03-25.41c14.12-17.07,39.64-19.48,56.7-5.36l1.31,1.08c17.08,14.12,19.49,39.64,5.37,56.72Z"/>
      <path class="cls-2" d="M829.78,936c-.16,.17-.32,.34-.48,.51-.44,.45-.87,.9-1.3,1.34-4.75,4.86-9.42,9.32-14.02,13.35-.67,.59-1.34,1.17-2.01,1.74-1.1,.93-2.19,1.83-3.27,2.71-.61,.5-1.21,.98-1.81,1.45-.66,.51-1.31,1.02-1.95,1.51-.52,.39-1.04,.78-1.56,1.16-.1,.08-.2,.16-.31,.23-1.09,.8-2.17,1.57-3.25,2.31-.57,.4-1.15,.79-1.72,1.17-1.21,.79-2.4,1.54-3.58,2.25-.58,.35-1.15,.69-1.73,1.02s-1.15,.65-1.72,.96c-.75,.41-1.5,.82-2.25,1.25-3.34,1.89-6.62,3.92-9.82,6.09-.54,.35-1.08,.72-1.61,1.1-.63,.43-1.26,.87-1.88,1.32-1.25,.88-2.49,1.8-3.72,2.74-.62,.46-1.23,.93-1.84,1.41-.61,.47-1.22,.95-1.82,1.44-.88,.69-1.74,1.4-2.61,2.12-.03,.02-.06,.05-.09,.08-.89,.74-1.77,1.49-2.65,2.26-1.18,1.01-2.34,2.04-3.49,3.1-.69,.63-1.37,1.26-2.05,1.9-.39,.36-.78,.73-1.17,1.1-.63,.6-1.26,1.2-1.88,1.81-.89,.87-1.78,1.75-2.65,2.64-.88,.88-1.75,1.78-2.6,2.68-.45,.46-.89,.92-1.31,1.39-.55,.57-1.08,1.14-1.6,1.72-.81,.87-1.6,1.74-2.37,2.62-.79,.88-1.57,1.76-2.33,2.65-.87,.99-1.72,2-2.56,3.01-.67,.79-1.34,1.59-1.99,2.4-.5,.61-1,1.22-1.48,1.83-.42,.51-.84,1.03-1.24,1.56-.55,.68-1.08,1.36-1.6,2.04-.93,1.18-1.83,2.37-2.73,3.57-19.41-9.05-41.53-19.66-63.15-30.17-2.88-1.4-5.46-3.1-7.74-5.03-18.47-15.66-16.78-46.6,6.12-58.97,.02-.01,.05-.03,.07-.04,.25-.13,.5-.27,.74-.41,6.01-3.44,12.06-9.05,17.76-15.54,6.45,13.39,20.16,22.62,36.02,22.62h110.23Z"/>
      <path class="cls-3" d="M735.61,1014.86l-.31,1.51-11.09,53.55-2.09,10.08H367.79l80.17-150.34,33.8-63.39c.08,.15,.15,.31,.24,.46,27.2,53.72,112.6,96.17,176.84,121.61,43.16,17.1,76.77,26.52,76.77,26.52Z"/>
      <path class="cls-2" d="M657.79,695.62s-12.61-110.09-24.25-131.55c-11.64-21.47-21.48-64.46-3.58-96.4,17.9-31.95,24.08-93.41,24.08-93.41,6.95,70.16-13.94,122.24,.71,136.03,.55,.51,1.56,.27,2.99-.64l.04,185.97Z"/>
      <path class="cls-2" d="M1120,247.38l-24.44,35.83-17.54,25.71-6.46,9.48-7.51,11.01c-3.41,4.12-7.36,5.55-11.63,5.14l3.7-19.86c.51-.19,1.02-.36,1.54-.53l13.9-3.58v-78.81l16.71-89.74c.04,.58,1.8,25.39,7.29,51.15,4.82,22.57,12.51,45.85,24.44,54.2Z"/>
      <path class="cls-1" d="M1092.61,136.77c-8.18-25.92-32.44-44.77-61.04-44.77h-312.02c-35.28,0-63.99,28.71-63.99,63.99V896.01c0,12.21,3.44,23.64,9.4,33.36,11.26,18.36,31.52,30.63,54.59,30.63h312.02c35.29,0,63.99-28.71,63.99-63.99V155.99c0-6.69-1.03-13.15-2.95-19.22Zm-21.05,759.24c0,22.09-17.9,39.99-39.99,39.99h-312.02c-15.86,0-29.57-9.23-36.02-22.62-2.55-5.25-3.97-11.14-3.97-17.37V155.99c0-22.09,17.91-39.99,39.99-39.99h72.72c0,13.25,10.74,24,24,24h116c13.25,0,24-10.75,24-24h75.3c22.09,0,39.99,17.9,39.99,39.99V896.01Z"/>
      <path class="cls-3" d="M1148.63,479.45l-8.5,3.23-44.57,16.94-12.61,4.79c-1.34,.51-2.69,.94-4.05,1.28-2.44,.64-4.89,1.02-7.34,1.16-16.56,1.02-32.65-8.74-38.83-25.01l-.84-2.2c-7.61-20.02,2.54-42.63,22.57-50.24l17.1-6.5,24-9.11,12.2-4.64,3.87-1.47,8.51-3.24c20.02-7.6,42.62,2.55,50.22,22.57l.84,2.2c7.61,20.02-2.54,42.63-22.57,50.24Z"/>
      <path class="cls-3" d="M1122.69,559.83l-27.13,7.39-16.96,4.62c-2.35,.64-4.71,.92-7.04,.87-10.94-.19-20.95-7.55-23.96-18.6l-1.35-4.99c-3.65-13.4,4.32-27.35,17.72-30.99l7.59-2.07,24-6.53,12.51-3.41c13.39-3.64,27.34,4.33,30.99,17.73l1.36,4.99c3.64,13.4-4.33,27.35-17.73,30.99Z"/>
      <path class="cls-3" d="M1147.24,394.94c-.31,.12-.62,.22-.95,.33l-50.73,13.02-7.07,1.82c-5.68,1.46-11.4,1.91-16.93,1.45-19.25-1.54-36.28-13.88-41.49-32.01l-3.44-11.96c-4.18-14.54,.19-29.51,10.23-40.31,5.08-5.47,11.63-9.87,19.26-12.59,.51-.19,1.02-.36,1.54-.53l13.9-3.58,5.19-1.33,1.27-.33,17.54-4.49,19.91-5.11c25.42-6.54,51.7,7.22,58.41,30.56l3.44,11.95c6.35,22.11-7.04,45.19-30.08,53.11Z"/>
    </g>
  </g>
</svg>