<?xml version="1.0" encoding="utf-8"?>
<!-- Generator: Adobe Illustrator 26.2.1, SVG Export Plug-In . SVG Version: 6.00 Build 0)  -->
<svg version="1.1" id="Calque_1" xmlns="http://www.w3.org/2000/svg" xmlns:xlink="http://www.w3.org/1999/xlink" x="0px" y="0px"
	 viewBox="0 0 512 512" style="enable-background:new 0 0 512 512;" xml:space="preserve">
<style type="text/css">
	.st0{fill:#FFFFFF;}
</style>
<path class="st0" d="M406,335.7c-22.1,0-40,17.9-40,40V396H146v-20.3c0-22.1-17.9-40-40-40s-40,17.9-40,40v30.6
	c0,38.4,31.3,69.7,69.7,69.7h240.6c38.4,0,69.7-31.3,69.7-69.7v-30.6C446,353.6,428.1,335.7,406,335.7L406,335.7z"/>
<path class="st0" d="M227.7,364.3c0.5,0.5,0.9,0.9,1.4,1.4c0.2,0.2,0.5,0.4,0.7,0.6c0.3,0.2,0.5,0.5,0.8,0.7
	c0.3,0.2,0.6,0.5,0.9,0.7c0.2,0.1,0.4,0.3,0.6,0.5c0.4,0.3,0.7,0.5,1.1,0.8c0.2,0.1,0.4,0.2,0.5,0.4c0.4,0.2,0.7,0.5,1.1,0.7
	c0.2,0.1,0.4,0.2,0.5,0.3c0.4,0.2,0.7,0.4,1.1,0.6c0.2,0.1,0.4,0.2,0.6,0.3c0.4,0.2,0.7,0.4,1.1,0.5c0.2,0.1,0.5,0.2,0.7,0.3
	c0.3,0.2,0.7,0.3,1,0.5c0.3,0.1,0.5,0.2,0.8,0.4c0.3,0.1,0.6,0.2,0.9,0.4c0.3,0.1,0.6,0.2,1,0.4c0.3,0.1,0.5,0.2,0.8,0.3
	c0.4,0.1,0.7,0.2,1.1,0.4c0.2,0.1,0.5,0.1,0.7,0.2c0.4,0.1,0.8,0.2,1.2,0.3c0.2,0,0.4,0.1,0.7,0.1c0.4,0.1,0.8,0.2,1.2,0.3
	c0.2,0,0.4,0.1,0.7,0.1c0.4,0.1,0.8,0.1,1.2,0.2c0.3,0,0.5,0.1,0.8,0.1c0.4,0,0.8,0.1,1.2,0.1c0.3,0,0.7,0,1,0.1
	c0.3,0,0.6,0,0.9,0.1c0.7,0,1.3,0,2,0c0.7,0,1.3,0,2,0c0.3,0,0.6,0,0.9-0.1c0.3,0,0.7,0,1-0.1c0.4,0,0.8-0.1,1.2-0.1
	c0.2,0,0.5-0.1,0.8-0.1c0.4-0.1,0.8-0.1,1.3-0.2c0.2,0,0.4-0.1,0.6-0.1c0.4-0.1,0.9-0.2,1.3-0.3c0.2,0,0.4-0.1,0.6-0.1
	c0.4-0.1,0.8-0.2,1.2-0.3c0.2-0.1,0.5-0.1,0.7-0.2c0.4-0.1,0.8-0.2,1.1-0.4c0.2-0.1,0.5-0.2,0.8-0.3c0.3-0.1,0.7-0.2,1-0.4
	c0.3-0.1,0.6-0.2,0.9-0.3c0.3-0.1,0.6-0.2,0.9-0.4c0.3-0.1,0.6-0.3,1-0.4c0.2-0.1,0.5-0.2,0.7-0.4c0.4-0.2,0.7-0.4,1-0.5
	c0.2-0.1,0.4-0.2,0.6-0.4c0.4-0.2,0.7-0.4,1.1-0.6c0.2-0.1,0.4-0.2,0.6-0.4c0.4-0.2,0.7-0.5,1.1-0.7c0.2-0.1,0.4-0.3,0.5-0.4
	c0.4-0.2,0.7-0.5,1-0.7c0.2-0.1,0.4-0.3,0.6-0.5c0.3-0.2,0.6-0.5,0.9-0.7c0.3-0.2,0.5-0.5,0.8-0.7c0.2-0.2,0.5-0.4,0.7-0.6
	c0.5-0.5,1-0.9,1.4-1.4l84.9-84.9c15.6-15.6,15.6-40.9,0-56.6s-41-15.6-56.6,0L296,239.4V76c0-22.1-17.9-40-40-40s-40,17.9-40,40
	v163.4l-16.6-16.6c-15.6-15.6-40.9-15.6-56.6,0s-15.6,41,0,56.6L227.7,364.3L227.7,364.3z"/>
</svg>
