<?xml version="1.0" encoding="UTF-8"?>
<svg xmlns="http://www.w3.org/2000/svg" viewBox="0 0 1920 1080">
  <defs>
    <style>
      .cls-1 {
        fill: #07101e;
      }
    </style>
  </defs>
  <g id="Calque_2" data-name="Calque 2"/>
  <g id="Calque_1" data-name="Calque 1">
    <path class="cls-1" d="M1473.93,820.95v-20.34c35.04-14.56,59.85-49.2,59.85-89.35v-4.6h4.6c12.71,0,23.02-10.31,23.02-23.02h0c0-11.25-8.07-20.61-18.74-22.62,3.22-10.31,4.92-21.26,4.92-32.63,0-61-49.49-110.5-110.5-110.5s-110.5,49.49-110.5,110.5c0,11.37,1.7,22.32,4.92,32.63-10.67,2.01-18.74,11.37-18.74,22.62h0c0,12.71,10.31,23.02,23.02,23.02h4.6v4.6c0,40.15,24.81,74.79,59.85,89.35v20.34c-21.9,4.57-42.34,13.14-60.52,24.9l-93.61-83.86,20.25-124.57-.45-.07c2.64-6.13,3.04-13.13,.86-19.67l5.96-24.04c.45-1.81,.32-3.62-.25-5.25l3.3-1.91-9.21-15.95-20.46,11.81c-8.37-11.33-24.15-14.63-36.45-7.21h0c-12,7.23-16.52,22.15-11.07,34.66l-11.76,6.79-155.5,89.78c25.16,6.74,101.53-26.72,115.18-39.92,16.88-16.32,49.53-33.91,49.53-33.91l11.84-6.84,3.48,5.77-20.73,127.52c-2.65,17.85,5.07,35.23,19.8,45.23l125.35,112.29v130.87h13.81v340.71h-9.21c-15.26,0-27.62,12.37-27.62,27.62v18.42h101.29v-332.95c7.34,.95,15.05,1.45,23.02,1.45s15.68-.51,23.02-1.45v332.95h101.29v-18.42c0-15.26-12.37-27.62-27.62-27.62h-9.21v-340.71h13.81v-122.64c14.49,20.33,23.02,45.18,23.02,71.99v155.75l-16.84,16.84c-3.6,3.6-3.6,9.43,0,13.02h0c3.6,3.6,9.43,3.6,13.02,0l3.81-3.81v11.58c0,15.26,12.37,27.62,27.62,27.62h0c15.26,0,27.62-12.37,27.62-27.62v-193.37c0-86.54-61.23-158.78-142.73-175.77Zm66.66-160.22s-.05,0-.08,0c.03,0,.05,0,.08,0Zm-206.98,0s.05,0,.08,0c-.03,0-.05,0-.08,0Z"/>
  </g>
</svg>